<svg width="100%" height="100%" viewBox="0 0 77 77" version="1.1" xmlns="http://www.w3.org/2000/svg" xmlns:xlink="http://www.w3.org/1999/xlink" xml:space="preserve" fill-rule="evenodd" clip-rule="evenodd" stroke-linejoin="round" stroke-miterlimit="1.41421"><path d="M38.45,76.95c9.9,0 19.7,-3.8 27.2,-11.3c15,-15 15,-39.4 0,-54.4c-15,-15 -39.4,-15 -54.4,0c-15,15 -15,39.4 0,54.4c7.5,7.5 17.3,11.3 27.2,11.3Zm-23.7,-62.2c6.5,-6.5 15.1,-9.8 23.7,-9.8c8.6,0 17.2,3.3 23.7,9.8c13.1,13.1 13.1,34.3 0,47.4c-13.1,13.1 -34.3,13.1 -47.4,0c-13.1,-13.1 -13.1,-34.3 0,-47.4Z" fill="#888" fill-rule="nonzero"/><path d="M24.95,55.95c0.7,0 1.3,-0.3 1.8,-0.8l13,-14.1c0.4,-0.5 0.7,-1.1 0.7,-1.7l0,-18.9c0,-1.4 -1.1,-2.5 -2.5,-2.5c-1.4,0 -2.5,1.1 -2.5,2.5l0,18l-12.4,13.3c-0.9,1 -0.9,2.6 0.1,3.5c0.5,0.5 1.2,0.7 1.8,0.7Z" fill="#888" fill-rule="nonzero"/></svg>