<svg width="100%" height="100%" viewBox="0 0 76 76" version="1.1" xmlns="http://www.w3.org/2000/svg" xmlns:xlink="http://www.w3.org/1999/xlink" xml:space="preserve" fill-rule="evenodd" clip-rule="evenodd" stroke-linejoin="round" stroke-miterlimit="1.41421"><path d="M27.604,75.625c-2.527,0 -4.89,-0.968 -6.655,-2.725l-18.213,-18.123c-1.766,-1.759 -2.737,-4.112 -2.736,-6.628c0.002,-2.515 0.976,-4.867 2.742,-6.623l38.997,-38.812c1.672,-1.672 3.921,-2.636 6.328,-2.714l18.533,0.009c5.169,0 9.38,4.188 9.384,9.335l0,18.384c-0.082,2.458 -1.05,4.693 -2.726,6.359l-38.997,38.81c-1.763,1.759 -4.129,2.728 -6.657,2.728l0,0Zm20.528,-71.597c-1.306,0.042 -2.581,0.587 -3.526,1.532l-39.003,38.816c-1.001,0.996 -1.554,2.336 -1.555,3.776c0,1.439 0.551,2.78 1.551,3.777l18.212,18.122c1.001,0.997 2.348,1.546 3.792,1.546l0.001,0c1.447,0 2.794,-0.549 3.792,-1.547l39.001,-38.813c0.949,-0.942 1.495,-2.211 1.54,-3.577l-0.001,-18.314c-0.003,-2.925 -2.397,-5.307 -5.337,-5.308l-18.467,-0.01l0,0Zm8.765,23.693c-4.834,0 -8.768,-3.915 -8.769,-8.725c0.001,-4.81 3.935,-8.724 8.767,-8.726c0.001,0 0.002,0 0.002,0c4.831,0 8.764,3.914 8.767,8.725c-0.001,4.812 -3.935,8.726 -8.767,8.726Zm0,-13.422c-2.602,0 -4.719,2.108 -4.72,4.698c0.001,2.589 2.118,4.697 4.72,4.697c2.601,0 4.718,-2.107 4.719,-4.698c-0.001,-2.589 -2.118,-4.697 -4.719,-4.697l0,0Z" fill="#888" fill-rule="nonzero"/></svg>