<?xml version="1.0" encoding="UTF-8" standalone="no"?>
<svg width="514px" height="315px" viewBox="0 0 514 315" version="1.1" xmlns="http://www.w3.org/2000/svg" xmlns:xlink="http://www.w3.org/1999/xlink" xmlns:sketch="http://www.bohemiancoding.com/sketch/ns">
    <title>logo</title>
    <description>Created with Sketch (http://www.bohemiancoding.com/sketch)</description>
    <defs></defs>
    <g id="Page 1" stroke="none" stroke-width="1" fill="none" fill-rule="evenodd">
        <path d="M123.381732,73.504 L72.984,73.504 L72.984,241 L125.499999,241.000002 L125.499999,148.000002 L175.499999,208.000002 L223.12725,148.000002 L223.12725,241.000002 L273,241 L273,73.504 L223.127244,73.504 L175.499999,135.499998 Z M39.998409,0 L474.001591,0 C496.082843,0 514,17.9063026 514,39.9948462 L514,275.005154 C514,297.090318 496.092102,315 474.001591,315 L39.998409,315 C17.9171575,315 0,297.093697 0,275.005154 L0,39.9948462 C0,17.9096817 17.9078977,0 39.998409,0 Z M360,74.5 L359.502605,74.5 L359.502604,160.5 L311.5,160.5 L385.5,241 L459.502557,160.005585 L409.522722,160.005585 L409.522722,74.5 Z M360,74.5" id="Rectangle 1" fill="#000000"></path>
    </g>
</svg>