<?xml version="1.0" encoding="UTF-8" standalone="no"?>
<svg width="286px" height="104px" viewBox="0 0 286 104" version="1.1" xmlns="http://www.w3.org/2000/svg" xmlns:xlink="http://www.w3.org/1999/xlink" xmlns:sketch="http://www.bohemiancoding.com/sketch/ns">
    <title>34</title>
    <description>Created with Sketch (http://www.bohemiancoding.com/sketch)</description>
    <defs></defs>
    <g id="Page 1" stroke="none" stroke-width="1" fill="none" fill-rule="evenodd">
        <path d="M115.423077,37.4284709 L115.423077,38.6938133 C115.423077,39.6980582 115.47329,40.6119075 115.573718,41.4353884 C115.674146,42.2588693 115.862445,42.9517879 116.138622,43.5141651 C116.414798,44.0765423 116.785121,44.5184034 117.249599,44.8397618 C117.714078,45.1611202 118.297806,45.321797 119.000801,45.321797 C119.829331,45.321797 120.576252,44.8899782 121.241587,44.0263275 C121.906921,43.1626768 122.239583,41.827051 122.239583,40.01941 C122.239583,39.0553348 122.157987,38.221824 121.994792,37.5188525 C121.831596,36.815881 121.561701,36.1832162 121.185096,35.620839 C120.808492,35.0584618 120.312637,34.5463045 119.697516,34.0843518 C119.082395,33.6223991 118.322921,33.1504111 117.419071,32.6683735 C116.213936,32.0256567 115.172013,31.3226957 114.293269,30.5594696 C113.414526,29.7962434 112.680158,28.9024787 112.090144,27.8781488 C111.500131,26.853819 111.067042,25.6688277 110.790865,24.3231394 C110.514689,22.9774511 110.376603,21.4208947 110.376603,19.6534235 C110.376603,15.3954248 111.117247,12.2220583 112.598558,10.1332287 C114.079869,8.04439912 116.113502,7 118.699519,7 C119.904653,7 121.01562,7.21088828 122.032452,7.63267118 C123.049284,8.05445407 123.928014,8.73733042 124.66867,9.6813207 C125.409325,10.625311 125.986777,11.8303869 126.401042,13.2965846 C126.815307,14.7627823 127.022436,16.5201846 127.022436,18.5688444 L127.022436,19.7739323 L121.825321,19.7739323 C121.825321,17.7252726 121.599361,16.1486316 121.147436,15.0439621 C120.695511,13.9392926 119.942313,13.3869662 118.887821,13.3869662 C118.285253,13.3869662 117.783122,13.5275584 117.38141,13.808747 C116.979699,14.0899356 116.65959,14.4615006 116.421074,14.9234533 C116.182558,15.385406 116.019365,15.9176479 115.93149,16.5201949 C115.843616,17.1227418 115.799679,17.7453644 115.799679,18.3880812 C115.799679,19.7136846 115.975426,20.8283798 116.326923,21.7322003 C116.678421,22.6360208 117.431618,23.4695316 118.586538,24.2327578 L122.766827,27.1249689 C123.796212,27.8480253 124.637283,28.6011977 125.290064,29.3845088 C125.942845,30.1678199 126.463807,31.011373 126.852965,31.9151935 C127.242123,32.819014 127.512018,33.8132016 127.66266,34.8977862 C127.813302,35.9823708 127.888622,37.1874467 127.888622,38.5130501 C127.888622,43.0522374 127.066381,46.3561538 125.421875,48.4248985 C123.777369,50.4936432 121.486393,51.528 118.548878,51.528 C115.485829,51.528 113.295279,50.4635163 111.977163,48.3345169 C110.659048,46.2055175 110,43.1526586 110,39.1758484 L110,37.4284709 Z M146.342147,7.84356157 L146.342147,14.9535805 L140.467147,14.9535805 L140.467147,50.8652016 L135.044071,50.8652016 L135.044071,14.9535805 L129.169071,14.9535805 L129.169071,7.84356157 Z M152.55609,34.6567686 L157.828526,34.6567686 L155.229968,15.3151069 L155.154647,15.3151069 Z M151.840545,7.84356157 L158.544071,7.84356157 L165.661859,50.8652016 L160.012821,50.8652016 L158.770032,41.7667876 L151.614583,41.7667876 L150.371795,50.8652016 L144.722756,50.8652016 Z M167.544872,7.84356157 L177.5625,7.84356157 C179.822127,7.84356157 181.579588,8.7574108 182.834936,10.5851367 C184.090284,12.4128625 184.717949,15.1945794 184.717949,18.9303708 C184.717949,21.8225963 184.353903,24.1825366 183.625801,26.0102625 C182.897699,27.8379884 181.767903,29.0129374 180.236378,29.5351448 L180.236378,29.6556536 C181.592154,29.977012 182.583864,30.6799729 183.211538,31.7645575 C183.839213,32.8491421 184.228365,34.5965022 184.379006,37.0066901 C184.42922,37.8100861 184.46688,38.6837661 184.491987,39.6277564 C184.517094,40.5717467 184.542201,41.6261881 184.567308,42.7911123 C184.617522,45.0807909 184.692841,46.8281509 184.793269,48.0332449 C184.943911,49.2383389 185.270297,50.0618074 185.772436,50.5036752 L185.772436,50.8652016 L179.897436,50.8652016 C179.621259,50.2626546 179.445513,49.569736 179.370192,48.7864249 C179.294871,48.0031138 179.244658,47.1896876 179.219551,46.3461218 L179.06891,38.0912693 C179.018696,36.4041377 178.755077,35.0785542 178.278045,34.114479 C177.801013,33.1504038 176.997602,32.6683735 175.867788,32.6683735 L172.967949,32.6683735 L172.967949,50.8652016 L167.544872,50.8652016 Z M172.967949,26.6429337 L175.227564,26.6429337 C176.533126,26.6429337 177.53739,26.150861 178.240385,25.1667009 C178.94338,24.1825409 179.294872,22.5255615 179.294872,20.1957131 C179.294872,16.218903 178.039542,14.2305277 175.528846,14.2305277 L172.967949,14.2305277 Z M203.548077,14.9535805 L197.673077,14.9535805 L197.673077,50.8652016 L192.25,50.8652016 L192.25,14.9535805 L186.375,14.9535805 L186.375,7.84356157 L203.548077,7.84356157 Z M203.548077,14.9535805" id="START" fill="#C32033"></path>
        <path d="M221.280792,0 L221.280792,40.5268966 C221.280792,41.9917315 221.354002,43.3344767 221.500422,44.5551724 C221.646843,45.7758682 221.918763,46.8337886 222.31619,47.7289655 C222.713618,48.6241424 223.257458,49.3294227 223.947726,49.8448276 C224.637995,50.3602325 225.506047,50.617931 226.551909,50.617931 C227.639605,50.617931 228.518116,50.3602325 229.187467,49.8448276 C229.856818,49.3294227 230.3902,48.6241424 230.787627,47.7289655 C231.185055,46.8337886 231.456975,45.7758682 231.603395,44.5551724 C231.749816,43.3344767 231.823025,41.9917315 231.823025,40.5268966 L231.823025,0 L240.859225,0 L240.859225,40.5268966 C240.859225,44.2161104 240.461803,47.267804 239.666948,49.682069 C238.872093,52.0963339 237.80533,54.0087286 236.466628,55.4193103 C235.127925,56.8298921 233.60099,57.7793079 231.885776,58.2675862 C230.170563,58.7558645 228.392625,59 226.551909,59 C224.711192,59 222.933254,58.7829907 221.218041,58.3489655 C219.502828,57.9149404 217.975893,57.03334 216.63719,55.7041379 C215.298487,54.3749359 214.231724,52.4896674 213.436869,50.0482759 C212.642015,47.6068843 212.244593,44.433123 212.244593,40.5268966 L212.244593,0 Z M255.6058,26.2855172 L259.621889,26.2855172 C261.420771,26.2855172 262.874496,25.5802369 263.98311,24.1696552 C265.091723,22.7590734 265.646022,20.561854 265.646022,17.577931 C265.646022,14.6482612 265.164932,12.4239156 264.20274,10.9048276 C263.240547,9.38573953 261.629944,8.6262069 259.370883,8.6262069 L255.6058,8.6262069 Z M246.569601,0 L262.38295,0 C264.683845,0 266.61866,0.501834062 268.187453,1.50551724 C269.756245,2.50920042 271.021719,3.82481945 271.983911,5.45241379 C272.946104,7.08000814 273.636362,8.93815048 274.054707,11.0268966 C274.473052,13.1156426 274.682221,15.2450466 274.682221,17.4151724 C274.682221,20.3990954 274.337092,23.0032073 273.646823,25.2275862 C272.956554,27.4519651 271.994376,29.2694182 270.760259,30.68 C269.526143,32.0905818 268.030583,33.1485022 266.273535,33.8537931 C264.516488,34.559084 262.571214,34.9117241 260.437657,34.9117241 L255.6058,34.9117241 L255.6058,58.1048276 L246.569601,58.1048276 Z M246.569601,0" id="UP" fill="#C32033"></path>
        <path d="M125.527619,77.1841732 C125.527619,74.3031196 125.222225,72.2069998 124.611429,70.895751 C124.000632,69.5845022 122.886357,68.9288877 121.268571,68.9288877 C120.377138,68.9288877 119.642543,69.1966739 119.064762,69.7322544 C118.486981,70.2678349 118.033018,71.1358316 117.702857,72.3362706 C117.372697,73.5367097 117.141588,75.106491 117.009524,77.0456617 C116.87746,78.9848324 116.811429,81.3579724 116.811429,84.1651529 C116.811429,87.1570163 116.902221,89.5763264 117.08381,91.4231556 C117.265398,93.2699849 117.54603,94.7012561 117.925714,95.7170122 C118.305399,96.7327683 118.784124,97.4160848 119.361905,97.7669824 C119.939685,98.11788 120.60825,98.2933261 121.367619,98.2933261 C121.994924,98.2933261 122.58095,98.173284 123.125714,97.9331962 C123.670479,97.6931084 124.14095,97.21294 124.537143,96.4926766 C124.933335,95.7724132 125.246983,94.7566723 125.478095,93.4454235 C125.709208,92.1341748 125.824762,90.4074153 125.824762,88.2650934 L132.95619,88.2650934 C132.95619,90.4074153 132.807621,92.438897 132.510476,94.3595995 C132.213332,96.2803019 131.660322,97.9608913 130.851429,99.4014181 C130.042536,100.841945 128.903499,101.968494 127.434286,102.781099 C125.965072,103.593704 124.058424,104 121.714286,104 C119.039987,104 116.910484,103.519832 115.325714,102.55948 C113.740944,101.599129 112.527623,100.214028 111.685714,98.4041353 C110.843805,96.5942426 110.299049,94.4334848 110.051429,91.921797 C109.803808,89.4101092 109.68,86.6399069 109.68,83.6111069 C109.68,80.6192435 109.803808,77.8582752 110.051429,75.3281191 C110.299049,72.797963 110.843805,70.6279712 111.685714,68.8180785 C112.527623,67.0081858 113.740944,65.5953826 115.325714,64.5796265 C116.910484,63.5638704 119.039987,63.056 121.714286,63.056 C124.256521,63.056 126.262215,63.5177004 127.731429,64.441115 C129.200642,65.3645297 130.298409,66.5372486 131.024762,67.9593072 C131.751115,69.3813657 132.205078,70.914211 132.386667,72.557889 C132.568255,74.2015671 132.659048,75.7436464 132.659048,77.1841732 Z M144.841905,88.4867118 L151.775238,88.4867118 L148.358095,70.7018349 L148.259048,70.7018349 Z M143.900952,63.8316644 L152.71619,63.8316644 L162.07619,103.390549 L154.647619,103.390549 L153.013333,95.0244547 L143.60381,95.0244547 L141.969524,103.390549 L134.540952,103.390549 Z M172.773333,63.8316644 L181.390476,90.9245142 L181.489524,90.9245142 L181.489524,63.8316644 L188.026667,63.8316644 L188.026667,103.390549 L179.904762,103.390549 L171.188571,75.688249 L171.089524,75.688249 L171.089524,103.390549 L164.552381,103.390549 L164.552381,63.8316644 Z M200.80381,88.4867118 L207.737143,88.4867118 L204.32,70.7018349 L204.220952,70.7018349 Z M199.862857,63.8316644 L208.678095,63.8316644 L218.038095,103.390549 L210.609524,103.390549 L208.975238,95.0244547 L199.565714,95.0244547 L197.931429,103.390549 L190.502857,103.390549 Z M227.992381,97.5176617 L231.161905,97.5176617 C232.416514,97.5176617 233.423488,97.2775775 234.182857,96.7974019 C234.942226,96.3172263 235.54476,95.5231016 235.990476,94.4150041 C236.436193,93.3069065 236.733333,91.8479333 236.881905,90.0380406 C237.030477,88.2281479 237.104762,85.97505 237.104762,83.2786793 C237.104762,81.0255476 237.038731,79.0494699 236.906667,77.350387 C236.774603,75.6513041 236.502224,74.2385009 236.089524,73.111935 C235.676823,71.9853692 235.066036,71.1358405 234.257143,70.5633234 C233.44825,69.9908063 232.366991,69.7045521 231.013333,69.7045521 L227.992381,69.7045521 Z M220.860952,63.8316644 L232.548571,63.8316644 C235.024774,63.8316644 237.022215,64.2841308 238.540952,65.1890771 C240.05969,66.0940235 241.239996,67.3867846 242.081905,69.0673992 C242.923814,70.7480138 243.493332,72.7702615 243.790476,75.134203 C244.087621,77.4981444 244.23619,80.1390707 244.23619,83.0570609 C244.23619,86.5290999 244.046351,89.5486205 243.666667,92.1157131 C243.286982,94.6828058 242.634925,96.7973936 241.710476,98.4595399 C240.786027,100.121686 239.547944,101.359043 237.99619,102.171648 C236.444437,102.984253 234.480012,103.390549 232.102857,103.390549 L220.860952,103.390549 Z M256.765714,88.4867118 L263.699048,88.4867118 L260.281905,70.7018349 L260.182857,70.7018349 Z M255.824762,63.8316644 L264.64,63.8316644 L274,103.390549 L266.571429,103.390549 L264.937143,95.0244547 L255.527619,95.0244547 L253.893333,103.390549 L246.464762,103.390549 Z M255.824762,63.8316644" id="CANADA" fill="#C32033"></path>
        <text id="TM" fill="#C32033" font-family="Helvetica Neue" font-size="7.36363636" font-style="condensed" font-weight="bold" x="276" y="104.497575">
            <tspan>TM</tspan>
        </text>
        <path d="M110,1 L110,4 L204,4 L204,1 L110,1 Z M110,1" id="Rectangle 1" fill="#C32033"></path>
        <path d="M110,54.528 L110,57.528 L204,57.528 L204,54.528 L110,54.528 Z M110,54.528" id="Rectangle 1 copy" fill="#C32033"></path>
        <path d="M52,104 C23.2811916,104 0,80.7188084 0,52 C0,23.2811916 23.2811916,0 52,0 C80.7188084,0 104,23.2811916 104,52 C104,80.7188084 80.7188084,104 52,104 Z M51.9985845,14.3225 L45.7436028,25.9888332 C45.0338419,27.2567694 43.7621651,27.139166 42.4904865,26.4309838 L37.9620464,24.0860698 L41.3371631,42.0053127 C42.046924,45.279057 39.7696936,45.279057 38.6458692,43.8635471 L30.7428607,35.0162456 L29.4598211,39.5091156 C29.3118642,40.0991259 28.6613231,40.7188222 27.6853583,40.5712486 L17.6919138,38.4701044 L20.3167562,48.0130297 C20.8786648,50.1364375 21.3169667,51.0156011 19.7494862,51.5756394 L16.1875,53.249762 L33.3905681,67.2233305 C34.0714754,67.7516842 34.4154973,68.7024957 34.1730899,69.5633892 L32.6674549,74.504404 C38.5907255,73.8216245 43.8980679,72.7943996 49.8243383,72.1617618 C50.3475065,72.1059121 51.223353,72.9692939 51.219761,73.5755737 L50.4349362,91.6775 L53.3148599,91.6775 L52.8615261,73.6143947 C52.8579139,73.0081148 53.6524898,72.1059121 54.1756581,72.1617618 C60.1019285,72.7944014 65.4092782,73.8216245 71.3325469,74.504404 L69.8269156,69.5633892 C69.5845082,68.7024957 69.9285282,67.7516842 70.6094356,67.2233305 L87.8125,53.249762 L84.2505175,51.5756394 C82.6830333,51.0156011 83.1213352,50.1364375 83.6832438,48.0130297 L86.3080917,38.4701044 L76.3146417,40.5712486 C75.3386769,40.7188222 74.6881358,40.0991259 74.5401753,39.5091156 L73.2571375,35.0162456 L65.3541326,43.8635471 C64.2303045,45.279057 61.9530723,45.279057 62.6628332,42.0053127 L66.0379444,24.0860698 L61.5095135,26.4309838 C60.2378037,27.139166 58.9661581,27.2567694 58.2563954,25.9888332 Z M51.9985845,14.3225" id="Oval 1" fill="#C32033"></path>
    </g>
</svg>