<svg height="420" viewBox="0 0 298 420" width="298" xmlns="http://www.w3.org/2000/svg"><g fill="none" fill-rule="evenodd"><path d="m233.164 15.681h-24.688l25.674 27.859v13.261h-52.882v-15.526h25.669l-25.669-27.86v-13.28h51.896zm-62.378 0h-24.688l25.673 27.859v13.261h-52.882v-15.526h25.672l-25.672-27.86v-13.28h51.897zm-61.768.631h-26.64v24.313h26.64v16.176h-45.574v-56.666h45.574zm0 0" fill="#131313"/><path d="m27.142 386.29-27.071-303.62h297.45l-27.096 303.571-121.811 33.77zm0 0" fill="#1572b6"/><path d="m148.798 394.199 98.427-27.288 23.157-259.415h-121.584zm0 0" fill="#33a9dc"/><g transform="translate(55 142)"><path d="m93.797 75.496h49.275l3.403-38.132h-52.678v-37.239h.129 93.246l-.893 9.991-9.152 102.616h-83.33zm0 0" fill="#fff"/><path d="m94.02 172.204-.163.046-41.472-11.199-2.652-29.698h-20.151-17.228l5.216 58.467 76.278 21.176.172-.048zm0 0" fill="#ebebeb"/><path d="m139.907 111.156-4.484 49.87-41.532 11.21v38.742l76.339-21.158.56-6.29 6.478-72.374zm0 0" fill="#fff"/><g fill="#ebebeb"><path d="m93.926.125v23.128 14.019.092h-89.828-.119l-.747-8.37-1.697-18.878-.89-9.991zm0 0"/><path d="m93.797 75.5v23.129 14.017.092h-40.828-.119l-.746-8.369-1.698-18.878-.89-9.991zm0 0"/></g></g></g></svg>