<svg height="420" viewBox="0 0 298 420" width="298" xmlns="http://www.w3.org/2000/svg"><g fill="none" fill-rule="evenodd"><path d="m27.383 386.266-27.07-303.62h297.45l-27.098 303.571-121.809 33.769zm0 0" fill="#e44f26"/><path d="m149.038 394.175 98.427-27.288 23.158-259.416h-121.585zm0 0" fill="#f1662a"/><path d="m149.038 220.08h-49.275l-3.404-38.132h52.679v-37.239h-.129-93.246l.892 9.991 9.152 102.616h83.331zm0 0" fill="#ebebeb"/><path d="m149.038 316.788-.163.046-41.472-11.199-2.652-29.698h-20.151-17.229l5.217 58.467 76.278 21.176.172-.048zm0 0" fill="#ebebeb"/><g fill="#010101"><path d="m27.988.135h18.924v18.696h17.311v-18.696h18.925v56.618h-18.924v-18.958h-17.31v18.958h-18.926zm0 0"/><path d="m108.032 18.91h-16.66v-18.775h52.252v18.775h-16.667v37.843h-18.924v-37.843zm0 0"/><path d="m151.917.135h19.733l12.137 19.894 12.127-19.894h19.739v56.618h-18.846v-28.063l-13.021 20.13h-.325l-13.028-20.13v28.063h-18.517v-56.618zm0 0"/><path d="m225.071.135h18.929v37.903h26.612v18.714h-45.542v-56.617zm0 0"/></g><path d="m148.909 220.08v37.236h45.854l-4.322 48.294-41.532 11.21v38.742l76.34-21.158.559-6.29 8.751-98.035.908-9.999h-10.034zm0 0" fill="#fff"/><path d="m148.909 144.709v23.128 14.019.092h89.827.12l.747-8.37 1.696-18.878.891-9.991zm0 0" fill="#fff"/></g></svg>