<svg height="297" viewBox="0 0 600 297" width="600" xmlns="http://www.w3.org/2000/svg" xmlns:xlink="http://www.w3.org/1999/xlink"><mask id="a" fill="#fff"><path d="m27 54c14.912 0 27-12.088 27-27s-12.088-27-27-27-27 12.088-27 27 12.088 27 27 27zm.5-14c6.904 0 12.5-5.596 12.5-12.5s-5.596-12.5-12.5-12.5-12.5 5.596-12.5 12.5 5.596 12.5 12.5 12.5z" fill="#fff" fill-rule="evenodd"/></mask><mask id="b" fill="#fff"><path d="m27 54c14.912 0 27-12.088 27-27s-12.088-27-27-27-27 12.088-27 27 12.088 27 27 27zm.5-14c6.904 0 12.5-5.596 12.5-12.5s-5.596-12.5-12.5-12.5-12.5 5.596-12.5 12.5 5.596 12.5 12.5 12.5z" fill="#fff" fill-rule="evenodd"/></mask><mask id="c" fill="#fff"><path d="m27 54c14.912 0 27-12.088 27-27s-12.088-27-27-27-27 12.088-27 27 12.088 27 27 27zm.5-14c6.904 0 12.5-5.596 12.5-12.5s-5.596-12.5-12.5-12.5-12.5 5.596-12.5 12.5 5.596 12.5 12.5 12.5z" fill="#fff" fill-rule="evenodd"/></mask><mask id="d" fill="#fff"><path d="m27 54c14.912 0 27-12.088 27-27s-12.088-27-27-27-27 12.088-27 27 12.088 27 27 27zm.5-14c6.904 0 12.5-5.596 12.5-12.5s-5.596-12.5-12.5-12.5-12.5 5.596-12.5 12.5 5.596 12.5 12.5 12.5z" fill="#fff" fill-rule="evenodd"/></mask><mask id="e" fill="#fff"><path d="m27 54c14.912 0 27-12.088 27-27s-12.088-27-27-27-27 12.088-27 27 12.088 27 27 27zm.5-14c6.904 0 12.5-5.596 12.5-12.5s-5.596-12.5-12.5-12.5-12.5 5.596-12.5 12.5 5.596 12.5 12.5 12.5z" fill="#fff" fill-rule="evenodd"/></mask><mask id="f" fill="#fff"><path d="m3.596 4.502v11.461s16.89-1.023 18.14.898c1.251 1.922 0 182.535 0 186.561s-8.09 5.98-8.09 5.98l-13.503-.027v11.66c31.053-2.721 70.837 0 70.837 0v-10.992l-12.632-.996s-6.795-.473-6.795-7.522c0-7.048-.014-56.822-.014-56.822s6.809-.993 9.748.686c2.94 1.678 53.512 79.045 53.512 79.045 16.358-.541 32.454-4.382 48.812-4.922 20.09-.664 60.532 1.31 60.532 1.31l.843-11.447s-15.21-.823-18.036-3.931c-2.825-3.109-2.149-102.688-1.05-106.302 1.1-3.615 25.662-8.505 25.662-8.505l-.841-11.434s-26.739 6.736-40.193 8.809c-12.784 1.971-38.522 3.324-38.522 3.324l-.514 10.42s20.623-.629 23.25 1c2.628 1.628 0 96.754 0 96.754s.672 9.865-11.131 9.865c-17.245 0-20.725-2.018-23.539-5.096-6.056-6.624-55.093-74.821-55.093-74.821l26.388-32.196s12.39-18.839 37.73-22.395v-11.083s-38.942 7.444-64.118 8.212v10.647s15.319-1.11 16.927-.514-34.816 53.243-50.353 51.725l1.541-133.768s-15.127 4.416-49.498 4.416z" fill="#fff" fill-rule="evenodd"/></mask><mask id="g" fill="#fff"><path d="m7.452 8.054s20.656-.141 36.006-1.501c15.066-1.334 55.243-6.583 55.243-6.583l.227 11.119s-22.493 3.104-26.795 4.905c-1.851.775-1.737 21.607-1.813 44.958-.1 30.918 0 66.34 0 66.34s0 39.433-16.35 62.175-41.779 24.98-41.779 24.98-12.436 2.302-12.436-11.871c0-6.806 6.732-11.449 11.746-11.133 5.427.341 9.169 5.947 9.169 5.947s5.168 1.917 11.192-7.923 7.12-24.981 7.12-24.981 3.396-143.021.19-144.767c-3.207-1.746-30.906-.176-30.906-.176z" fill="#fff" fill-rule="evenodd"/></mask><mask id="h" fill="#fff"><path d="m9.844-.03s5.143-.168 30.906 2.925c25.763 3.092 53.025 1.731 53.025 1.731v11.368s-17.574-1.801-21.877 0c-1.851.775.076 21.607 0 44.958-.1 30.918 0 66.34 0 66.34s-1.653 45.163-18.003 67.905c-16.351 22.742-41.311 24.98-41.311 24.98s-12.436 2.303-12.436-11.87c0-6.807 6.732-11.45 11.747-11.134 5.427.342 9.168 5.947 9.168 5.947s5.168 1.917 11.192-7.923 8.305-30.711 8.305-30.711 3.206-146.746 0-148.492-30.716-5.81-30.716-5.81z" fill="#fff" fill-rule="evenodd"/></mask><mask id="i" fill="#fff"><path d="m.668 9.826s24.961-.96 37.811-2.615c13.443-1.732 41.069-7.547 41.069-7.547l.58 10.116s-15.775 3.978-18.374 7.546c-2.599 3.567 0 105.484 0 105.484s0 8.439 2.577 10.779c2.577 2.339 16.463 1.488 16.463 1.488v11.276h-72.079l.667-10.801s14.905-.475 18.336-2.402c3.431-1.926 3.447-11.62 3.447-11.62s3.029-97.609-.459-100.645c-3.489-3.035-30.705-.571-30.705-.571z" fill="#fff" fill-rule="evenodd"/></mask><mask id="j" fill="#fff"><path d="m.382 9.78s16.247-.914 29.097-2.569c13.443-1.732 41.069-7.547 41.069-7.547l.58 10.116s-15.775 3.978-18.374 7.546c-2.599 3.567 0 105.484 0 105.484s-1.014 9.29 2.577 10.779c3.591 1.488 16.463.488 16.463.488v12.276h-72.079l.667-13.203s14.905 1.927 18.336 0c3.431-1.926 3.447-10.34 3.447-10.34s-.303-32.816 0-60.926c.219-20.297 0-35.204 0-39.411 0-3.549-21.783-1.588-21.783-1.588z" fill="#fff" fill-rule="evenodd"/></mask><mask id="k" fill="#fff"><path d="m3.673 9.982v-8.702h-3.251v-1.165h7.82v1.165h-3.264v8.702zm5.868 0v-9.867h1.965l2.336 6.986c.215.651.372 1.138.471 1.461.112-.359.287-.887.525-1.582l2.362-6.865h1.757v9.867h-1.259v-8.258l-2.867 8.258h-1.178l-2.853-8.4v8.4z" fill="#fff" fill-rule="evenodd"/></mask><g fill="none" fill-rule="evenodd"><path d="m-.04-.04h54.12v54.12h-54.12z" fill="#f2a52d" mask="url(#a)" transform="translate(162 34)"/><path d="m-.04 0h54.12v54.12h-54.12z" fill="#ea633f" mask="url(#b)" transform="translate(249)"/><path d="m-.08 0h54.12v54.12h-54.12z" fill="#7084bf" mask="url(#c)" transform="translate(337 45)"/><path d="m-.08-.08h54.12v54.12h-54.12z" fill="#abc85a" mask="url(#d)" transform="translate(424 14)"/><path d="m-.08 0h54.12v54.12h-54.12z" fill="#a34295" mask="url(#e)" transform="translate(511 27)"/><g fill="#3f4485"><path d="m.08.04h231.6v224.4h-231.6z" mask="url(#f)" transform="translate(0 11)"/><path d="m-.36-.12h99.36v214.8h-99.36z" mask="url(#g)" transform="translate(224 60)"/><path d="m.04-.04h93.84v220.44h-93.84z" mask="url(#h)" transform="translate(394 76)"/><path d="m-.04-.4h80.88v146.76h-80.88z" mask="url(#i)" transform="translate(318 103)"/><path d="m-.32-.44h72.12v146.88h-72.12z" mask="url(#j)" transform="translate(502 86)"/><path d="m.36 0h18.6v10.08h-18.6z" mask="url(#k)" transform="translate(581 84)"/></g></g></svg>