<svg height="315" viewBox="0 0 514 315" width="514" xmlns="http://www.w3.org/2000/svg"><path d="m123.381732 73.504h-50.397732v167.496l52.515999.000002v-93l50 60 47.627251-60v93l49.87275-.000002v-167.496h-49.872756l-47.627245 61.995998zm-83.383323-73.504h434.003182c22.081252 0 39.998409 17.9063026 39.998409 39.9948462v235.0103078c0 22.085164-17.907898 39.994846-39.998409 39.994846h-434.003182c-22.0812515 0-39.998409-17.906303-39.998409-39.994846v-235.0103078c0-22.0851645 17.9078977-39.9948462 39.998409-39.9948462zm320.001591 74.5h-.497395l-.000001 86h-48.002604l74 80.5 74.002557-80.994415h-49.979835v-85.505585zm0 0" fill-rule="evenodd"/></svg>