<svg height="95" viewBox="0 0 358 95" width="358" xmlns="http://www.w3.org/2000/svg"><g fill="none" fill-rule="evenodd"><g fill="#33393f"><path d="m0 23.838v-10.471h46.4v10.471h-16.974v46.162h-12.452v-46.162z"/><path d="m58.252 82.215c-2.169 1.428-5.183 2.141-9.042 2.141-1.164 0-2.314-.04-3.45-.12-1.138-.079-2.288-.172-3.45-.277v-9.279c1.057.105 2.141.211 3.252.316 1.11.106 2.22.132 3.331.08 1.479-.158 2.578-.741 3.292-1.745.713-1.005 1.07-2.115 1.07-3.331 0-.898-.159-1.746-.476-2.539l-14.356-38.468h11.977l9.28 28.078h.158l8.963-28.078h11.659l-17.132 46.083c-1.217 3.33-2.909 5.71-5.076 7.139"/><path d="m95.168 28.993v5.235h.159c1.374-2.221 3.119-3.834 5.234-4.838s4.442-1.507 6.981-1.507c3.224 0 6 .608 8.328 1.824 2.326 1.217 4.256 2.83 5.79 4.838 1.533 2.01 2.669 4.35 3.41 7.02.74 2.671 1.111 5.46 1.111 8.368 0 2.75-.371 5.393-1.111 7.931-.741 2.538-1.864 4.786-3.371 6.742s-3.384 3.517-5.631 4.679c-2.248 1.163-4.878 1.746-7.892 1.746-2.538 0-4.878-.515-7.019-1.547-2.142-1.031-3.901-2.55-5.275-4.56h-.159v20.072h-11.263v-56.003zm14.639 32.481c1.242-.74 2.247-1.705 3.014-2.895.766-1.19 1.309-2.577 1.626-4.164.318-1.587.476-3.199.476-4.839 0-1.639-.172-3.252-.515-4.838-.345-1.586-.912-3.001-1.706-4.244-.793-1.241-1.811-2.246-3.054-3.014-1.242-.765-2.763-1.15-4.56-1.15-1.852 0-3.398.385-4.64 1.15-1.243.768-2.248 1.76-3.014 2.975-.767 1.217-1.308 2.617-1.626 4.203-.317 1.586-.476 3.227-.476 4.918 0 1.64.171 3.252.516 4.839.343 1.587.898 2.974 1.665 4.164.766 1.19 1.785 2.155 3.054 2.895 1.269.741 2.802 1.11 4.6 1.11 1.851 0 3.397-.369 4.64-1.11z"/><path d="m144.219 60.164c1.692 1.64 4.125 2.459 7.297 2.459 2.274 0 4.23-.567 5.87-1.705 1.638-1.137 2.643-2.34 3.013-3.609h9.915c-1.587 4.918-4.02 8.435-7.297 10.548-3.279 2.116-7.244 3.174-11.897 3.174-3.226 0-6.135-.515-8.724-1.547-2.592-1.031-4.787-2.498-6.583-4.402-1.798-1.903-3.186-4.177-4.165-6.82-.979-2.645-1.467-5.553-1.467-8.726 0-3.066.502-5.921 1.507-8.565 1.004-2.645 2.432-4.931 4.283-6.862 1.85-1.929 4.057-3.45 6.623-4.56 2.564-1.112 5.405-1.666 8.526-1.666 3.49 0 6.53.674 9.12 2.022 2.591 1.349 4.72 3.161 6.385 5.433 1.666 2.274 2.868 4.866 3.609 7.773.74 2.91 1.004 5.949.793 9.121h-29.584c.159 3.649 1.084 6.293 2.776 7.932zm12.731-21.573c-1.349-1.481-3.399-2.222-6.147-2.222-1.799 0-3.292.305-4.482.912-1.19.61-2.141 1.363-2.855 2.261-.714.899-1.217 1.853-1.506 2.856-.292 1.004-.464 1.903-.517 2.696h18.322c-.529-2.856-1.468-5.022-2.815-6.503z"/><path d="m171.167 36.528v-7.535h6.741v-3.173c0-3.648 1.136-6.635 3.411-8.963 2.273-2.326 5.71-3.49 10.31-3.49 1.004 0 2.01.041 3.014.119 1.004.08 1.983.147 2.935.199v8.407c-1.322-.157-2.696-.238-4.124-.238-1.534 0-2.631.358-3.292 1.072-.662.713-.991 1.917-.991 3.609v2.458h7.773v7.535h-7.773v33.472h-11.263v-33.472z"/><path d="m198.434 40.613c1.003-2.67 2.431-4.944 4.282-6.822 1.85-1.875 4.071-3.33 6.663-4.361 2.59-1.032 5.498-1.547 8.724-1.547 3.224 0 6.148.515 8.766 1.547 2.618 1.031 4.853 2.486 6.702 4.361 1.852 1.878 3.28 4.152 4.284 6.822 1.003 2.67 1.507 5.645 1.507 8.923 0 3.279-.504 6.24-1.507 8.884-1.004 2.645-2.432 4.904-4.284 6.781-1.849 1.877-4.084 3.319-6.702 4.322-2.618 1.004-5.542 1.508-8.766 1.508-3.226 0-6.134-.504-8.724-1.508-2.592-1.003-4.813-2.445-6.663-4.322-1.851-1.877-3.279-4.136-4.282-6.781-1.006-2.644-1.508-5.605-1.508-8.884 0-3.278.502-6.253 1.508-8.923zm10.231 13.721c.317 1.56.859 2.963 1.627 4.204.765 1.243 1.784 2.235 3.053 2.975 1.268.741 2.855 1.11 4.758 1.11 1.904 0 3.503-.369 4.798-1.11 1.295-.74 2.327-1.732 3.094-2.975.767-1.241 1.31-2.644 1.629-4.204.316-1.559.475-3.158.475-4.798 0-1.638-.159-3.253-.475-4.839-.319-1.586-.862-2.986-1.629-4.203-.767-1.215-1.799-2.207-3.094-2.975-1.295-.765-2.894-1.15-4.798-1.15-1.903 0-3.49.385-4.758 1.15-1.269.768-2.288 1.76-3.053 2.975-.768 1.217-1.31 2.617-1.627 4.203s-.476 3.201-.476 4.839c0 1.64.159 3.239.476 4.798z"/><path d="m254.135 28.993v7.614h.158c.527-1.269 1.242-2.445 2.141-3.529.898-1.084 1.929-2.01 3.093-2.775 1.164-.767 2.407-1.362 3.729-1.785 1.32-.423 2.695-.635 4.123-.635.742 0 1.561.133 2.461.396v10.47c-.53-.105-1.166-.198-1.905-.277-.742-.079-1.454-.12-2.142-.12-2.063 0-3.807.345-5.234 1.032-1.428.688-2.579 1.626-3.45 2.815-.873 1.19-1.496 2.578-1.865 4.164s-.554 3.305-.554 5.157v18.48h-11.262v-41.007z"/><path d="m284.468 28.993v5.552h.158c1.48-2.113 3.266-3.754 5.355-4.918 2.088-1.161 4.481-1.744 7.178-1.744 2.59 0 4.957.503 7.098 1.507s3.767 2.776 4.879 5.314c1.215-1.798 2.867-3.384 4.957-4.759 2.088-1.375 4.56-2.062 7.416-2.062 2.168 0 4.176.265 6.027.793 1.852.529 3.438 1.376 4.76 2.538 1.32 1.164 2.351 2.684 3.094 4.56.738 1.878 1.109 4.139 1.109 6.783v27.443h-11.264v-23.24c0-1.375-.052-2.67-.158-3.887-.105-1.215-.396-2.272-.873-3.172-.475-.898-1.176-1.612-2.1-2.142-.927-.528-2.181-.793-3.767-.793-1.588 0-2.869.305-3.848.912-.98.609-1.746 1.402-2.3 2.38-.555.979-.926 2.089-1.11 3.331-.187 1.244-.277 2.498-.277 3.767v22.844h-11.264v-23.002c0-1.217-.027-2.419-.08-3.609s-.277-2.287-.674-3.291c-.396-1.004-1.058-1.811-1.982-2.42-.926-.607-2.289-.912-4.086-.912-.53 0-1.229.119-2.102.357s-1.718.687-2.537 1.349c-.82.661-1.521 1.613-2.103 2.854-.582 1.244-.871 2.869-.871 4.879v23.795h-11.264v-41.007z"/></g><path d="m348 0h10v95h-10z" fill="#89c6be"/></g></svg>