<svg height="512" viewBox="0 0 512 512" width="512" xmlns="http://www.w3.org/2000/svg" xmlns:xlink="http://www.w3.org/1999/xlink"><defs><path id="a" d="m12.4473376 285.155183 212.6359294 212.463101c16.537895 16.524453 43.366106 16.509479 59.889015 0l212.63593-212.463101c16.537895-16.524453 16.522908-43.330859 0-59.840338l-212.63593-212.463101c-16.537895-16.52445301-43.366106-16.50947906-59.889015 0l-212.6359294 212.463101c-16.53789487 16.524453-16.52290873 43.330859 0 59.840338z"/><linearGradient id="b" x1="50%" x2="50%" y1="100%" y2="0%"><stop offset="0" stop-color="#fff"/><stop offset="1" stop-color="#cfffae"/></linearGradient><path id="c" d="m28.1226596 283.248658 198.9165904 198.754913c15.470865 15.45829 40.568111 15.444282 56.024957 0l198.91659-198.754913c15.470865-15.45829 15.456845-40.535138 0-55.97942l-198.91659-198.7549128c-15.470865-15.4582899-40.568112-15.4442821-56.024957 0l-198.9165904 198.7549128c-15.4708645 15.45829-15.4568453 40.535138 0 55.97942z"/><linearGradient id="d" x1="50%" x2="50%" y1="100%" y2="0%"><stop offset="0" stop-color="#b4e075"/><stop offset="1" stop-color="#67b300"/></linearGradient><path id="e" d="m43.5719023 281.24504 185.3951207 185.244433c14.419223 14.407503 37.81047 14.394448 52.216627 0l185.395121-185.244433c14.419224-14.407504 14.406157-37.779739 0-52.174187l-185.395121-185.2444328c-14.419223-14.4075037-37.81047-14.3944481-52.216627 0l-185.3951207 185.2444328c-14.4192236 14.407504-14.4061573 37.779739 0 52.174187z"/><linearGradient id="f" x1="50%" x2="50%" y1="0%" y2="100%"><stop offset="0" stop-color="#f1f1f1"/><stop offset="1" stop-color="#c1c1c1"/></linearGradient></defs><g fill="none" fill-rule="evenodd" transform="translate(1)"><use fill="#000" fill-rule="evenodd" xlink:href="#a"/><use fill="none" xlink:href="#a"/><use fill="url(#b)" fill-rule="evenodd" xlink:href="#c"/><use fill="none" xlink:href="#c"/><use fill="url(#d)" fill-rule="evenodd" xlink:href="#e"/><use fill="none" xlink:href="#e"/><path d="m188.714382 36.009939s38.08459-1.5938187 38.084592 41.8339231c0 43.4277419-38.084592 42.9205189-38.084592 42.9205189v151.153494l152.30434-154.413281s-29.804132-2.122256-29.80413-38.5741365c0-36.4518802 29.80413-42.9205185 29.80413-42.9205185h117.513005s34.314944 3.2597862 34.314946 41.8339231c0 24.2665919-13.98049 37.5151309-13.98049 37.5151309l-371.006839 371.864579s-12.7895671 14.935796-30.211818 14.935796-27.7667148-6.519572-27.7667141-26.078289v-355.316698s-41.13646534-1.086596-41.13646345-42.9205189c.00000327-41.8339231 35.71256795-41.8339231 41.13646345-41.8339231z" fill="#2d3436"/><path d="m181.714382 30.009939s38.08459-1.5938187 38.084592 41.8339231c0 43.4277419-38.084592 42.9205189-38.084592 42.9205189v151.153494l152.30434-154.413281s-29.804132-2.122256-29.80413-38.5741365c0-36.4518802 29.80413-42.9205185 29.80413-42.9205185h117.513005s34.314944 3.2597862 34.314946 41.8339231c0 24.2665914-13.98049 37.5151309-13.98049 37.5151309l-371.006839 371.864579s-12.7895671 14.935796-30.211818 14.935796-27.7667148-6.519572-27.7667141-26.078289v-355.316698s-41.13646534-1.086596-41.13646345-42.9205189c.00000327-41.8339231 35.71256795-41.8339231 41.13646345-41.8339231z" fill="#000"/><path d="m179.714382 28.009939s38.08459-1.5938187 38.084592 41.8339231c0 43.4277419-38.084592 42.9205189-38.084592 42.9205189v151.153494l152.30434-154.413281s-29.804132-2.122256-29.80413-38.5741365c0-36.4518802 29.80413-42.9205185 29.80413-42.9205185h117.513005s34.314944 3.2597862 34.314946 41.8339231c0 24.2665914-13.98049 37.5151309-13.98049 37.5151309l-371.0068391 371.864579s-12.789567 14.935796-30.2118179 14.935796-27.7667148-6.519572-27.7667141-26.078289v-355.316698s-41.13646534-1.086596-41.13646345-42.9205189c.00000327-41.8339231 35.71256795-41.8339231 41.13646345-41.8339231z" fill="#555753"/><path d="m194.390675 41.4064216c8.615076 4.5513369 13.713486 13.0585218 13.713486 28.3604206 0 15.3672277-5.17201 24.1447862-13.907232 29.0088208-3.051907 1.699394-6.401388 2.814618-9.776212 3.430725-1.198296.21876-2.30694.356753-3.288157.429921-6.554252-.022304-11.112991 4.476124-11.112991 10.051051v151.153494c0 8.942239 10.840027 13.388726 17.11952 7.022283l152.304339-154.413281c5.995579-6.078599 2.107122-16.390602-6.409249-16.9970259-1.088561-.1694954-1.862412-.3338052-2.715169-.5683545-2.485716-.6836915-4.975579-1.7745531-7.258654-3.3332785-6.576493-4.4899734-10.540578-12.0446425-10.540577-24.6977595 0-12.9168344 4.222748-21.580267 11.282202-27.4294646 2.457576-2.0362551 5.109991-3.5851396 7.744249-4.6938451.896502-.3773197 1.709564-.6685253 2.409096-.8814622.567695-.1604633 115.881588.0842529 115.881588.0842529.597089.2140838 1.574521.4337151 2.64445.735809 3.093159.8733522 6.186831 2.210537 9.021748 4.0732379 7.960463 5.2304734 12.648747 13.5811369 12.648748 27.0248767 0 8.8448599-2.160391 16.5169788-5.749418 23.0329241-1.234542 2.2413344-2.542665 4.1621404-3.823154 5.7460239-.421898.5218609-.799117.95488-1.118376 1.2970058-.235864.24492-371.3756085 372.240857-371.3756085 372.240857-.7044395.778153-1.2410675 1.349263-2.0854523 2.152891-1.4857867 1.414071-3.2069088 2.840913-5.1130698 4.165058-5.1789513 3.597641-10.6075599 5.680746-15.9340682 5.680746-13.5770585 0-17.7667146-3.583564-17.7667141-16.078289v-355.316699c0-5.419996-4.3178413-9.853397-9.735948-9.996513-2.147866-.192335-3.4033544-.372818-4.7691012-.640377-3.9057168-.765157-7.7985285-2.0556275-11.3466049-3.9534643-9.706518-5.1919366-15.2848101-13.8485899-15.2848094-28.3301635.0000012-15.8606099 5.5230645-24.343712 15.0601269-28.6919118 3.0029359-1.3691182 6.3024084-2.255129 9.7324842-2.7318166 2.3480456-.3263148 4.1006517-.4101952 6.3438524-.4101952h2.3741885 4.8911027 15.8947115 46.1717902 34.572973 24.977925 7.310825 2.640054c1.344591-.0276831 3.004141.0706832 5.06255.4122393 3.231744.5362502 6.413394 1.5317523 9.308556 3.0612637z" fill="#fff"/><path d="m189.719484 50.2483658c5.589467 2.9529099 8.384677 8.4309709 8.384677 19.5184769 0 11.2203203-2.926985 17.0172048-8.772168 20.271979-1.955297 1.088768-4.238122 1.8794013-6.707191 2.3301536-.804489.1468673-1.563105.244854-2.235865.2950209-11.017506-.0677682-20.369368 8.6144088-20.369368 20.0233638v151.153494c0 17.884477 21.680054 26.777452 34.239039 14.044565l152.304339-154.41328c11.991158-12.157198 4.214244-32.7812059-12.818499-33.9940528-2.327317-.6629363-3.782623-1.3233934-5.04558-2.1856532-4.039226-2.7577033-6.17909-7.5158843-6.179089-16.4389949 0-9.4698866 2.608341-15.5416627 7.662339-19.7292148 1.595108-1.3216468 3.377443-2.391859 5.243327-3.1771715.545272-.2294936 1.03811-.4088566 1.441945-.5317833-1.525295.4332181.148056.3726522-2.350301.4179119 1.742991-.017007 2.975327-.0225701 4.583946-.0269376 3.068182-.0083302 7.479611-.0122672 13.119453-.0121105 9.939545.0002761 23.45759.0131729 39.660386.036172 6.757626.0095921 13.85202.0207653 21.171654.0332045 8.931646.0151786 17.738803.0314416 26.037588.0477045 2.904554.005692 5.538076.0109774 7.852585.0157206 1.284937.0026426 1.284937.0026426 2.130918.0044042.614506.0012873-2.61178-.585191-2.61178-.585191.619369.2220722 1.141801.3726107 1.969276.5908959.959825.2522336 1.154119.3049275 1.332988.355431 2.269536.6408025 4.397145 1.5909357 6.247735 2.8068777 5.454552 3.5839487 8.140021 9.0635445 8.140022 18.667491 0 6.7992332-1.560049 12.855179-4.508591 18.2083109-.901146 1.6360467-1.868412 3.0812752-2.840515 4.2837039-.576501.6801864-86.207527 86.5117005-186.105653 186.6414305-40.622397 40.716576-84.14298 84.337858-127.663564 127.959007-15.232205 15.267403-29.376395 29.44426-42.069899 42.167067-7.0720943 7.08842-7.0720943 7.08842-11.7868237 11.81403l-4.1707207 4.180344c-.9873815 1.073162-1.3320961 1.431276-1.9003298 1.972082-1.1888294 1.131448-2.5189139 2.219755-3.9241672 3.195936-3.7776747 2.624222-7.2704238 3.893594-10.2288834 3.893594-2.8100727 0-4.862254-.17764-6.2554929-.499124-1.3317408-1.589867-1.5112213-3.235808-1.5112212-5.579165v-355.316699c0-10.839993-8.6356826-19.7067939-19.471896-19.9930261-1.0905757-.117513-2.0282296-.24527-3.11063-.4573197-3.1288016-.6129536-6.0443181-1.6161926-8.5525505-2.9578254-6.8589842-3.6688142-10.0013875-9.2397738-10.001387-19.5123461.0000009-11.4248514 2.9401762-16.7350611 9.2085682-19.5929874 1.9987214-.9112701 4.3436829-1.5622595 6.9605431-1.9259322 1.7143673-.2382506 2.9721389-.3150045 4.9673522-.3150045h2.3741885 1.8662087 3.024894 6.1631891 2.964365 6.7671574 20.2160375 25.9557527 16.487353 1.872096 16.213524 14.752417 10.225508 4.643814 2.667011 2.416486c1.286828-.0197717 2.341225.0603195 3.649179.2773511 2.325667.3859028 4.457662 1.0783658 6.274304 2.0380961z" fill="url(#f)"/></g></svg>