<?xml version="1.0" standalone="no"?>
<!DOCTYPE svg PUBLIC "-//W3C//DTD SVG 20010904//EN"
 "http://www.w3.org/TR/2001/REC-SVG-20010904/DTD/svg10.dtd">
<svg version="1.0" xmlns="http://www.w3.org/2000/svg"
 width="1000.000000pt" height="1000.000000pt" viewBox="0 0 1000.000000 1000.000000"
 preserveAspectRatio="xMidYMid meet">
<metadata>
Created by potrace 1.14, written by Peter Selinger 2001-2017
</metadata>
<g transform="translate(0.000000,1000.000000) scale(0.100000,-0.100000)"
fill="#000000" stroke="none">
<path d="M822 7420 c-182 -231 -363 -544 -472 -815 -78 -196 -94 -245 -156
-466 -22 -80 -57 -234 -68 -303 -3 -16 -10 -52 -15 -80 -6 -28 -13 -73 -16
-101 -3 -27 -8 -63 -11 -80 -35 -239 -41 -822 -9 -1059 2 -17 7 -53 10 -81 4
-27 9 -66 11 -85 4 -30 12 -78 31 -180 2 -14 9 -45 14 -70 6 -25 13 -56 15
-70 7 -33 33 -137 45 -175 5 -16 20 -66 33 -110 133 -437 320 -783 634 -1174
11 -13 43 -16 232 -16 121 0 220 1 220 3 0 2 -29 45 -64 95 -271 391 -481 863
-601 1347 -31 126 -63 283 -70 345 -4 28 -8 57 -10 65 -2 8 -7 40 -10 70 -3
30 -8 66 -10 80 -12 77 -19 221 -19 425 -1 256 7 412 30 570 3 22 8 58 10 80
2 22 11 76 19 120 8 44 16 91 19 105 2 14 14 66 25 115 12 50 24 101 27 115
17 82 124 414 159 495 7 17 29 71 50 120 81 198 256 509 392 701 27 38 52 74
55 79 4 7 -68 10 -217 10 l-224 0 -59 -75z"/>
<path d="M8704 7484 c2 -6 38 -60 79 -120 211 -308 362 -611 481 -966 76 -227
144 -501 172 -698 4 -30 8 -57 9 -60 1 -3 5 -36 9 -75 5 -38 10 -79 12 -89 26
-144 26 -765 -1 -936 -4 -24 -8 -58 -21 -152 -9 -77 -35 -211 -61 -318 -13
-58 -26 -113 -28 -122 -11 -52 -54 -191 -97 -318 -125 -362 -304 -713 -510
-1002 -26 -38 -47 -69 -45 -69 1 -1 100 -2 220 -3 l218 -1 80 100 c272 344
464 727 598 1190 20 70 75 309 86 375 3 19 8 42 10 50 2 8 6 38 10 65 7 67 16
135 20 162 28 180 27 781 0 1008 -2 17 -7 57 -11 90 -3 33 -8 69 -10 80 -2 11
-6 38 -9 60 -3 22 -7 47 -10 55 -2 8 -6 31 -9 50 -9 60 -54 250 -85 360 -127
446 -303 806 -577 1175 -28 39 -62 81 -74 95 l-21 25 -220 0 c-155 0 -218 -3
-215 -11z"/>
<path d="M2140 4106 c-87 -28 -144 -77 -179 -151 -32 -68 -40 -121 -37 -230 6
-159 42 -242 133 -299 56 -36 95 -47 176 -51 257 -13 399 198 337 501 -11 54
-56 133 -93 166 -52 45 -127 71 -216 73 -47 2 -102 -3 -121 -9z"/>
<path d="M6183 4106 c-143 -47 -214 -164 -215 -352 -1 -188 47 -286 170 -346
61 -30 75 -33 157 -33 75 1 99 5 145 26 118 55 178 153 187 306 12 186 -48
318 -172 378 -66 33 -205 43 -272 21z"/>
<path d="M3012 2939 c-15 -6 -17 -26 -17 -180 l0 -174 1280 -3 1280 -2 0 181
0 181 -1263 2 c-695 0 -1271 -2 -1280 -5z"/>
</g>
</svg>
