<?xml version="1.0" encoding="UTF-8" standalone="no"?>
<svg width="248px" height="248px" viewBox="0 0 248 248" version="1.1" xmlns="http://www.w3.org/2000/svg" xmlns:xlink="http://www.w3.org/1999/xlink" xmlns:sketch="http://www.bohemiancoding.com/sketch/ns">
    <title>docracy</title>
    <description>Created with Sketch (http://www.bohemiancoding.com/sketch)</description>
    <defs></defs>
    <g id="Page-1" stroke="none" stroke-width="1" fill="none" fill-rule="evenodd" sketch:type="MSPage">
        <circle d="M124,248 C192.483312,248 248,192.483312 248,124 C248,55.5166876 192.483312,0 124,0 C55.5166876,0 0,55.5166876 0,124 C0,192.483312 55.5166876,248 124,248 Z M124,248" id="Oval-1" fill="#4EBBE9" sketch:type="MSShapeGroup" cx="124" cy="124" r="124"></circle>
        <rect d="M149.75,32 L75,32 L75,174 L171,174 L171,52.4990234 L149.75,32 Z M149.75,32" id="Rectangle-1" stroke="#FFFFFF" stroke-width="14" sketch:type="MSShapeGroup" x="75" y="32" width="96" height="142"></rect>
        <path d="M108,196.824872 C110.605377,196.824872 112.961675,195.801786 115.068966,193.755582 C117.176256,191.709378 118.229885,188.816513 118.229885,185.076899 L118.229885,166.237807 C118.229885,163.768251 118.574709,161.686799 119.264368,159.993389 C119.954026,158.299979 120.873557,156.941743 122.022989,155.918641 C123.17242,154.895539 124.494245,154.154684 125.988506,153.696052 C127.482766,153.23742 129.034475,153.008107 130.643678,153.008107 L138,153.008107 L138,159.358363 L131.563218,159.358363 C130.183901,159.358363 129.091958,159.622954 128.287356,160.152145 C127.482755,160.681336 126.908048,161.369273 126.563218,162.215978 C126.218389,163.062683 126.007663,164.015212 125.931034,165.073593 C125.854406,166.131975 125.816092,167.155061 125.816092,168.142884 L125.816092,186.34695 C125.816092,188.887065 125.413797,191.021435 124.609195,192.750125 C123.804594,194.478814 122.846749,195.854689 121.735632,196.877791 C120.624516,197.900893 119.494259,198.641749 118.344828,199.10038 C117.195397,199.559012 116.275866,199.823604 115.586207,199.894162 L115.586207,200.105838 C116.275866,200.176396 117.195397,200.440988 118.344828,200.89962 C119.494259,201.358251 120.624516,202.099107 121.735632,203.122209 C122.846749,204.145311 123.804594,205.521186 124.609195,207.249875 C125.413797,208.978565 125.816092,211.112935 125.816092,213.65305 L125.816092,231.857116 C125.816092,232.844939 125.854406,233.868025 125.931034,234.926407 C126.007663,235.984788 126.218389,236.937317 126.563218,237.784022 C126.908048,238.630727 127.482755,239.318664 128.287356,239.847855 C129.091958,240.377046 130.183901,240.641637 131.563218,240.641637 L138,240.641637 L138,246.991893 L130.643678,246.991893 C129.034475,246.991893 127.482766,246.76258 125.988506,246.303948 C124.494245,245.845316 123.17242,245.104461 122.022989,244.081359 C120.873557,243.058257 119.954026,241.700021 119.264368,240.006611 C118.574709,238.313201 118.229885,236.231749 118.229885,233.762193 L118.229885,214.923101 C118.229885,211.183487 117.176256,208.290622 115.068966,206.244418 C112.961675,204.198214 110.605377,203.175128 108,203.175128 L108,203.175128 L108,196.824872 L108,196.824872 Z M108,196.824872" id="{" fill="#FFFFFF" sketch:type="MSShapeGroup" transform="translate(123.000000, 200.000000) rotate(-270.000000) translate(-123.000000, -200.000000) "></path>
    </g>
</svg>