<?xml version="1.0" encoding="utf-8"?>
<!-- Generator: Adobe Illustrator 15.1.0, SVG Export Plug-In . SVG Version: 6.00 Build 0)  -->
<!DOCTYPE svg PUBLIC "-//W3C//DTD SVG 1.1//EN" "http://www.w3.org/Graphics/SVG/1.1/DTD/svg11.dtd">
<svg version="1.1" id="Layer_1" xmlns="http://www.w3.org/2000/svg" xmlns:xlink="http://www.w3.org/1999/xlink" x="0px" y="0px"
	 width="802px" height="197.363px" viewBox="-230.5 33.637 802 197.363" enable-background="new -230.5 33.637 802 197.363"
	 xml:space="preserve">
<g>
	<g>
		<g>
			<polygon fill="#4D4D4D" points="-123.834,104.282 -123.835,104.285 -123.834,104.285 			"/>
			<g>
				<polygon fill="#333333" points="-162.761,88.722 -162.763,88.722 -162.761,88.724 				"/>
				<g>
					<polygon fill="#67B240" points="-145.462,150.971 -149.787,156.159 -149.788,156.159 -154.112,161.347 -158.438,166.534 
						-158.438,166.534 -162.734,171.687 -157.445,167.725 -155.856,166.534 -154.112,165.227 -152.121,163.735 -148.933,161.347 
						-146.796,159.745 -145.462,158.745 -142.008,156.159 -141.472,155.757 -139.684,154.416 -136.811,152.265 -135.085,150.971 
						-135.085,150.971 -130.824,147.778 -128.161,145.783 -128.161,140.597 -128.161,140.596 -128.161,135.409 -128.161,130.222 
						-132.486,135.409 -132.486,135.409 -136.811,140.596 -136.811,140.597 -141.136,145.783 -141.137,145.783 					"/>
				</g>
				<polygon points="-162.77,171.713 -162.763,171.72 -162.763,171.708 				"/>
				<polygon points="-162.77,171.713 -162.78,171.72 -162.763,171.72 				"/>
				<polygon points="-162.763,171.708 -162.763,171.72 -162.734,171.687 				"/>
				<g>
					<polygon fill="#009643" points="-162.763,135.409 -162.763,140.596 -158.438,135.409 -158.438,135.409 -154.112,130.222 
						-154.112,130.221 -151.962,127.642 -152.686,125.034 -154.112,119.894 -154.122,119.857 -154.112,119.847 -154.125,119.847 
						-154.125,119.846 -154.112,119.846 -154.132,119.822 -155.564,114.659 -156.282,112.074 -157.004,109.472 -157.004,109.471 
						-158.442,104.289 -158.438,104.285 -158.446,104.273 -159.883,99.096 -160.601,96.505 -161.323,93.909 -162.761,88.724 
						-162.763,88.722 -162.763,93.909 -162.763,99.096 -162.763,104.285 -162.763,109.471 -162.763,109.472 -162.763,114.659 
						-162.763,119.846 -162.763,119.847 -162.763,125.034 -162.763,130.221 -162.763,134.755 					"/>
				</g>
				<polygon fill="#85C441" points="-128.984,100.083 -132.485,104.285 -132.486,104.285 -132.486,104.285 -132.486,104.285 
					-136.809,109.471 -136.809,109.472 -136.811,109.472 -136.811,109.475 -141.133,114.659 -141.136,114.659 -141.137,114.659 
					-141.135,114.662 -145.456,119.846 -145.456,119.847 -145.462,119.847 -145.462,119.854 -149.78,125.034 -149.787,125.034 
					-149.788,125.034 -149.784,125.039 -151.96,127.649 -151.962,127.642 -154.112,130.222 -158.438,135.409 -158.438,135.409 
					-162.763,140.596 -162.763,135.409 -162.763,130.222 -162.763,125.034 -162.763,119.847 -162.763,119.846 -162.763,114.659 
					-162.763,109.472 -162.763,109.471 -162.763,104.285 -162.763,99.096 -162.763,93.909 -162.763,88.722 -167.088,93.909 
					-167.088,93.909 -171.413,99.096 -175.738,104.285 -175.739,104.285 -180.064,109.471 -180.064,109.472 -180.064,114.659 
					-180.064,119.846 -180.064,119.847 -180.064,125.034 -180.064,130.222 -180.064,135.409 -180.064,140.596 -180.064,140.597 
					-180.064,145.783 -180.064,150.971 -180.064,150.971 -180.064,156.159 -180.064,161.347 -180.064,166.534 -180.064,171.72 
					-171.413,171.72 -162.78,171.72 -162.77,171.713 -162.763,171.708 -162.734,171.687 -158.438,166.534 -158.438,166.534 
					-154.112,161.347 -149.788,156.159 -149.787,156.159 -145.462,150.971 -145.462,150.971 -141.137,145.783 -141.136,145.783 
					-136.811,140.597 -136.811,140.596 -132.486,135.409 -132.486,135.409 -128.161,130.222 -128.161,109.471 -128.161,104.285 
					-128.161,99.096 				"/>
			</g>
			<g>
				<polygon fill="#333333" points="-93.556,88.722 -93.555,88.722 -93.557,88.724 				"/>
				<g>
					<polygon fill="#479D3C" points="-110.855,150.971 -106.53,156.159 -106.53,156.159 -102.205,161.347 -97.88,166.534 
						-97.879,166.534 -93.583,171.687 -98.872,167.725 -100.461,166.534 -102.205,165.227 -104.197,163.735 -107.384,161.347 
						-109.521,159.745 -110.855,158.745 -114.309,156.159 -114.845,155.757 -116.633,154.416 -119.507,152.265 -121.232,150.971 
						-121.232,150.971 -125.494,147.778 -128.156,145.783 -128.156,140.597 -128.156,140.596 -128.156,135.409 -128.156,130.222 
						-123.831,135.409 -123.831,135.409 -119.507,140.596 -119.507,140.597 -115.181,145.783 -115.18,145.783 					"/>
				</g>
				<polygon points="-93.548,171.713 -93.555,171.72 -93.555,171.708 				"/>
				<polygon points="-93.548,171.713 -93.538,171.72 -93.555,171.72 				"/>
				<polygon points="-93.555,171.708 -93.555,171.72 -93.583,171.687 				"/>
				<g>
					<polygon fill="#00652E" points="-93.555,135.409 -93.555,140.596 -97.879,135.409 -97.88,135.409 -102.205,130.222 
						-102.205,130.221 -104.355,127.642 -103.632,125.034 -102.205,119.894 -102.195,119.857 -102.205,119.847 -102.193,119.847 
						-102.193,119.846 -102.205,119.846 -102.185,119.822 -100.753,114.659 -100.035,112.074 -99.313,109.472 -99.313,109.471 
						-97.875,104.289 -97.879,104.285 -97.872,104.273 -96.434,99.096 -95.715,96.505 -94.995,93.909 -93.557,88.724 
						-93.555,88.722 -93.555,93.909 -93.555,99.096 -93.555,104.285 -93.555,109.471 -93.555,109.472 -93.555,114.659 
						-93.555,119.846 -93.555,119.847 -93.555,125.034 -93.555,130.221 -93.555,134.755 					"/>
				</g>
				<polygon fill="#B5D334" points="-127.333,100.083 -123.832,104.285 -123.831,104.285 -123.831,104.285 -123.831,104.285 
					-119.508,109.471 -119.508,109.472 -119.507,109.472 -119.507,109.475 -115.185,114.659 -115.181,114.659 -115.18,114.659 
					-115.183,114.662 -110.862,119.846 -110.862,119.847 -110.855,119.847 -110.855,119.854 -106.538,125.034 -106.53,125.034 
					-106.53,125.034 -106.534,125.039 -104.357,127.649 -104.355,127.642 -102.205,130.222 -97.88,135.409 -97.879,135.409 
					-93.555,140.596 -93.555,135.409 -93.555,130.222 -93.555,125.034 -93.555,119.847 -93.555,119.846 -93.555,114.659 
					-93.555,109.472 -93.555,109.471 -93.555,104.285 -93.555,99.096 -93.555,93.909 -93.555,88.722 -89.229,93.909 -89.229,93.909 
					-84.904,99.096 -80.58,104.285 -80.578,104.285 -76.253,109.471 -76.253,109.472 -76.253,114.659 -76.253,119.846 
					-76.253,119.847 -76.253,125.034 -76.253,130.222 -76.253,135.409 -76.253,140.596 -76.253,140.597 -76.253,145.783 
					-76.253,150.971 -76.253,150.971 -76.253,156.159 -76.253,161.347 -76.253,166.534 -76.253,171.72 -84.904,171.72 
					-93.538,171.72 -93.548,171.713 -93.555,171.708 -93.583,171.687 -97.879,166.534 -97.88,166.534 -102.205,161.347 
					-106.53,156.159 -106.53,156.159 -110.855,150.971 -110.855,150.971 -115.18,145.783 -115.181,145.783 -119.507,140.597 
					-119.507,140.596 -123.831,135.409 -123.831,135.409 -128.156,130.222 -128.156,109.471 -128.156,104.285 -128.156,99.096 				
					"/>
			</g>
		</g>
		<g>
			<polygon fill="#9FCC3B" points="-167.088,93.909 -167.088,93.909 -162.763,99.096 -162.763,93.909 			"/>
			<polygon fill="#9FCC3B" points="-162.763,88.722 -167.088,93.909 -162.763,93.909 			"/>
			<polygon fill="#82C341" points="-171.413,99.096 -162.763,99.096 -167.088,93.909 			"/>
			<polygon fill="#333333" points="-162.761,88.722 -162.763,88.722 -162.761,88.724 			"/>
			<polygon fill="#099E43" points="-161.323,93.909 -162.763,93.909 -162.763,99.096 -160.601,96.505 			"/>
			<polygon fill="#099E43" points="-161.323,93.909 -162.761,88.724 -162.763,88.722 -162.763,93.909 			"/>
			<polygon fill="#099E43" points="-162.763,99.096 -159.883,99.096 -160.601,96.505 			"/>
			<polygon fill="#9FCC3B" points="-175.738,104.285 -175.739,104.285 -171.413,109.471 -171.413,104.285 			"/>
			<polygon fill="#82C341" points="-171.413,99.096 -175.738,104.285 -171.413,104.285 			"/>
			<polygon fill="#82C341" points="-180.064,109.471 -171.413,109.471 -175.739,104.285 			"/>
			<polygon fill="#82C341" points="-167.088,104.285 -162.763,99.096 -171.413,99.096 			"/>
			<polygon fill="#82C341" points="-167.088,104.285 -167.088,104.285 -162.763,109.471 -162.763,104.285 			"/>
			<polygon fill="#82C341" points="-162.763,104.285 -162.763,99.096 -167.088,104.285 			"/>
			<polygon fill="#82C341" points="-171.413,104.285 -171.413,109.471 -167.088,104.285 			"/>
			<polygon fill="#82C341" points="-167.088,104.285 -171.413,99.096 -171.413,104.285 			"/>
			<polygon fill="#82C341" points="-171.413,109.471 -162.763,109.471 -167.088,104.285 			"/>
			<polygon fill="#099E43" points="-159.883,99.096 -162.763,99.096 -158.446,104.273 			"/>
			<polygon fill="#009643" points="-158.444,104.285 -162.763,104.285 -162.763,109.471 -158.442,104.289 			"/>
			<polygon fill="#099E43" points="-158.444,104.285 -158.446,104.273 -162.763,99.096 -162.763,104.285 			"/>
			<polygon fill="#009643" points="-162.763,109.471 -157.004,109.471 -158.442,104.289 			"/>
			<polygon fill="#85C441" points="-128.161,109.471 -128.161,104.285 -132.485,104.285 -132.486,104.285 			"/>
			<polygon fill="#85C441" points="-132.485,104.285 -128.161,104.285 -128.161,99.096 -128.984,100.083 			"/>
			<polygon fill="#9ACA3C" points="-132.486,104.285 -136.809,109.471 -128.161,109.471 			"/>
			<polygon fill="#92C841" points="-167.088,114.659 -162.763,109.472 -171.413,109.472 			"/>
			<polygon fill="#92C841" points="-167.088,114.659 -167.088,114.659 -162.763,119.846 -162.763,114.659 			"/>
			<polygon fill="#92C841" points="-162.763,114.659 -162.763,109.472 -167.088,114.659 			"/>
			<polygon fill="#65BC46" points="-171.413,114.659 -171.413,119.846 -167.088,114.659 			"/>
			<polygon fill="#92C841" points="-171.413,119.846 -162.763,119.846 -167.088,114.659 			"/>
			<polygon fill="#009643" points="-158.438,114.659 -156.282,112.074 -157.004,109.472 -162.763,109.472 			"/>
			<polygon fill="#099E43" points="-158.438,114.659 -158.438,114.659 -154.132,119.822 -155.564,114.659 			"/>
			<polygon fill="#099E43" points="-156.282,112.074 -158.438,114.659 -155.564,114.659 			"/>
			<polygon fill="#009643" points="-162.763,114.659 -162.763,119.846 -158.438,114.659 			"/>
			<polygon fill="#009643" points="-158.438,114.659 -162.763,109.472 -162.763,114.659 			"/>
			<polygon fill="#099E43" points="-158.438,114.659 -162.763,119.846 -154.125,119.846 -154.132,119.822 			"/>
			<polygon fill="#92C841" points="-141.133,114.659 -141.135,114.662 -136.811,119.846 -136.811,114.659 			"/>
			<polygon fill="#92C841" points="-136.811,109.475 -141.133,114.659 -136.811,114.659 			"/>
			<polygon fill="#65BC46" points="-141.135,114.662 -145.456,119.846 -136.811,119.846 			"/>
			<polygon fill="#9ACA3C" points="-132.486,114.659 -132.486,114.659 -128.161,109.472 -136.809,109.472 -136.81,109.474 			"/>
			<polygon fill="#9ACA3C" points="-132.486,114.659 -132.486,114.659 -128.161,119.846 -128.161,114.659 			"/>
			<polygon fill="#9ACA3C" points="-128.161,114.659 -128.161,109.472 -132.486,114.659 			"/>
			<polygon fill="#9ACA3C" points="-136.811,114.659 -136.811,119.846 -132.486,114.659 			"/>
			<polygon fill="#9ACA3C" points="-132.486,114.659 -136.81,109.474 -136.811,109.475 -136.811,114.659 			"/>
			<polygon fill="#9ACA3C" points="-136.811,119.846 -128.161,119.846 -132.486,114.659 			"/>
			<polygon fill="#9FCC3B" points="-175.738,125.034 -175.739,125.034 -171.413,130.221 -171.413,125.034 			"/>
			<g>
				<polygon fill="#65BC46" points="-171.413,109.472 -180.064,109.472 -180.064,114.659 -180.064,119.846 -171.413,119.846 
					-171.413,114.659 -167.088,114.659 				"/>
				<polygon fill="#82C341" points="-175.739,125.034 -175.738,125.034 -171.413,125.034 -171.413,119.847 -180.064,119.847 				"/>
			</g>
			<polygon fill="#82C341" points="-180.064,125.034 -180.064,130.221 -175.739,125.034 			"/>
			<polygon fill="#9FCC3B" points="-180.064,119.847 -180.064,125.034 -175.739,125.034 			"/>
			<polygon fill="#82C341" points="-180.064,130.221 -171.413,130.221 -175.739,125.034 			"/>
			<polygon fill="#92C841" points="-167.088,125.034 -162.763,119.847 -171.413,119.847 			"/>
			<polygon fill="#77C046" points="-167.088,125.034 -167.088,125.034 -162.763,130.221 -162.763,125.034 			"/>
			<polygon fill="#77C046" points="-162.763,125.034 -162.763,119.847 -167.088,125.034 			"/>
			<polygon fill="#9FCC3B" points="-171.413,125.034 -171.413,130.221 -167.088,125.034 			"/>
			<polygon fill="#9FCC3B" points="-167.088,125.034 -171.413,119.847 -171.413,125.034 			"/>
			<polygon fill="#92C841" points="-171.413,130.221 -162.763,130.221 -167.088,125.034 			"/>
			<polygon fill="#099E43" points="-158.438,125.034 -154.122,119.857 -154.125,119.847 -162.763,119.847 			"/>
			<polygon fill="#099E43" points="-158.438,125.034 -158.438,125.034 -154.112,130.221 -154.112,125.034 			"/>
			<polygon fill="#009344" points="-154.122,119.857 -158.438,125.034 -154.112,125.034 -154.112,119.894 			"/>
			<polygon fill="#009344" points="-162.763,125.034 -162.763,130.221 -158.438,125.034 			"/>
			<polygon fill="#009344" points="-158.438,125.034 -162.763,119.847 -162.763,125.034 			"/>
			<polygon fill="#009643" points="-162.763,130.221 -154.112,130.221 -158.438,125.034 			"/>
			<polygon fill="#85C441" points="-149.78,125.034 -149.784,125.039 -145.462,130.221 -145.462,125.034 			"/>
			<polygon fill="#85C441" points="-149.78,125.034 -145.462,125.034 -145.462,119.854 			"/>
			<polygon fill="#099E43" points="-152.686,125.034 -154.112,125.034 -154.112,130.221 -151.962,127.642 			"/>
			<polygon fill="#099E43" points="-154.112,125.034 -152.686,125.034 -154.112,119.894 			"/>
			<polygon fill="#9ACA3C" points="-151.96,127.649 -151.962,127.642 -154.112,130.221 -145.462,130.221 -149.784,125.039 			"/>
			<polygon fill="#65BC46" points="-145.456,119.847 -145.459,119.85 -141.137,125.034 -141.136,125.034 -136.811,119.847 			"/>
			<polygon fill="#9FCC3B" points="-141.136,125.034 -141.137,125.034 -136.811,130.221 -136.811,125.034 			"/>
			<polygon fill="#65BC46" points="-141.136,125.034 -136.811,125.034 -136.811,119.847 			"/>
			<polygon fill="#85C441" points="-145.462,125.034 -145.462,130.221 -141.137,125.034 			"/>
			<polygon fill="#65BC46" points="-145.462,119.854 -145.462,125.034 -141.137,125.034 -145.459,119.85 			"/>
			<polygon fill="#85C441" points="-145.462,130.221 -136.811,130.221 -141.137,125.034 			"/>
			<polygon fill="#9ACA3C" points="-136.811,119.847 -132.486,125.034 -132.486,125.034 -128.161,119.847 			"/>
			<polygon fill="#85C441" points="-132.486,125.034 -132.486,125.034 -128.161,130.221 -128.161,125.034 			"/>
			<polygon fill="#85C441" points="-132.486,125.034 -128.161,125.034 -128.161,119.847 			"/>
			<polygon fill="#9ACA3C" points="-136.811,125.034 -136.811,130.221 -132.486,125.034 			"/>
			<polygon fill="#65BC46" points="-136.811,125.034 -132.486,125.034 -136.811,119.847 			"/>
			<polygon fill="#9ACA3C" points="-136.811,130.221 -128.161,130.221 -132.486,125.034 			"/>
			<polygon fill="#82C341" points="-175.738,135.409 -171.413,130.222 -180.064,130.222 -175.739,135.409 			"/>
			<polygon fill="#82C341" points="-175.738,135.409 -175.739,135.409 -171.413,140.596 -171.413,135.409 			"/>
			<polygon fill="#82C341" points="-171.413,135.409 -171.413,130.222 -175.738,135.409 			"/>
			<polygon fill="#65BC46" points="-180.064,135.409 -180.064,140.596 -175.739,135.409 			"/>
			<polygon fill="#65BC46" points="-180.064,130.222 -180.064,135.409 -175.739,135.409 			"/>
			<polygon fill="#65BC46" points="-180.064,140.596 -171.413,140.596 -175.739,135.409 			"/>
			<polygon fill="#92C841" points="-167.088,135.409 -162.763,130.222 -171.413,130.222 			"/>
			<polygon fill="#77C046" points="-167.088,135.409 -167.088,135.409 -162.763,140.596 -162.763,135.409 			"/>
			<polygon fill="#77C046" points="-162.763,135.409 -162.763,130.222 -167.088,135.409 			"/>
			<polygon fill="#82C341" points="-171.413,135.409 -171.413,140.596 -167.088,135.409 			"/>
			<polygon fill="#92C841" points="-167.088,135.409 -171.413,130.222 -171.413,135.409 			"/>
			<polygon fill="#82C341" points="-171.413,140.596 -162.763,140.596 -167.088,135.409 			"/>
			<polygon fill="#009643" points="-158.438,135.409 -154.112,130.222 -162.763,130.222 			"/>
			<polygon fill="#92C841" points="-158.438,135.409 -158.438,135.409 -154.112,140.596 -154.112,135.409 			"/>
			<polygon fill="#92C841" points="-154.112,135.409 -154.112,130.222 -158.438,135.409 			"/>
			<polygon fill="#009643" points="-162.763,135.409 -162.763,140.596 -158.438,135.409 			"/>
			<polygon fill="#009643" points="-158.438,135.409 -162.763,130.222 -162.763,135.409 			"/>
			<polygon fill="#92C841" points="-162.763,140.596 -154.112,140.596 -158.438,135.409 			"/>
			<polygon fill="#9ACA3C" points="-149.787,135.409 -145.462,130.222 -154.112,130.222 -149.788,135.409 			"/>
			<polygon fill="#9ACA3C" points="-149.787,135.409 -149.788,135.409 -145.462,140.596 -145.462,135.409 			"/>
			<polygon fill="#9ACA3C" points="-145.462,135.409 -145.462,130.222 -149.787,135.409 			"/>
			<polygon fill="#92C841" points="-154.112,135.409 -154.112,140.596 -149.788,135.409 			"/>
			<polygon fill="#92C841" points="-149.788,135.409 -154.112,130.222 -154.112,135.409 			"/>
			<polygon fill="#9ACA3C" points="-154.112,140.596 -145.462,140.596 -149.788,135.409 			"/>
			<polygon fill="#9ACA3C" points="-141.136,135.409 -136.811,130.222 -145.462,130.222 -141.137,135.409 			"/>
			<polygon fill="#9ACA3C" points="-141.136,135.409 -141.137,135.409 -136.811,140.596 -136.811,135.409 			"/>
			<polygon fill="#9ACA3C" points="-136.811,135.409 -136.811,130.222 -141.136,135.409 			"/>
			<polygon fill="#9ACA3C" points="-145.462,135.409 -145.462,140.596 -141.137,135.409 			"/>
			<polygon fill="#92C841" points="-141.137,135.409 -145.462,130.222 -145.462,135.409 			"/>
			<polygon fill="#92C841" points="-145.462,140.596 -136.811,140.596 -141.137,135.409 			"/>
			<polygon fill="#9ACA3C" points="-132.486,135.409 -128.161,130.222 -136.811,130.222 -132.486,135.409 			"/>
			<polygon fill="#9ACA3C" points="-136.811,135.409 -136.811,140.596 -132.486,135.409 			"/>
			<polygon fill="#9ACA3C" points="-132.486,135.409 -136.811,130.222 -136.811,135.409 			"/>
			<polygon fill="#65BC46" points="-175.738,145.783 -171.413,140.597 -180.064,140.597 -175.739,145.783 			"/>
			<polygon fill="#65BC46" points="-171.413,145.783 -171.413,140.597 -175.738,145.783 			"/>
			<polygon fill="#82C341" points="-167.088,145.783 -162.763,140.597 -171.413,140.597 			"/>
			<polygon fill="#82C341" points="-167.088,145.783 -167.088,145.783 -162.763,150.971 -162.763,145.783 			"/>
			<polygon fill="#82C341" points="-162.763,145.783 -162.763,140.597 -167.088,145.783 			"/>
			<polygon fill="#82C341" points="-167.088,145.783 -171.413,140.597 -171.413,145.783 			"/>
			<polygon fill="#82C341" points="-171.413,150.971 -162.763,150.971 -167.088,145.783 			"/>
			<polygon fill="#9ACA3C" points="-158.438,145.783 -154.112,140.597 -162.763,140.597 			"/>
			<polygon fill="#85C441" points="-158.438,145.783 -158.438,145.783 -154.112,150.971 -154.112,145.783 			"/>
			<polygon fill="#85C441" points="-154.112,145.783 -154.112,140.597 -158.438,145.783 			"/>
			<polygon fill="#85C441" points="-162.763,145.783 -162.763,150.971 -158.438,145.783 			"/>
			<polygon fill="#85C441" points="-158.438,145.783 -162.763,140.597 -162.763,145.783 			"/>
			<polygon fill="#85C441" points="-162.763,150.971 -154.112,150.971 -158.438,145.783 			"/>
			<polygon fill="#92C841" points="-149.787,145.783 -145.462,140.597 -154.112,140.597 -149.788,145.783 			"/>
			<polygon fill="#9FCC3B" points="-149.787,145.783 -149.788,145.783 -145.462,150.971 -145.462,145.783 			"/>
			<polygon fill="#9FCC3B" points="-145.462,145.783 -145.462,140.597 -149.787,145.783 			"/>
			<polygon fill="#92C841" points="-154.112,145.783 -154.112,150.971 -149.788,145.783 			"/>
			<polygon fill="#92C841" points="-149.788,145.783 -154.112,140.597 -154.112,145.783 			"/>
			<polygon fill="#92C841" points="-154.112,150.971 -145.462,150.971 -149.788,145.783 			"/>
			<polygon fill="#85C441" points="-141.136,145.783 -136.811,140.597 -145.462,140.597 -141.137,145.783 			"/>
			<polygon fill="#9FCC3B" points="-145.462,145.783 -145.462,150.971 -141.137,145.783 			"/>
			<polygon fill="#9FCC3B" points="-141.137,145.783 -145.462,140.597 -145.462,145.783 			"/>
			<g>
				<polygon fill="#77C046" points="-171.413,145.783 -175.738,145.783 -175.739,145.783 -180.064,140.597 -180.064,145.783 
					-180.064,150.971 -171.413,150.971 -167.088,145.783 				"/>
				<polygon fill="#77C046" points="-175.739,156.159 -175.738,156.159 -171.413,150.971 -180.064,150.971 				"/>
			</g>
			<polygon fill="#92C841" points="-175.738,156.159 -175.739,156.159 -171.413,161.346 -171.413,156.159 			"/>
			<polygon fill="#92C841" points="-171.413,156.159 -171.413,150.971 -175.738,156.159 			"/>
			<polygon fill="#92C841" points="-180.064,156.159 -180.064,161.346 -175.739,156.159 			"/>
			<polygon fill="#92C841" points="-180.064,150.971 -180.064,156.159 -175.739,156.159 			"/>
			<polygon fill="#92C841" points="-180.064,161.346 -171.413,161.346 -175.739,156.159 			"/>
			<polygon fill="#92C841" points="-167.088,156.159 -162.763,150.971 -171.413,150.971 			"/>
			<polygon fill="#77C046" points="-167.088,156.159 -167.088,156.159 -162.763,161.346 -162.763,156.159 			"/>
			<polygon fill="#77C046" points="-162.763,156.159 -162.763,150.971 -167.088,156.159 			"/>
			<polygon fill="#77C046" points="-171.413,156.159 -171.413,161.346 -167.088,156.159 			"/>
			<polygon fill="#65BC46" points="-167.088,156.159 -171.413,150.971 -171.413,156.159 			"/>
			<polygon fill="#77C046" points="-171.413,161.346 -162.763,161.346 -167.088,156.159 			"/>
			<polygon fill="#85C441" points="-158.438,156.159 -154.112,150.971 -162.763,150.971 			"/>
			<polygon fill="#85C441" points="-158.438,156.159 -158.438,156.159 -154.112,161.346 -154.112,156.159 			"/>
			<polygon fill="#85C441" points="-154.112,156.159 -154.112,150.971 -158.438,156.159 			"/>
			<polygon fill="#77C046" points="-162.763,156.159 -162.763,161.346 -158.438,156.159 			"/>
			<polygon fill="#77C046" points="-158.438,156.159 -162.763,150.971 -162.763,156.159 			"/>
			<polygon fill="#92C841" points="-162.763,161.346 -154.112,161.346 -158.438,156.159 			"/>
			<polygon fill="#92C841" points="-149.787,156.159 -145.462,150.971 -154.112,150.971 -149.788,156.159 			"/>
			<polygon fill="#92C841" points="-154.112,156.159 -154.112,161.346 -149.788,156.159 			"/>
			<polygon fill="#92C841" points="-149.788,156.159 -154.112,150.971 -154.112,156.159 			"/>
			<polygon fill="#77C046" points="-175.738,166.534 -171.413,161.347 -180.064,161.347 -175.739,166.534 			"/>
			<polygon fill="#77C046" points="-175.738,166.534 -175.739,166.534 -171.413,171.72 -171.413,166.534 			"/>
			<polygon fill="#77C046" points="-171.413,166.534 -171.413,161.347 -175.738,166.534 			"/>
			<polygon fill="#77C046" points="-180.064,166.534 -180.064,171.72 -175.739,166.534 			"/>
			<polygon fill="#77C046" points="-180.064,161.347 -180.064,166.534 -175.739,166.534 			"/>
			<polygon fill="#77C046" points="-180.064,171.72 -171.413,171.72 -175.739,166.534 			"/>
			<polygon fill="#80C342" points="-167.088,166.534 -162.763,161.347 -171.413,161.347 			"/>
			<polygon fill="#82C341" points="-162.763,166.534 -167.088,166.534 -167.088,166.534 -162.77,171.713 -162.763,171.708 			"/>
			<polygon fill="#82C341" points="-162.763,166.534 -162.763,161.347 -167.088,166.534 			"/>
			<polygon fill="#77C046" points="-171.413,166.534 -171.413,171.72 -167.088,166.534 			"/>
			<polygon fill="#77C046" points="-167.088,166.534 -171.413,161.347 -171.413,166.534 			"/>
			<polygon fill="#82C341" points="-167.088,166.534 -171.413,171.72 -162.78,171.72 -162.77,171.713 			"/>
			<polygon fill="#92C841" points="-158.438,166.534 -154.112,161.347 -162.763,161.347 			"/>
			<polygon fill="#85C441" points="-162.734,171.687 -158.438,166.534 -162.763,166.534 -162.763,171.708 			"/>
			<polygon fill="#85C441" points="-158.438,166.534 -162.763,161.347 -162.763,166.534 			"/>
			<g>
				<polygon fill="#67B240" points="-132.486,135.409 -132.486,135.409 -136.811,140.596 -128.161,140.596 -128.161,135.409 
					-128.161,130.222 				"/>
				<polygon fill="#67B240" points="-136.811,140.597 -141.136,145.783 -141.137,145.783 -145.462,150.971 -136.811,150.971 
					-135.085,150.971 -130.824,147.778 -128.161,145.783 -128.161,140.597 				"/>
				<g>
					<polygon fill="#67B240" points="-136.811,150.971 -145.462,150.971 -149.787,156.159 -149.788,156.159 -154.112,161.346 
						-148.933,161.346 -146.796,159.745 -145.462,158.745 -142.008,156.159 -141.472,155.757 -139.684,154.416 -136.811,152.265 
						-136.148,151.767 -135.085,150.971 					"/>
					<polygon fill="#67B240" points="-158.438,166.534 -158.438,166.534 -162.734,171.687 -157.445,167.725 -155.856,166.534 
						-154.112,165.227 -152.121,163.735 -148.933,161.347 -154.112,161.347 					"/>
				</g>
			</g>
			<polygon points="-162.77,171.713 -162.763,171.72 -162.763,171.708 			"/>
			<polygon points="-162.77,171.713 -162.78,171.72 -162.763,171.72 			"/>
			<polygon points="-162.763,171.708 -162.763,171.72 -162.734,171.687 			"/>
			<polygon points="-158.442,104.289 -158.438,104.285 -158.444,104.285 			"/>
			<polygon points="-158.444,104.285 -158.438,104.285 -158.446,104.273 			"/>
			<rect x="-132.486" y="104.284" width="0.001" height="0"/>
			<polygon points="-154.132,119.822 -154.125,119.846 -154.112,119.846 			"/>
			<rect x="-141.136" y="114.659" width="0" height="0.003"/>
			<polygon points="-136.809,109.472 -136.811,109.472 -136.81,109.474 			"/>
			<polygon points="-136.81,109.474 -136.811,109.472 -136.811,109.475 			"/>
			<polygon points="-154.112,119.847 -154.125,119.847 -154.122,119.857 			"/>
			<polygon points="-154.112,119.847 -154.122,119.857 -154.112,119.894 			"/>
			<polygon points="-149.788,125.034 -149.784,125.039 -149.78,125.034 -149.787,125.034 			"/>
			<polygon points="-145.456,119.847 -145.462,119.847 -145.459,119.85 			"/>
			<polygon points="-145.459,119.85 -145.462,119.847 -145.462,119.854 			"/>
		</g>
		<g>
			<polygon fill="#006831" points="-96.436,99.096 -93.56,99.096 -95.718,96.508 			"/>
			<polygon fill="#B5D334" points="-93.56,99.096 -89.235,93.909 -93.56,93.909 			"/>
			<polygon fill="#B5D334" points="-93.56,93.909 -89.235,93.909 -93.558,88.723 -93.56,88.727 			"/>
			<polygon fill="#B5D334" points="-84.909,99.096 -89.235,93.909 -93.56,99.096 			"/>
			<polygon fill="#4D4D4D" points="-123.834,104.282 -123.835,104.285 -123.834,104.285 			"/>
			<polygon fill="#B5D334" points="-123.836,104.285 -128.161,104.285 -128.161,109.471 			"/>
			<polygon fill="#B5D334" points="-123.836,104.285 -128.161,99.096 -128.161,104.285 			"/>
			<polygon fill="#B5D334" points="-123.836,104.285 -128.161,109.471 -119.511,109.471 -120.364,108.447 			"/>
			<g>
				<polygon fill="#006831" points="-94.997,93.909 -95.718,96.508 -93.56,99.096 -93.56,93.909 -93.56,88.727 				"/>
				<polygon fill="#006831" points="-97.873,104.269 -97.875,104.285 -97.878,104.292 -93.56,109.471 -93.56,104.285 -93.56,99.096 
					-96.436,99.096 				"/>
			</g>
			<polygon fill="#007534" points="-99.314,109.471 -93.56,109.471 -97.878,104.292 			"/>
			<polygon fill="#B5D334" points="-89.234,104.285 -84.909,99.096 -93.56,99.096 -89.235,104.285 			"/>
			<polygon fill="#B5D334" points="-89.234,104.285 -89.235,104.285 -84.909,109.471 -84.909,104.285 			"/>
			<polygon fill="#B5D334" points="-84.909,104.285 -84.909,99.096 -89.234,104.285 			"/>
			<polygon fill="#9FCC3B" points="-89.235,104.285 -93.56,99.096 -93.56,104.285 -93.56,109.471 -84.909,109.471 			"/>
			<polygon fill="#9FCC3B" points="-76.258,109.471 -80.584,104.285 -84.909,109.471 			"/>
			<polygon fill="#B5D334" points="-123.836,114.659 -123.835,114.659 -119.511,109.472 -119.511,109.472 -128.161,109.472 			"/>
			<polygon fill="#B5D334" points="-119.511,114.659 -123.835,114.659 -123.836,114.659 -119.511,119.846 			"/>
			<polygon fill="#B5D334" points="-119.511,109.472 -119.511,109.472 -123.835,114.659 -119.511,114.659 			"/>
			<polygon fill="#B5D334" points="-128.161,119.846 -123.836,114.659 -128.161,114.659 			"/>
			<polygon fill="#A6CE39" points="-123.836,114.659 -128.161,109.472 -128.161,114.659 			"/>
			<polygon fill="#A6CE39" points="-119.511,119.846 -123.836,114.659 -128.161,119.846 			"/>
			<polygon fill="#B5D334" points="-119.511,119.846 -115.187,114.66 -115.188,114.659 -119.511,114.659 			"/>
			<polygon fill="#B5D334" points="-115.188,114.659 -119.511,109.472 -119.511,114.659 			"/>
			<polygon fill="#B5D334" points="-119.511,119.846 -110.864,119.846 -115.187,114.66 			"/>
			<polygon fill="#007534" points="-97.885,114.659 -97.883,114.659 -93.56,109.472 -99.314,109.472 -100.039,112.076 			"/>
			<polygon fill="#007534" points="-97.883,114.659 -97.885,114.659 -93.56,119.846 -93.56,114.659 			"/>
			<polygon fill="#007534" points="-93.56,114.659 -93.56,109.472 -97.883,114.659 			"/>
			<polygon fill="#007534" points="-102.186,119.817 -97.885,114.659 -100.755,114.659 			"/>
			<polygon fill="#007534" points="-97.885,114.659 -100.039,112.076 -100.755,114.659 			"/>
			<polygon fill="#006831" points="-102.186,119.817 -102.194,119.846 -93.56,119.846 -97.885,114.659 			"/>
			<polygon fill="#B5D334" points="-89.234,114.659 -84.909,109.472 -93.56,109.472 -89.235,114.659 			"/>
			<polygon fill="#9FCC3B" points="-89.234,114.659 -89.235,114.659 -84.909,119.846 -84.909,114.659 			"/>
			<polygon fill="#9FCC3B" points="-84.909,114.659 -84.909,109.472 -89.234,114.659 			"/>
			<polygon fill="#9FCC3B" points="-93.56,114.659 -93.56,119.846 -89.235,114.659 			"/>
			<polygon fill="#9FCC3B" points="-89.235,114.659 -93.56,109.472 -93.56,114.659 			"/>
			<polygon fill="#9FCC3B" points="-93.56,119.846 -84.909,119.846 -89.235,114.659 			"/>
			<g>
				<polygon fill="#9FCC3B" points="-84.909,99.096 -84.909,104.285 -84.909,109.471 -80.584,104.285 				"/>
				<polygon fill="#9FCC3B" points="-84.909,109.472 -80.584,114.659 -80.584,114.659 -76.258,109.472 				"/>
			</g>
			<polygon fill="#B5D334" points="-80.584,114.659 -76.258,119.846 -76.258,114.659 -80.584,114.659 			"/>
			<polygon fill="#B5D334" points="-76.258,114.659 -76.258,109.472 -80.584,114.659 			"/>
			<polygon fill="#9FCC3B" points="-84.909,114.659 -84.909,119.846 -80.584,114.659 			"/>
			<polygon fill="#9FCC3B" points="-80.584,114.659 -84.909,109.472 -84.909,114.659 			"/>
			<polygon fill="#B5D334" points="-84.909,119.846 -76.258,119.846 -80.584,114.659 			"/>
			<polygon fill="#A6CE39" points="-128.161,119.847 -123.836,125.034 -123.835,125.034 -119.511,119.847 			"/>
			<polygon fill="#B5D334" points="-123.835,125.034 -123.836,125.034 -119.511,130.221 -119.511,125.034 			"/>
			<polygon fill="#B5D334" points="-123.835,125.034 -119.511,125.034 -119.511,119.847 			"/>
			<polygon fill="#A6CE39" points="-128.161,125.034 -128.161,130.221 -123.836,125.034 			"/>
			<polygon fill="#A6CE39" points="-128.161,125.034 -123.836,125.034 -128.161,119.847 			"/>
			<polygon fill="#A6CE39" points="-128.161,130.221 -119.511,130.221 -123.836,125.034 			"/>
			<polygon fill="#B5D334" points="-115.185,125.034 -115.185,125.034 -110.862,119.849 -110.864,119.847 -119.511,119.847 			"/>
			<polygon fill="#B5D334" points="-119.511,125.034 -119.511,130.221 -115.185,125.034 			"/>
			<polygon fill="#B5D334" points="-119.511,125.034 -115.185,125.034 -119.511,119.847 			"/>
			<polygon fill="#B5D334" points="-119.511,130.221 -110.861,130.221 -115.185,125.034 			"/>
			<polygon fill="#006831" points="-103.634,125.034 -104.358,127.646 -102.21,130.221 -102.21,125.034 			"/>
			<polygon fill="#006831" points="-103.634,125.034 -102.21,125.034 -102.21,119.902 			"/>
			<polygon fill="#007534" points="-97.885,125.034 -97.883,125.034 -93.56,119.847 -102.194,119.847 -102.198,119.86 			"/>
			<polygon fill="#007534" points="-97.883,125.034 -97.885,125.034 -93.56,130.221 -93.56,125.034 			"/>
			<polygon fill="#007534" points="-93.56,125.034 -93.56,119.847 -97.883,125.034 			"/>
			<polygon fill="#00652E" points="-97.885,125.034 -102.198,119.86 -102.21,119.902 -102.21,125.034 -102.21,130.221 
				-93.56,130.221 			"/>
			<polygon fill="#BACE32" points="-89.234,125.034 -84.909,119.847 -93.56,119.847 -89.235,125.034 			"/>
			<polygon fill="#9FCC3B" points="-89.234,125.034 -89.235,125.034 -84.909,130.221 -84.909,125.034 			"/>
			<polygon fill="#9FCC3B" points="-84.909,125.034 -84.909,119.847 -89.234,125.034 			"/>
			<polygon fill="#BACE32" points="-93.56,125.034 -93.56,130.221 -89.235,125.034 			"/>
			<polygon fill="#BACE32" points="-89.235,125.034 -93.56,119.847 -93.56,125.034 			"/>
			<polygon fill="#9FCC3B" points="-93.56,130.221 -84.909,130.221 -89.235,125.034 			"/>
			<polygon fill="#B5D334" points="-80.584,125.034 -76.258,119.847 -84.909,119.847 -80.584,125.034 			"/>
			<polygon fill="#9FCC3B" points="-80.584,125.034 -76.258,130.221 -76.258,125.034 -80.584,125.034 			"/>
			<polygon fill="#9FCC3B" points="-76.258,125.034 -76.258,119.847 -80.584,125.034 			"/>
			<polygon fill="#9FCC3B" points="-84.909,125.034 -84.909,130.221 -80.584,125.034 			"/>
			<polygon fill="#9FCC3B" points="-80.584,125.034 -84.909,119.847 -84.909,125.034 			"/>
			<polygon fill="#9FCC3B" points="-84.909,130.221 -76.258,130.221 -80.584,125.034 			"/>
			<polygon fill="#A6CE39" points="-123.835,135.409 -119.511,130.222 -128.161,130.222 -123.836,135.409 			"/>
			<polygon fill="#B5D334" points="-123.835,135.409 -123.836,135.409 -119.511,140.596 -119.511,135.409 			"/>
			<polygon fill="#B5D334" points="-119.511,135.409 -119.511,130.222 -123.835,135.409 			"/>
			<polygon fill="#B5D334" points="-115.185,135.409 -110.861,130.222 -119.511,130.222 -115.185,135.409 			"/>
			<polygon fill="#B5D334" points="-115.185,135.409 -115.185,135.409 -110.861,140.596 -110.861,135.409 			"/>
			<polygon fill="#B5D334" points="-110.861,135.409 -110.861,130.222 -115.185,135.409 			"/>
			<polygon fill="#B5D334" points="-119.511,135.409 -119.511,140.596 -115.185,135.409 			"/>
			<polygon fill="#B5D334" points="-115.185,135.409 -119.511,130.222 -119.511,135.409 			"/>
			<polygon fill="#A6CE39" points="-119.511,140.596 -110.861,140.596 -115.185,135.409 			"/>
			<polygon fill="#BFD730" points="-106.535,135.409 -106.536,135.409 -102.21,140.596 -102.21,135.409 			"/>
			<polygon fill="#BFD730" points="-102.21,135.409 -102.21,130.222 -106.535,135.409 			"/>
			<g>
				<polygon fill="#BACE32" points="-102.21,130.221 -104.358,127.646 -104.359,127.649 -106.538,125.036 -106.54,125.034 
					-110.861,119.85 -110.862,119.849 -115.185,125.034 -115.185,125.034 -110.861,130.221 				"/>
				<polygon fill="#BACE32" points="-110.861,135.409 -110.861,140.596 -106.536,135.409 -106.535,135.409 -102.21,130.222 
					-110.861,130.222 				"/>
			</g>
			<polygon fill="#BFD730" points="-110.861,140.596 -102.21,140.596 -106.536,135.409 			"/>
			<polygon fill="#007534" points="-102.21,130.222 -97.885,135.409 -93.56,140.596 -93.56,135.409 -93.56,130.222 			"/>
			<polygon fill="#A9CF38" points="-102.21,135.409 -102.21,140.596 -97.885,135.409 			"/>
			<polygon fill="#A9CF38" points="-97.885,135.409 -102.21,130.222 -102.21,135.409 			"/>
			<polygon fill="#BFD730" points="-102.21,140.596 -93.56,140.596 -97.885,135.409 			"/>
			<polygon fill="#BACE32" points="-89.234,135.409 -84.909,130.222 -93.56,130.222 -89.235,135.409 			"/>
			<polygon fill="#BACE32" points="-89.234,135.409 -89.235,135.409 -84.909,140.596 -84.909,135.409 			"/>
			<polygon fill="#BACE32" points="-84.909,135.409 -84.909,130.222 -89.234,135.409 			"/>
			<polygon fill="#BACE32" points="-93.56,135.409 -93.56,140.596 -89.235,135.409 			"/>
			<polygon fill="#BACE32" points="-89.235,135.409 -93.56,130.222 -93.56,135.409 			"/>
			<polygon fill="#BACE32" points="-93.56,140.596 -84.909,140.596 -89.235,135.409 			"/>
			<polygon fill="#9FCC3B" points="-80.584,135.409 -80.584,135.409 -76.258,130.222 -84.909,130.222 			"/>
			<polygon fill="#BACE32" points="-80.584,135.409 -76.258,140.596 -76.258,135.409 -80.584,135.409 			"/>
			<polygon fill="#BACE32" points="-76.258,135.409 -76.258,130.222 -80.584,135.409 			"/>
			<polygon fill="#BACE32" points="-84.909,135.409 -84.909,140.596 -80.584,135.409 			"/>
			<polygon fill="#BACE32" points="-80.584,135.409 -84.909,130.222 -84.909,135.409 			"/>
			<polygon fill="#BACE32" points="-84.909,140.596 -76.258,140.596 -80.584,135.409 			"/>
			<polygon fill="#B5D334" points="-115.185,145.783 -110.861,140.597 -119.511,140.597 -115.185,145.783 			"/>
			<polygon fill="#B5D334" points="-115.185,145.783 -115.185,145.783 -110.861,150.971 -110.861,145.783 			"/>
			<polygon fill="#B5D334" points="-110.861,145.783 -110.861,140.597 -115.185,145.783 			"/>
			<polygon fill="#BFD730" points="-106.535,145.783 -102.21,140.597 -110.861,140.597 -106.536,145.783 			"/>
			<polygon fill="#BFD730" points="-106.535,145.783 -106.536,145.783 -102.21,150.971 -102.21,145.783 			"/>
			<polygon fill="#BFD730" points="-102.21,145.783 -102.21,140.597 -106.535,145.783 			"/>
			<polygon fill="#A9CF38" points="-110.861,145.783 -110.861,150.971 -106.536,145.783 			"/>
			<polygon fill="#A9CF38" points="-106.536,145.783 -110.861,140.597 -110.861,145.783 			"/>
			<polygon fill="#BFD730" points="-110.861,150.971 -102.21,150.971 -106.536,145.783 			"/>
			<polygon fill="#BFD730" points="-97.883,145.783 -93.56,140.597 -102.21,140.597 -97.885,145.783 			"/>
			<polygon fill="#A9CF38" points="-97.883,145.783 -97.885,145.783 -93.56,150.971 -93.56,145.783 			"/>
			<polygon fill="#A9CF38" points="-93.56,145.783 -93.56,140.597 -97.883,145.783 			"/>
			<polygon fill="#A9CF38" points="-102.21,145.783 -102.21,150.971 -97.885,145.783 			"/>
			<polygon fill="#BFD730" points="-97.885,145.783 -102.21,140.597 -102.21,145.783 			"/>
			<polygon fill="#A9CF38" points="-102.21,150.971 -93.56,150.971 -97.885,145.783 			"/>
			<polygon fill="#BACE32" points="-89.234,145.783 -84.909,140.597 -93.56,140.597 -89.235,145.783 			"/>
			<polygon fill="#A9CF38" points="-89.234,145.783 -89.235,145.783 -84.909,150.971 -84.909,145.783 			"/>
			<polygon fill="#A9CF38" points="-84.909,145.783 -84.909,140.597 -89.234,145.783 			"/>
			<polygon fill="#BACE32" points="-93.56,145.783 -93.56,150.971 -89.235,145.783 			"/>
			<polygon fill="#BACE32" points="-89.235,145.783 -93.56,140.597 -93.56,145.783 			"/>
			<polygon fill="#A9CF38" points="-93.56,150.971 -84.909,150.971 -89.235,145.783 			"/>
			<polygon fill="#B5D334" points="-80.584,145.783 -80.584,145.783 -76.258,140.597 -84.909,140.597 			"/>
			<polygon fill="#B5D334" points="-80.584,145.783 -76.258,150.971 -76.258,145.783 -80.584,145.783 			"/>
			<polygon fill="#B5D334" points="-76.258,145.783 -76.258,140.597 -80.584,145.783 			"/>
			<polygon fill="#BFD730" points="-84.909,145.783 -84.909,150.971 -80.584,145.783 			"/>
			<polygon fill="#B5D334" points="-80.584,145.783 -84.909,140.597 -84.909,145.783 			"/>
			<polygon fill="#BFD730" points="-84.909,150.971 -76.258,150.971 -80.584,145.783 			"/>
			<polygon fill="#BFD730" points="-106.535,156.159 -102.21,150.971 -110.861,150.971 -106.536,156.159 			"/>
			<polygon fill="#B5D334" points="-106.535,156.159 -106.536,156.159 -102.21,161.346 -102.21,156.159 			"/>
			<polygon fill="#B5D334" points="-102.21,156.159 -102.21,150.971 -106.535,156.159 			"/>
			<polygon fill="#B5D334" points="-97.883,156.159 -93.56,150.971 -102.21,150.971 -97.885,156.159 			"/>
			<polygon fill="#A9CF38" points="-97.883,156.159 -97.885,156.159 -93.56,161.346 -93.56,156.159 			"/>
			<polygon fill="#A9CF38" points="-93.56,156.159 -93.56,150.971 -97.883,156.159 			"/>
			<polygon fill="#A9CF38" points="-102.21,156.159 -102.21,161.346 -97.885,156.159 			"/>
			<polygon fill="#A9CF38" points="-97.885,156.159 -102.21,150.971 -102.21,156.159 			"/>
			<polygon fill="#A9CF38" points="-102.21,161.346 -93.56,161.346 -97.885,156.159 			"/>
			<polygon fill="#A9CF38" points="-89.234,156.159 -84.909,150.971 -93.56,150.971 -89.235,156.159 			"/>
			<polygon fill="#A9CF38" points="-89.234,156.159 -89.235,156.159 -84.909,161.346 -84.909,156.159 			"/>
			<polygon fill="#A9CF38" points="-84.909,156.159 -84.909,150.971 -89.234,156.159 			"/>
			<polygon fill="#A9CF38" points="-93.56,156.159 -93.56,161.346 -89.235,156.159 			"/>
			<polygon fill="#A9CF38" points="-89.235,156.159 -93.56,150.971 -93.56,156.159 			"/>
			<polygon fill="#B5D334" points="-93.56,161.346 -84.909,161.346 -89.235,156.159 			"/>
			<polygon fill="#BFD730" points="-80.584,156.159 -76.258,150.971 -84.909,150.971 -80.584,156.159 			"/>
			<polygon fill="#BFD730" points="-80.584,156.159 -76.258,161.346 -76.258,156.159 -80.584,156.159 			"/>
			<polygon fill="#BFD730" points="-76.258,156.159 -76.258,150.971 -80.584,156.159 			"/>
			<polygon fill="#A9CF38" points="-84.909,156.159 -84.909,161.346 -80.584,156.159 			"/>
			<polygon fill="#A9CF38" points="-80.584,156.159 -84.909,150.971 -84.909,156.159 			"/>
			<polygon fill="#A9CF38" points="-84.909,161.346 -76.258,161.346 -80.584,156.159 			"/>
			<polygon fill="#A9CF38" points="-97.883,166.534 -93.56,161.347 -102.21,161.347 -97.885,166.534 			"/>
			<polygon fill="#B5D334" points="-93.56,171.72 -93.56,166.534 -97.883,166.534 -97.885,166.534 -93.561,171.719 			"/>
			<polygon fill="#B5D334" points="-93.56,166.534 -93.56,161.347 -97.883,166.534 			"/>
			<g>
				<polygon fill="#479D3C" points="-123.836,135.409 -128.161,130.222 -128.161,135.409 -128.161,140.596 -119.511,140.596 				"/>
				<g>
					<polygon fill="#479D3C" points="-119.511,150.971 -110.861,150.971 -115.185,145.783 -119.511,140.597 -128.161,140.597 
						-128.161,145.783 -125.5,147.778 -121.24,150.971 					"/>
					<polygon fill="#479D3C" points="-106.536,156.159 -110.861,150.971 -119.511,150.971 -121.24,150.971 -120.176,151.769 
						-119.511,152.268 -116.629,154.428 -114.853,155.76 -114.32,156.159 -110.861,158.752 -109.528,159.75 -107.399,161.346 
						-102.21,161.346 					"/>
				</g>
				<polygon fill="#479D3C" points="-97.885,166.534 -102.21,161.347 -107.399,161.347 -104.206,163.739 -102.21,165.235 
					-100.479,166.534 -98.882,167.729 -93.561,171.719 				"/>
			</g>
			<polygon fill="#A9CF38" points="-89.234,166.534 -84.909,161.347 -93.56,161.347 -89.235,166.534 			"/>
			<polygon fill="#B5D334" points="-89.234,166.534 -89.235,166.534 -84.909,171.72 -84.909,166.534 			"/>
			<polygon fill="#B5D334" points="-84.909,166.534 -84.909,161.347 -89.234,166.534 			"/>
			<polygon fill="#B5D334" points="-93.559,171.72 -89.235,166.534 -93.56,166.534 -93.56,171.72 			"/>
			<polygon fill="#B5D334" points="-89.235,166.534 -93.56,161.347 -93.56,166.534 			"/>
			<polygon fill="#BFD730" points="-93.559,171.72 -93.558,171.72 -84.909,171.72 -89.235,166.534 			"/>
			<polygon fill="#B5D334" points="-80.584,166.534 -76.258,161.347 -84.909,161.347 -80.584,166.534 			"/>
			<polygon fill="#B5D334" points="-80.584,166.534 -76.258,171.72 -76.258,166.534 -80.584,166.534 			"/>
			<polygon fill="#B5D334" points="-76.258,166.534 -76.258,161.347 -80.584,166.534 			"/>
			<polygon fill="#B5D334" points="-84.909,166.534 -84.909,171.72 -80.584,166.534 			"/>
			<polygon fill="#B5D334" points="-80.584,166.534 -84.909,161.347 -84.909,166.534 			"/>
			<polygon fill="#B5D334" points="-84.909,171.72 -76.258,171.72 -80.584,166.534 			"/>
			<polygon points="-93.561,171.719 -93.56,171.72 -93.56,171.72 			"/>
			<path d="M-93.56,171.72L-93.56,171.72L-93.56,171.72z"/>
			<polygon points="-93.56,171.72 -93.558,171.72 -93.559,171.72 			"/>
			<polygon points="-93.56,88.727 -93.558,88.723 -93.56,88.722 			"/>
			<polygon points="-97.875,104.285 -97.883,104.285 -97.885,104.285 -97.878,104.292 			"/>
			<polygon points="-97.873,104.269 -97.883,104.285 -97.875,104.285 			"/>
			<path d="M-119.511,109.472L-119.511,109.472L-119.511,109.472z"/>
			<path d="M-119.511,109.472L-119.511,109.472L-119.511,109.472z"/>
			<polygon points="-115.185,114.659 -115.188,114.659 -115.187,114.66 			"/>
			<polygon points="-102.21,119.846 -102.194,119.846 -102.186,119.817 			"/>
			<polygon points="-110.861,119.847 -110.864,119.847 -110.862,119.849 			"/>
			<polygon points="-110.861,119.85 -110.861,119.847 -110.862,119.849 			"/>
			<polygon points="-106.54,125.034 -106.538,125.036 -106.536,125.034 			"/>
			<polygon points="-102.198,119.86 -102.194,119.847 -102.21,119.847 			"/>
			<polygon points="-102.198,119.86 -102.21,119.847 -102.21,119.902 			"/>
		</g>
	</g>
</g>
<path fill="#1E1E1E" d="M-42.901,114.17h5.759l8.988,32.513h0.115l9.622-32.513h6.333l9.62,32.513h0.118l8.987-32.513h5.753
	L0.529,154.846H-5.29l-9.91-33.204h-0.116l-9.849,33.204h-5.818L-42.901,114.17z"/>
<path fill="#B5D334" d="M365.742,154.846h-5.763l-8.98-32.518h-0.121l-9.619,32.518h-6.337l-9.613-32.518h-0.116l-8.987,32.518
	h-5.763l11.865-40.676h5.819l9.909,33.206h0.115l9.847-33.206h5.82L365.742,154.846z"/>
<path fill="#1E1E1E" d="M71.836,114.17h14.27c10.376,0,13.014,6.263,13.014,11.37c0,5.176-3.841,10.053-9.975,10.747l11.518,18.559
	h-6.879L83.47,136.92h-6.131v17.926h-5.502V114.17L71.836,114.17z M77.339,132.098h7.223c4.354,0,8.709-1.035,8.709-6.553
	c0-5.51-4.355-6.546-8.709-6.546h-7.22v13.099H77.339z"/>
<path fill="#1E1E1E" d="M114.869,113.355h14.562c10.578,0,13.27,6.39,13.27,11.602s-2.688,11.6-13.27,11.6h-8.948v18.286h-5.613
	V113.355z M120.482,131.641h7.368c4.444,0,8.885-1.052,8.885-6.678c0-5.629-4.441-6.685-8.885-6.685h-7.368V131.641z"/>
<path fill="#1E1E1E" d="M199.354,114.016h5.861v40.83h-5.861V114.016z"/>
<path fill="#B5D334" d="M470.789,114.016h5.86v40.83h-5.86V114.016z"/>
<path fill="#1E1E1E" d="M223.517,114.016h7.175l22.2,33.561h0.113v-33.561h5.463v40.83h-6.945l-22.429-33.568h-0.115v33.568h-5.464
	v-40.83H223.517z"/>
<path fill="#1E1E1E" d="M284.201,119.255h-13.096v-5.179h31.712v5.179h-13.099v35.591h-5.513v-35.591H284.201z"/>
<path fill="#B5D334" d="M378.691,113.966h26.111v5.195h-20.618v12.185h19.19v5.195h-19.19v13.104h21.649v5.201h-27.14v-40.879
	H378.691z"/>
<path fill="#B5D334" d="M420.683,114.559h14.016c16.978,0,21.124,12.691,21.124,20.143c0,10.297-7.666,20.146-22.027,20.146h-13.112
	V114.559L420.683,114.559z M426.13,149.722h6.869c9.2,0,17.03-5.062,17.03-15.021c0-5.117-2.669-15.02-15.72-15.02h-8.177v30.04
	H426.13z"/>
<g>
	<polygon fill="#1E1E1E" points="41.275,114.559 36.625,114.559 19.933,154.846 25.923,154.846 29.667,144.886 31.487,140.103 
		38.653,121.617 38.76,121.617 45.822,140.103 47.691,144.886 51.489,154.846 57.479,154.846 	"/>
</g>
<g>
	<polygon fill="#1E1E1E" points="169.657,114.559 165.004,114.559 148.314,154.846 154.306,154.846 158.048,144.886 
		159.868,140.103 167.035,121.617 167.139,121.617 174.203,140.103 176.072,144.886 179.873,154.846 185.858,154.846 	"/>
</g>
<g>
	<polygon fill="#B5D334" points="513.59,114.559 508.938,114.559 492.248,154.846 498.232,154.846 501.983,144.886 503.8,140.103 
		510.975,121.617 511.073,121.617 518.135,140.103 520.004,144.886 523.804,154.846 529.788,154.846 	"/>
</g>
</svg>
