<?xml version="1.0" encoding="UTF-8" standalone="no"?>
<svg width="165px" height="71px" viewBox="0 0 165 71" version="1.1" xmlns="http://www.w3.org/2000/svg" xmlns:xlink="http://www.w3.org/1999/xlink" xmlns:sketch="http://www.bohemiancoding.com/sketch/ns">
    <title>34</title>
    <description>Created with Sketch (http://www.bohemiancoding.com/sketch)</description>
    <defs></defs>
    <g id="Page 1" stroke="none" stroke-width="1" fill="none" fill-rule="evenodd">
        <g id="Group" fill="#C32033">
            <path d="M66.8288842,21.8551883 L66.8288842,22.5940455 C66.8288842,23.1804431 66.8579572,23.7140568 66.916104,24.1949028 C66.9742508,24.6757488 67.0832744,25.080357 67.243178,25.4087396 C67.4030817,25.7371223 67.6174948,25.9951333 67.8864237,26.1827805 C68.1553526,26.3704277 68.4933257,26.4642499 68.9003532,26.4642499 C69.3800643,26.4642499 69.8125245,26.2121028 70.197747,25.7078009 C70.5829695,25.203499 70.7755778,24.423602 70.7755778,23.3680864 C70.7755778,22.8051448 70.7283343,22.3184421 70.6338457,21.9079638 C70.5393572,21.4974856 70.3830901,21.1280606 70.1650396,20.799678 C69.9469891,20.4712954 69.6598937,20.1722371 69.3037446,19.9024943 C68.9475955,19.6327514 68.507867,19.3571487 67.9845459,19.0756779 C67.2867844,18.7003835 66.6835205,18.2899113 66.1747361,17.8442492 C65.6659517,17.3985871 65.2407597,16.8767011 64.8991473,16.2785756 C64.5575349,15.6804501 64.3067807,14.9885114 64.146877,14.2027387 C63.9869733,13.416966 63.9070227,12.5080634 63.9070227,11.4760038 C63.9070227,8.98967819 64.3358488,7.13668975 65.193514,5.91698287 C66.0511791,4.69727599 67.2286339,4.08743169 68.7259138,4.08743169 C69.4236752,4.08743169 70.0669144,4.21057333 70.6556507,4.4568603 C71.2443869,4.70314726 71.7531637,5.10189161 72.1819963,5.6531053 C72.6108288,6.20431899 72.9451679,6.90798548 73.1850234,7.76412589 C73.4248789,8.6202663 73.5448048,9.6464466 73.5448048,10.8426976 L73.5448048,11.5463711 L70.5357235,11.5463711 C70.5357235,10.3501201 70.4048952,9.4294898 70.1432347,8.78445251 C69.8815741,8.13941521 69.4454797,7.8169014 68.8349384,7.8169014 C68.4860577,7.8169014 68.1953281,7.89899583 67.962741,8.06318714 C67.7301538,8.22737845 67.5448137,8.44434228 67.4067151,8.71408515 C67.2686164,8.98382802 67.1741293,9.29461405 67.1232509,9.64645258 C67.0723724,9.9982911 67.0469336,10.3618521 67.0469336,10.7371466 C67.0469336,11.5111913 67.148689,12.1620828 67.3522027,12.6898406 C67.5557165,13.2175984 67.9918109,13.704301 68.6604989,14.1499632 L71.0808469,15.8387796 C71.6768515,16.2609859 72.1638236,16.7007774 72.5417777,17.1581675 C72.9197319,17.6155576 73.2213638,18.1081241 73.4466826,18.6358819 C73.6720014,19.1636397 73.8282686,19.7441646 73.9154887,20.3774739 C74.0027089,21.0107833 74.0463184,21.7144497 74.0463184,22.4884945 C74.0463184,25.1390114 73.5702487,27.0682303 72.618095,28.2762093 C71.6659413,29.4841882 70.3394876,30.0881686 68.638694,30.0881686 C66.8652169,30.0881686 65.5969091,29.4665965 64.8337325,28.2234338 C64.0705559,26.980271 63.6889733,25.1976492 63.6889733,22.8755149 L63.6889733,21.8551883 Z M84.7307375,4.58000316 L84.7307375,8.73167699 L81.3291673,8.73167699 L81.3291673,29.7011482 L78.1892564,29.7011482 L78.1892564,8.73167699 L74.7876862,8.73167699 L74.7876862,4.58000316 Z M88.3285521,20.2367392 L91.3812433,20.2367392 L89.8767026,8.94277905 L89.8330927,8.94277905 Z M87.9142583,4.58000316 L91.7955371,4.58000316 L95.9166701,29.7011482 L92.6459296,29.7011482 L91.9263667,24.388413 L87.7834287,24.388413 L87.0638657,29.7011482 L83.7931252,29.7011482 Z M97.006917,4.58000316 L102.80703,4.58000316 C104.115333,4.58000316 105.132887,5.11361692 105.859721,6.18086044 C106.586556,7.24810397 106.949968,8.87240079 106.949968,11.0537996 C106.949968,12.7426246 106.739189,14.1206381 106.317625,15.1878816 C105.896061,16.2551251 105.241919,16.9412 104.355181,17.2461267 L104.355181,17.3164941 C105.140162,17.5041413 105.714353,17.9146134 106.077771,18.5479227 C106.441188,19.1812321 106.666504,20.2015485 106.753724,21.6089026 C106.782797,22.0780206 106.804602,22.5881788 106.819139,23.1393925 C106.833675,23.6906062 106.848212,24.3063144 106.862748,24.9865355 C106.891822,26.3235219 106.935431,27.3438383 106.993578,28.0475154 C107.080798,28.7511924 107.269773,29.2320312 107.560506,29.4900461 L107.560506,29.7011482 L104.158936,29.7011482 C103.999033,29.3493097 103.897277,28.9447014 103.853667,28.4873113 C103.810057,28.0299213 103.780984,27.5549464 103.766447,27.0623724 L103.679228,22.2422088 C103.650154,21.2570609 103.497521,20.4830278 103.221324,19.9200861 C102.945127,19.3571445 102.479959,19.0756779 101.825808,19.0756779 L100.146828,19.0756779 L100.146828,29.7011482 L97.006917,29.7011482 Z M100.146828,15.5573102 L101.455124,15.5573102 C102.211032,15.5573102 102.792492,15.2699797 103.199519,14.6953102 C103.606547,14.1206406 103.810057,13.1530991 103.810057,11.7926568 C103.810057,9.47052259 103.083233,8.30947287 101.629564,8.30947287 L100.146828,8.30947287 Z M117.852437,4.58000316 L117.852437,8.73167699 L114.450867,8.73167699 L114.450867,29.7011482 L111.310956,29.7011482 L111.310956,8.73167699 L107.909385,8.73167699 L107.909385,4.58000316 Z M117.852437,4.58000316" id="START"></path>
            <path d="M128.119514,0 L128.119514,23.6644173 C128.119514,24.519762 128.161901,25.3038162 128.246677,26.0166034 C128.331453,26.7293906 128.488892,27.3471303 128.718999,27.8698409 C128.949106,28.3925515 129.263984,28.804378 129.663643,29.1053326 C130.063302,29.4062872 130.565897,29.5567622 131.171441,29.5567622 C131.801207,29.5567622 132.309856,29.4062872 132.697404,29.1053326 C133.084952,28.804378 133.393775,28.3925515 133.623882,27.8698409 C133.853989,27.3471303 134.011428,26.7293906 134.096204,26.0166034 C134.18098,25.3038162 134.223368,24.519762 134.223368,23.6644173 L134.223368,0 L139.455243,0 L139.455243,23.6644173 C139.455243,25.8186187 139.22514,27.60056 138.764926,29.0102948 C138.304713,30.4200295 137.687067,31.5367127 136.91197,32.3603779 C136.136874,33.1840432 135.252793,33.7384249 134.2597,34.0235398 C133.266608,34.3086547 132.237198,34.45121 131.171441,34.45121 C130.105683,34.45121 129.076273,34.3244942 128.083181,34.0710587 C127.090089,33.8176233 126.206008,33.3028402 125.430911,32.5266941 C124.655815,31.750548 124.038169,30.6497043 123.577955,29.2241299 C123.117742,27.7985554 122.887638,25.9453364 122.887638,23.6644173 L122.887638,0 Z M147.993372,15.348608 L150.31865,15.348608 C151.360186,15.348608 152.20188,14.9367816 152.843757,14.1131164 C153.485633,13.2894511 153.806567,12.0064534 153.806567,10.2640846 C153.806567,8.55339531 153.528021,7.25455808 152.97092,6.36753398 C152.41382,5.48050989 151.481296,5.0370045 150.17332,5.0370045 L147.993372,5.0370045 Z M142.761497,0 L151.917279,0 C153.249476,0 154.369716,0.29303035 155.278032,0.879099841 C156.186348,1.46516933 156.919046,2.23338403 157.476146,3.18376699 C158.033247,4.13414995 158.4329,5.21915422 158.675118,6.43881235 C158.917335,7.65847048 159.038442,8.90186953 159.038442,10.1690468 C159.038442,11.9114156 158.838616,13.4320055 158.438956,14.7308622 C158.039297,16.0297189 157.482205,17.090964 156.767663,17.9146292 C156.053121,18.7382944 155.187206,19.3560341 154.169892,19.7678667 C153.152578,20.1796993 152.026282,20.3856125 150.790972,20.3856125 L147.993372,20.3856125 L147.993372,33.928502 L142.761497,33.928502 Z M142.761497,0" id="UP"></path>
            <path d="M63.459854,0.761904762 L63.459854,2.28571429 L117.854015,2.28571429 L117.854015,0.761904762 L63.459854,0.761904762 Z M63.459854,0.761904762" id="Rectangle 1"></path>
            <path d="M63.6889733,31.8399251 L63.6889733,33.5916815 L118.114096,33.5916815 L118.114096,31.8399251 L63.6889733,31.8399251 Z M63.6889733,31.8399251" id="Rectangle 1 copy"></path>
            <path d="M30.2189781,60.952381 C13.5294965,60.952381 0,47.3077265 0,30.4761905 C0,13.6446544 13.5294965,0 30.2189781,0 C46.9084597,0 60.4379562,13.6446544 60.4379562,30.4761905 C60.4379562,47.3077265 46.9084597,60.952381 30.2189781,60.952381 Z M30.2181555,8.39413919 L26.5831717,15.2315506 C26.1707054,15.9746634 25.4316906,15.9057383 24.6926746,15.4906865 L22.0610433,14.1163779 L24.022439,24.6184983 C24.4349053,26.5371762 23.1115289,26.5371762 22.4584361,25.7075734 L17.8657276,20.5223417 L17.1201094,23.1555257 C17.0341266,23.5013192 16.6560749,23.8645112 16.0889084,23.7780212 L10.2813761,22.5465813 L11.8067617,28.1395046 C12.133306,29.3839927 12.3880182,29.8992534 11.4771017,30.2274809 L9.40710977,31.2086517 L19.4044009,39.398289 C19.8000994,39.7079468 20.0000223,40.2651989 19.859151,40.7697519 L18.9841751,43.6655847 C22.4263902,43.2654209 25.5106683,42.6633844 28.9546267,42.2926076 C29.2586576,42.2598752 29.767642,42.7658865 29.7655546,43.1212154 L29.309466,53.7304029 L30.9830881,53.7304029 L30.7196404,43.1439676 C30.7175412,42.7886387 31.1792964,42.2598752 31.4833274,42.2926076 C34.9272858,42.6633855 38.0115682,43.2654209 41.4537822,43.6655847 L40.5788084,40.7697519 C40.4379371,40.2651989 40.6378589,39.7079468 41.0335575,39.398289 L51.0308464,31.2086517 L48.9608566,30.2274809 C48.049938,29.8992534 48.3046502,29.3839927 48.6311945,28.1395046 L50.1565833,22.5465813 L44.3490478,23.7780212 C43.7818813,23.8645112 43.4038296,23.5013192 43.3178447,23.1555257 L42.5722276,20.5223417 L37.9795212,25.7075734 C37.3264263,26.5371762 36.0030488,26.5371762 36.4155151,24.6184983 L38.3769076,14.1163779 L35.7452816,15.4906865 C35.0062475,15.9057383 34.2672508,15.9746634 33.8547834,15.2315506 Z M30.2181555,8.39413919" id="Oval 1"></path>
            <path d="M64.2100649,60.4038996 L64.2100649,37.2731292 L68.4237332,37.2731292 L68.4237332,56.5811673 L75.8854376,56.5811673 L75.8854376,60.4038996 Z M81.5329236,48.8385144 C81.5329236,50.393532 81.5670618,51.7163569 81.6353391,52.807029 C81.7036165,53.897701 81.8401692,54.7831838 82.0450013,55.463504 C82.2498334,56.1438242 82.5424464,56.6405584 82.9228489,56.9537217 C83.3032514,57.266885 83.8055703,57.4234642 84.4298206,57.4234642 C85.0540708,57.4234642 85.5563897,57.266885 85.9367922,56.9537217 C86.3171947,56.6405584 86.6098077,56.1438242 86.8146398,55.463504 C87.0194719,54.7831838 87.1560246,53.897701 87.224302,52.807029 C87.2925793,51.7163569 87.3267175,50.393532 87.3267175,48.8385144 C87.3267175,47.2834969 87.2925793,45.9660712 87.224302,44.8861979 C87.1560246,43.8063246 87.0194719,42.9208418 86.8146398,42.2297229 C86.6098077,41.538604 86.3171947,41.0364704 85.9367922,40.7233072 C85.5563897,40.4101439 85.0540708,40.2535646 84.4298206,40.2535646 C83.8055703,40.2535646 83.3032514,40.4101439 82.9228489,40.7233072 C82.5424464,41.0364704 82.2498334,41.538604 82.0450013,42.2297229 C81.8401692,42.9208418 81.7036165,43.8063246 81.6353391,44.8861979 C81.5670618,45.9660712 81.5329236,47.2834969 81.5329236,48.8385144 Z M77.3192553,48.8385144 C77.3192553,47.0891197 77.3924085,45.4747333 77.5387171,43.9953069 C77.6850258,42.5158805 78.0069,41.2470484 78.5043495,40.1887725 C79.0017989,39.1304967 79.7187006,38.304406 80.655076,37.7104757 C81.5914514,37.1165454 82.849687,36.8195847 84.4298206,36.8195847 C86.0099541,36.8195847 87.2681897,37.1165454 88.2045651,37.7104757 C89.1409405,38.304406 89.8578422,39.1304967 90.3552916,40.1887725 C90.8527411,41.2470484 91.1746153,42.5158805 91.320924,43.9953069 C91.4672326,45.4747333 91.5403858,47.0891197 91.5403858,48.8385144 C91.5403858,50.6095066 91.4672326,52.2292923 91.320924,53.69792 C91.1746153,55.1665477 90.8527411,56.4299805 90.3552916,57.4882563 C89.8578422,58.5465321 89.1409405,59.356425 88.2045651,59.9179591 C87.2681897,60.4794932 86.0099541,60.760256 84.4298206,60.760256 C82.849687,60.760256 81.5914514,60.4794932 80.655076,59.9179591 C79.7187006,59.356425 79.0017989,58.5465321 78.5043495,57.4882563 C78.0069,56.4299805 77.6850258,55.1665477 77.5387171,53.69792 C77.3924085,52.2292923 77.3192553,50.6095066 77.3192553,48.8385144 Z M98.8850438,37.2731292 L103.97656,53.1147913 L104.035083,53.1147913 L104.035083,37.2731292 L107.897612,37.2731292 L107.897612,60.4038996 L103.098712,60.4038996 L97.9486731,44.2058811 L97.8901499,44.2058811 L97.8901499,60.4038996 L94.0276206,60.4038996 L94.0276206,37.2731292 Z M115.24227,56.9699197 L117.115012,56.9699197 C117.856309,56.9699197 118.451288,56.8295383 118.899968,56.5487712 C119.348648,56.2680042 119.704661,55.8036656 119.968016,55.1557416 C120.231372,54.5078177 120.40694,53.6547306 120.494725,52.5964547 C120.58251,51.5381789 120.626402,50.2207532 120.626402,48.6441382 C120.626402,47.3266928 120.587387,46.1712457 120.509356,45.1777622 C120.431324,44.1842788 120.270387,43.3581881 120.026539,42.6994654 C119.782692,42.0407427 119.421802,41.5440084 118.943861,41.2092477 C118.465919,40.874487 117.827048,40.7071091 117.027227,40.7071091 L115.24227,40.7071091 Z M111.028602,37.2731292 L117.934336,37.2731292 C119.397423,37.2731292 120.577628,37.5376942 121.474988,38.0668321 C122.372348,38.59597 123.069742,39.35187 123.567191,40.3345547 C124.064641,41.3172394 124.401146,42.4996829 124.576716,43.8819208 C124.752286,45.2641586 124.84007,46.8083542 124.84007,48.5145541 C124.84007,50.5447159 124.727902,52.3102822 124.503562,53.8113061 C124.279222,55.31233 123.893948,56.5487664 123.347729,57.5206523 C122.80151,58.4925383 122.069978,59.2160426 121.15311,59.6911868 C120.236243,60.1663311 119.075545,60.4038996 117.670982,60.4038996 L111.028602,60.4038996 Z M131.394665,48.8385144 C131.394665,50.393532 131.428804,51.7163569 131.497081,52.807029 C131.565358,53.897701 131.701911,54.7831838 131.906743,55.463504 C132.111575,56.1438242 132.404188,56.6405584 132.784591,56.9537217 C133.164993,57.266885 133.667312,57.4234642 134.291562,57.4234642 C134.915813,57.4234642 135.418132,57.266885 135.798534,56.9537217 C136.178937,56.6405584 136.471549,56.1438242 136.676382,55.463504 C136.881214,54.7831838 137.017766,53.897701 137.086044,52.807029 C137.154321,51.7163569 137.188459,50.393532 137.188459,48.8385144 C137.188459,47.2834969 137.154321,45.9660712 137.086044,44.8861979 C137.017766,43.8063246 136.881214,42.9208418 136.676382,42.2297229 C136.471549,41.538604 136.178937,41.0364704 135.798534,40.7233072 C135.418132,40.4101439 134.915813,40.2535646 134.291562,40.2535646 C133.667312,40.2535646 133.164993,40.4101439 132.784591,40.7233072 C132.404188,41.0364704 132.111575,41.538604 131.906743,42.2297229 C131.701911,42.9208418 131.565358,43.8063246 131.497081,44.8861979 C131.428804,45.9660712 131.394665,47.2834969 131.394665,48.8385144 Z M127.180997,48.8385144 C127.180997,47.0891197 127.25415,45.4747333 127.400459,43.9953069 C127.546768,42.5158805 127.868642,41.2470484 128.366091,40.1887725 C128.863541,39.1304967 129.580442,38.304406 130.516818,37.7104757 C131.453193,37.1165454 132.711429,36.8195847 134.291562,36.8195847 C135.871696,36.8195847 137.129931,37.1165454 138.066307,37.7104757 C139.002682,38.304406 139.719584,39.1304967 140.217033,40.1887725 C140.714483,41.2470484 141.036357,42.5158805 141.182666,43.9953069 C141.328974,45.4747333 141.402128,47.0891197 141.402128,48.8385144 C141.402128,50.6095066 141.328974,52.2292923 141.182666,53.69792 C141.036357,55.1665477 140.714483,56.4299805 140.217033,57.4882563 C139.719584,58.5465321 139.002682,59.356425 138.066307,59.9179591 C137.129931,60.4794932 135.871696,60.760256 134.291562,60.760256 C132.711429,60.760256 131.453193,60.4794932 130.516818,59.9179591 C129.580442,59.356425 128.863541,58.5465321 128.366091,57.4882563 C127.868642,56.4299805 127.546768,55.1665477 127.400459,53.69792 C127.25415,52.2292923 127.180997,50.6095066 127.180997,48.8385144 Z M148.746786,37.2731292 L153.838302,53.1147913 L153.896825,53.1147913 L153.896825,37.2731292 L157.759354,37.2731292 L157.759354,60.4038996 L152.960454,60.4038996 L147.810415,44.2058811 L147.751892,44.2058811 L147.751892,60.4038996 L143.889362,60.4038996 L143.889362,37.2731292 Z M148.746786,37.2731292" id="LONDON"></path>
            <path d="M83.1717216,66.9825941 L81.1510487,66.9825941 L81.1510487,67.8281239 L83.1717216,67.8281239 L83.1717216,67.8281239 L83.1717216,66.9825941 L83.1717216,66.9825941 Z M85.5363389,65.6211478 L85.5363389,70.7158232 L86.5251788,70.7158232 L86.5251788,69.1179151 L86.5395099,69.1179151 C86.6446045,69.27078 86.7628342,69.3818443 86.8942024,69.4511112 C87.0255707,69.5203781 87.1844045,69.5550111 87.3707086,69.5550111 C87.7767561,69.5550111 88.0753159,69.39976 88.266397,69.0892531 C88.4574781,68.7787463 88.5530173,68.2652234 88.5530173,67.5486691 C88.5530173,66.8321149 88.4574781,66.3150093 88.266397,65.9973369 C88.0753159,65.6796645 87.7767561,65.5208307 87.3707086,65.5208307 C87.1700735,65.5208307 87.0016857,65.5602406 86.8655404,65.6390616 C86.7293951,65.7178825 86.6063885,65.8480546 86.4965168,66.0295817 L86.4821858,66.0295817 L86.4821858,65.6211478 L86.4821858,65.6211478 L85.5363389,65.6211478 L85.5363389,65.6211478 Z M86.5251788,67.5486691 C86.5251788,67.1282906 86.5574233,66.8118173 86.6219132,66.5992395 C86.6864031,66.3866617 86.8285175,66.2803744 87.0482608,66.2803744 C87.2632271,66.2803744 87.4029531,66.3866617 87.467443,66.5992395 C87.5319329,66.8118173 87.5641773,67.1282906 87.5641773,67.5486691 C87.5641773,67.9690476 87.5319329,68.285521 87.467443,68.4980988 C87.4029531,68.7106766 87.2632271,68.8169638 87.0482608,68.8169638 C86.8285175,68.8169638 86.6864031,68.7106766 86.6219132,68.4980988 C86.5574233,68.285521 86.5251788,67.9690476 86.5251788,67.5486691 C86.5251788,67.5486691 86.5251788,67.9690476 86.5251788,67.5486691 L86.5251788,67.5486691 L86.5251788,67.5486691 Z M89.9789531,67.5486691 C89.9789531,67.352811 89.9837301,67.1712866 89.9932841,67.0040906 C90.0028382,66.8368946 90.0255287,66.6935859 90.0613565,66.5741602 C90.0971842,66.4547345 90.1509249,66.3615838 90.2225804,66.2947054 C90.2942358,66.227827 90.3897749,66.1943884 90.5092006,66.1943884 C90.7098358,66.1943884 90.8483676,66.2994814 90.9248,66.5096707 C91.0012325,66.7198599 91.0394481,67.0661893 91.0394481,67.5486691 C91.0394481,68.031149 91.0012325,68.3774784 90.9248,68.5876676 C90.8483676,68.7978569 90.7098358,68.9029499 90.5092006,68.9029499 C90.3897749,68.9029499 90.2942358,68.8695112 90.2225804,68.8026328 C90.1509249,68.7357544 90.0971842,68.6426038 90.0613565,68.5231781 C90.0255287,68.4037524 90.0028382,68.2604437 89.9932841,68.0932477 C89.9837301,67.9260517 89.9789531,67.7445273 89.9789531,67.5486691 C89.9789531,67.5486691 89.9789531,67.7445273 89.9789531,67.5486691 L89.9789531,67.5486691 L89.9789531,67.5486691 Z M88.9901132,67.5486691 C88.9901132,67.8830611 89.013998,68.1780382 89.0617683,68.4336092 C89.1095385,68.6891803 89.1907468,68.9017548 89.3053955,69.0713393 C89.4200442,69.2409239 89.5752953,69.3651247 89.7711534,69.4439457 C89.9670116,69.5227667 90.2130249,69.5597881 90.5092006,69.5550111 C90.7910453,69.5550111 91.0286989,69.5144069 91.2221686,69.4331974 C91.4156382,69.351988 91.5720835,69.2265928 91.6915093,69.0570083 C91.810935,68.8874238 91.8969202,68.6760435 91.9494675,68.422861 C92.0020148,68.1696785 92.0282881,67.8782841 92.0282881,67.5486691 C92.0282881,67.2095001 92.0044033,66.9133288 91.956633,66.6601463 C91.9088627,66.4069638 91.8276545,66.1943892 91.7130058,66.0224162 C91.5983571,65.8504432 91.443106,65.7226596 91.2472478,65.6390616 C91.0513897,65.5554636 90.8053764,65.5160537 90.5092006,65.5208307 C90.227356,65.5208307 89.9897024,65.5650176 89.7962327,65.6533926 C89.6027631,65.7417676 89.4463177,65.8707454 89.326892,66.04033 C89.2074663,66.2099145 89.1214811,66.4212948 89.0689338,66.6744773 C89.0163864,66.9276598 88.9901132,67.2190542 88.9901132,67.5486691 C88.9901132,67.5486691 88.9901132,67.2190542 88.9901132,67.5486691 L88.9901132,67.5486691 L88.9901132,67.5486691 Z M92.2790808,65.6211478 L93.1174451,69.4761905 L94.2639262,69.4761905 L94.7440152,66.7389669 L94.7583462,66.7389669 L95.2670972,69.4761905 L96.3920817,69.4761905 L97.2232805,65.6211478 L96.2774336,65.6211478 L95.8116757,68.3583714 L95.7973447,68.3583714 L95.2885937,65.6211478 L94.2137677,65.6211478 L93.7336787,68.3583714 L93.7193477,68.3583714 L93.2679208,65.6211478 L93.2679208,65.6211478 L92.2790808,65.6211478 L92.2790808,65.6211478 Z M99.4589187,67.1115732 L98.4485822,67.1115732 L98.4485822,66.9610976 C98.4485822,66.870334 98.4569419,66.7795719 98.4736615,66.6888083 C98.4903811,66.5980448 98.5178486,66.5156423 98.5560648,66.4415983 C98.594281,66.3675544 98.6456333,66.3078424 98.7101232,66.2624607 C98.7746131,66.2170789 98.8570156,66.1943884 98.9573332,66.1943884 C99.0576508,66.1943884 99.1400533,66.2146904 99.2045432,66.2552952 C99.269033,66.2958999 99.3191911,66.3556119 99.3550188,66.4344328 C99.3908465,66.5132538 99.4159255,66.6087929 99.4302566,66.7210531 C99.4445877,66.8333133 99.4541416,66.9634853 99.4589187,67.1115732 C99.4589187,67.1115732 99.4541416,66.9634853 99.4589187,67.1115732 L99.4589187,67.1115732 L99.4589187,67.1115732 Z M98.4485822,67.6991448 L100.404766,67.6991448 L100.404766,67.4770141 C100.404766,67.1808383 100.385658,66.9121345 100.347442,66.6708946 C100.309225,66.4296546 100.237571,66.2242455 100.132476,66.054661 C100.027382,65.8850765 99.8828787,65.7537101 99.6989631,65.6605581 C99.5150475,65.567406 99.2797824,65.5208307 98.9931607,65.5208307 C98.6587687,65.5208307 98.3912591,65.5757657 98.1906239,65.6856374 C97.9899888,65.795509 97.8359319,65.9435947 97.7284488,66.1298988 C97.6209656,66.3162029 97.5493113,66.5287775 97.5134836,66.7676289 C97.4776558,67.0064803 97.4597423,67.2548821 97.4597423,67.5128416 C97.4597423,67.7564701 97.4704904,68.0000949 97.491987,68.2437233 C97.5134837,68.4873518 97.5720014,68.7070918 97.6675419,68.9029499 C97.7630825,69.0988081 97.9111682,69.2564477 98.1118034,69.3758734 C98.3124386,69.4952991 98.5918905,69.5550111 98.9501677,69.5550111 C99.4230935,69.5550111 99.7694229,69.4379756 99.9891662,69.2039012 C100.208909,68.9698268 100.328333,68.6282744 100.347442,68.1792337 L99.4589187,68.1792337 C99.4302565,68.4228622 99.37771,68.6043865 99.3012775,68.7238123 C99.224845,68.843238 99.1030327,68.9029499 98.9358367,68.9029499 C98.8450731,68.9029499 98.7686418,68.8778709 98.7065404,68.8277121 C98.6444391,68.7775533 98.594281,68.7106759 98.5560648,68.6270779 C98.5178486,68.5434799 98.4903811,68.4479408 98.4736615,68.3404576 C98.4569419,68.2329745 98.4485822,68.1219103 98.4485822,68.0072616 C98.4485822,68.0072616 98.4485822,68.1219103 98.4485822,68.0072616 L98.4485822,67.6991448 L98.4485822,67.6991448 Z M100.920682,65.6211478 L100.920682,69.4761905 L101.909522,69.4761905 L101.909522,67.1617318 C101.909522,67.032752 101.931018,66.9240762 101.974012,66.8357012 C102.017005,66.7473262 102.074328,66.6756718 102.145984,66.620736 C102.217639,66.5658002 102.296459,66.5263903 102.382445,66.5025051 C102.468432,66.47862 102.554417,66.4666776 102.640404,66.4666776 C102.692951,66.4666776 102.744303,66.4678718 102.794462,66.4702604 C102.844621,66.4726489 102.895973,66.4762316 102.94852,66.4810086 L102.94852,65.5351617 C102.919858,65.5303847 102.890002,65.526802 102.858952,65.5244135 C102.827901,65.5220249 102.798045,65.5208307 102.769383,65.5208307 C102.563971,65.5208307 102.389612,65.57696 102.246301,65.6892201 C102.10299,65.8014803 101.981178,65.9507602 101.88086,66.1370643 L101.866529,66.1370643 L101.866529,65.6211478 L101.866529,65.6211478 L100.920682,65.6211478 L100.920682,65.6211478 Z M105.162662,67.1115732 L104.152326,67.1115732 L104.152326,66.9610976 C104.152326,66.870334 104.160685,66.7795719 104.177405,66.6888083 C104.194124,66.5980448 104.221592,66.5156423 104.259808,66.4415983 C104.298024,66.3675544 104.349377,66.3078424 104.413867,66.2624607 C104.478357,66.2170789 104.560759,66.1943884 104.661077,66.1943884 C104.761394,66.1943884 104.843797,66.2146904 104.908287,66.2552952 C104.972776,66.2958999 105.022935,66.3556119 105.058762,66.4344328 C105.09459,66.5132538 105.119669,66.6087929 105.134,66.7210531 C105.148331,66.8333133 105.157885,66.9634853 105.162662,67.1115732 C105.162662,67.1115732 105.157885,66.9634853 105.162662,67.1115732 L105.162662,67.1115732 L105.162662,67.1115732 Z M104.152326,67.6991448 L106.108509,67.6991448 L106.108509,67.4770141 C106.108509,67.1808383 106.089401,66.9121345 106.051185,66.6708946 C106.012969,66.4296546 105.941314,66.2242455 105.83622,66.054661 C105.731125,65.8850765 105.586622,65.7537101 105.402707,65.6605581 C105.218791,65.567406 104.983526,65.5208307 104.696904,65.5208307 C104.362512,65.5208307 104.095003,65.5757657 103.894367,65.6856374 C103.693732,65.795509 103.539675,65.9435947 103.432192,66.1298988 C103.324709,66.3162029 103.253055,66.5287775 103.217227,66.7676289 C103.181399,67.0064803 103.163486,67.2548821 103.163486,67.5128416 C103.163486,67.7564701 103.174234,68.0000949 103.19573,68.2437233 C103.217227,68.4873518 103.275745,68.7070918 103.371285,68.9029499 C103.466826,69.0988081 103.614912,69.2564477 103.815547,69.3758734 C104.016182,69.4952991 104.295634,69.5550111 104.653911,69.5550111 C105.126837,69.5550111 105.473166,69.4379756 105.69291,69.2039012 C105.912653,68.9698268 106.032077,68.6282744 106.051185,68.1792337 L105.162662,68.1792337 C105.134,68.4228622 105.081453,68.6043865 105.005021,68.7238123 C104.928588,68.843238 104.806776,68.9029499 104.63958,68.9029499 C104.548817,68.9029499 104.472385,68.8778709 104.410284,68.8277121 C104.348182,68.7775533 104.298024,68.7106759 104.259808,68.6270779 C104.221592,68.5434799 104.194124,68.4479408 104.177405,68.3404576 C104.160685,68.2329745 104.152326,68.1219103 104.152326,68.0072616 C104.152326,68.0072616 104.152326,68.1219103 104.152326,68.0072616 L104.152326,67.6991448 L104.152326,67.6991448 Z M108.602105,69.0677566 L108.602105,69.4761905 L109.547952,69.4761905 L109.547952,64.3600186 L108.559112,64.3600186 L108.559112,65.9794231 L108.544781,65.9794231 C108.439687,65.8265582 108.321457,65.7119113 108.190089,65.6354788 C108.05872,65.5590464 107.899887,65.5208307 107.713583,65.5208307 C107.307535,65.5208307 107.008975,65.6796645 106.817894,65.9973369 C106.626813,66.3150093 106.531274,66.8321149 106.531274,67.5486691 C106.531274,68.2652234 106.626813,68.7787463 106.817894,69.0892531 C107.008975,69.39976 107.307535,69.5550111 107.713583,69.5550111 C107.914218,69.5550111 108.082605,69.5191839 108.218751,69.4475284 C108.354896,69.375873 108.477903,69.2492837 108.587774,69.0677566 C108.587774,69.0677566 108.477903,69.2492837 108.587774,69.0677566 L108.602105,69.0677566 L108.602105,69.0677566 Z M107.520114,67.5486691 C107.520114,67.1282906 107.552358,66.8118173 107.616848,66.5992395 C107.681338,66.3866617 107.821064,66.2803744 108.03603,66.2803744 C108.255774,66.2803744 108.397888,66.3866617 108.462378,66.5992395 C108.526868,66.8118173 108.559112,67.1282906 108.559112,67.5486691 C108.559112,67.9690476 108.526868,68.285521 108.462378,68.4980988 C108.397888,68.7106766 108.255774,68.8169638 108.03603,68.8169638 C107.821064,68.8169638 107.681338,68.7106766 107.616848,68.4980988 C107.552358,68.285521 107.520114,67.9690476 107.520114,67.5486691 C107.520114,67.5486691 107.520114,67.9690476 107.520114,67.5486691 L107.520114,67.5486691 L107.520114,67.5486691 Z M111.926901,64.3600186 L111.926901,69.4761905 L112.872747,69.4761905 L112.872747,69.0677566 L112.887078,69.0677566 C112.99695,69.2492837 113.119957,69.375873 113.256102,69.4475284 C113.392247,69.5191839 113.560635,69.5550111 113.76127,69.5550111 C114.167318,69.5550111 114.465877,69.39976 114.656959,69.0892531 C114.84804,68.7787463 114.943579,68.2652234 114.943579,67.5486691 C114.943579,66.8321149 114.84804,66.3150093 114.656959,65.9973369 C114.465877,65.6796645 114.167318,65.5208307 113.76127,65.5208307 C113.574966,65.5208307 113.416132,65.5590464 113.284764,65.6354788 C113.153396,65.7119113 113.035166,65.8265582 112.930071,65.9794231 L112.91574,65.9794231 L112.91574,64.3600186 L112.91574,64.3600186 L111.926901,64.3600186 L111.926901,64.3600186 Z M112.91574,67.5486691 C112.91574,67.1282906 112.947985,66.8118173 113.012475,66.5992395 C113.076965,66.3866617 113.219079,66.2803744 113.438822,66.2803744 C113.653789,66.2803744 113.793515,66.3866617 113.858005,66.5992395 C113.922494,66.8118173 113.954739,67.1282906 113.954739,67.5486691 C113.954739,67.9690476 113.922494,68.285521 113.858005,68.4980988 C113.793515,68.7106766 113.653789,68.8169638 113.438822,68.8169638 C113.219079,68.8169638 113.076965,68.7106766 113.012475,68.4980988 C112.947985,68.285521 112.91574,67.9690476 112.91574,67.5486691 C112.91574,67.5486691 112.91574,67.9690476 112.91574,67.5486691 L112.91574,67.5486691 L112.91574,67.5486691 Z M115.509654,69.977776 L115.509654,70.7158232 L115.910922,70.7158232 C116.14022,70.7158232 116.330104,70.6991038 116.48058,70.6656646 C116.631057,70.6322254 116.760034,70.5617653 116.867517,70.4542822 C116.975001,70.346799 117.068151,70.1939364 117.146972,69.9956897 C117.225793,69.797443 117.308196,69.5382931 117.394182,69.2182322 L118.325698,65.6211478 L117.336858,65.6211478 L116.835273,68.2867163 L116.820942,68.2867163 L116.247701,65.6211478 L115.215868,65.6211478 L116.29786,69.4761905 C116.283529,69.6338324 116.236953,69.7604218 116.158132,69.8559623 C116.079311,69.9515029 115.949139,69.9992725 115.767612,69.9992725 C115.681626,69.9992725 115.59564,69.992107 115.509654,69.977776 C115.509654,69.977776 115.59564,69.992107 115.509654,69.977776 L115.509654,69.977776 L115.509654,69.977776 Z M121.270721,67.8782825 L120.238888,67.8782825 L120.238888,68.0860822 C120.238888,68.559008 120.364284,68.9220567 120.615078,69.1752392 C120.865872,69.4284217 121.282661,69.5550111 121.865458,69.5550111 C122.424371,69.5550111 122.860268,69.4320044 123.173163,69.1859874 C123.486059,68.9399705 123.642504,68.5470658 123.642504,68.0072616 C123.642504,67.8496196 123.628173,67.7063109 123.599511,67.5773312 C123.570849,67.4483514 123.519497,67.3301217 123.445453,67.2226386 C123.371409,67.1151554 123.272287,67.0148393 123.148084,66.9216873 C123.023881,66.8285352 122.863853,66.7389673 122.667995,66.6529808 L121.872624,66.3090365 C121.652881,66.2182729 121.509572,66.1191511 121.442694,66.0116679 C121.375815,65.9041848 121.342376,65.7716242 121.342376,65.6139823 C121.342376,65.5375498 121.350736,65.463507 121.367456,65.3918516 C121.384175,65.3201962 121.415226,65.2569015 121.460607,65.2019657 C121.505989,65.1470298 121.566895,65.102843 121.643328,65.0694038 C121.71976,65.0359646 121.815299,65.0192452 121.929948,65.0192452 C122.130583,65.0192452 122.273892,65.0849284 122.359878,65.2162967 C122.445865,65.347665 122.488858,65.5351605 122.488858,65.778789 L123.477698,65.778789 L123.477698,65.6354788 C123.477698,65.3918504 123.438288,65.1828585 123.359467,65.008497 C123.280646,64.8341354 123.170776,64.6908267 123.029853,64.5785666 C122.888931,64.4663064 122.721738,64.3850981 122.528268,64.3349393 C122.334798,64.2847805 122.123418,64.2597015 121.894121,64.2597015 C121.402087,64.2597015 121.015153,64.3839024 120.733308,64.6323079 C120.451464,64.8807133 120.310544,65.2580929 120.310544,65.7644579 C120.310544,65.9746472 120.336817,66.1597543 120.389364,66.3197847 C120.441911,66.4798152 120.524314,66.6207354 120.636574,66.7425496 C120.748834,66.8643638 120.88856,66.9706511 121.055756,67.0614147 C121.222952,67.1521782 121.421196,67.235775 121.650493,67.3122074 C121.822466,67.3695318 121.966969,67.425661 122.084006,67.4805968 C122.201044,67.5355327 122.295389,67.5964389 122.367044,67.6633173 C122.438699,67.7301956 122.490052,67.8054327 122.521102,67.8890307 C122.552153,67.9726287 122.567678,68.0717506 122.567678,68.1863992 C122.567678,68.4013655 122.504383,68.5601993 122.377792,68.6629055 C122.251201,68.7656116 122.109087,68.8169638 121.951445,68.8169638 C121.817688,68.8169638 121.706624,68.797856 121.618249,68.7596398 C121.529873,68.7214236 121.459413,68.668877 121.406866,68.6019986 C121.354319,68.5351202 121.318492,68.4527177 121.299383,68.3547887 C121.280275,68.2568596 121.270721,68.1481838 121.270721,68.0287581 C121.270721,68.0287581 121.270721,68.1481838 121.270721,68.0287581 L121.270721,67.8782825 L121.270721,67.8782825 Z M124.344724,64.5176598 L124.344724,65.6211478 L123.843138,65.6211478 L123.843138,66.2947054 L124.344724,66.2947054 L124.344724,68.5016815 C124.344724,68.6975397 124.356666,68.8599562 124.380551,68.988936 C124.404437,69.1179158 124.448623,69.2218146 124.513113,69.3006356 C124.577603,69.3794565 124.670754,69.4320031 124.792568,69.4582767 C124.914382,69.4845504 125.070828,69.497687 125.261909,69.497687 C125.376557,69.497687 125.485233,69.4941043 125.587939,69.4869387 C125.690645,69.4797732 125.796933,69.4761905 125.906804,69.4761905 L125.906804,68.7883018 C125.873365,68.7930788 125.837538,68.7966616 125.799322,68.7990501 C125.761106,68.8014386 125.72289,68.8026328 125.684674,68.8026328 C125.541363,68.8026328 125.447018,68.7703884 125.401636,68.7058985 C125.356254,68.6414086 125.333564,68.5327328 125.333564,68.3798679 L125.333564,66.2947054 L125.906804,66.2947054 L125.906804,65.6211478 L125.333564,65.6211478 L125.333564,64.5176598 L125.333564,64.5176598 L124.344724,64.5176598 L124.344724,64.5176598 Z M128.049291,67.5486691 L128.049291,68.3082129 C128.049291,68.4133075 128.030183,68.5040697 127.991967,68.5805021 C127.953751,68.6569346 127.904787,68.719035 127.845074,68.7668053 C127.785361,68.8145756 127.719678,68.8492085 127.648022,68.8707051 C127.576367,68.8922018 127.507101,68.9029499 127.440223,68.9029499 C127.306466,68.9029499 127.210927,68.8504034 127.153603,68.7453088 C127.096278,68.6402142 127.067616,68.5136248 127.067616,68.3655369 C127.067616,68.1935639 127.110609,68.0574206 127.196596,67.957103 C127.282582,67.8567854 127.425891,67.7851311 127.626526,67.7421378 C127.688627,67.7278067 127.757893,67.7051162 127.834326,67.6740655 C127.910758,67.6430148 127.982412,67.6012165 128.049291,67.5486691 C128.049291,67.5486691 127.982412,67.6012165 128.049291,67.5486691 L128.049291,67.5486691 L128.049291,67.5486691 Z M126.243583,66.8034564 L127.132106,66.8034564 L127.132106,66.6959738 C127.132106,66.5431089 127.170322,66.4212965 127.246754,66.330533 C127.323187,66.2397694 127.437834,66.1943884 127.590698,66.1943884 C127.757894,66.1943884 127.876124,66.2361867 127.945391,66.3197847 C128.014658,66.4033827 128.049291,66.5192239 128.049291,66.6673118 C128.049291,66.7962916 128.020629,66.8942192 127.963305,66.9610976 C127.90598,67.027976 127.803276,67.0805225 127.655188,67.1187387 L127.096278,67.2692144 C126.924305,67.3169847 126.777414,67.3719197 126.6556,67.434021 C126.533786,67.4961224 126.433469,67.5737479 126.354649,67.6669 C126.275828,67.7600521 126.21731,67.8723105 126.179094,68.0036788 C126.140877,68.1350471 126.12177,68.2914924 126.12177,68.4730195 C126.12177,68.6019993 126.138489,68.7321714 126.171928,68.8635396 C126.205367,68.9949079 126.257914,69.1131376 126.329569,69.2182322 C126.401225,69.3233269 126.496764,69.4057294 126.61619,69.4654422 C126.735615,69.5251551 126.881312,69.5550111 127.053285,69.5550111 C127.292137,69.5550111 127.486798,69.5251551 127.637274,69.4654422 C127.787751,69.4057294 127.920311,69.2755573 128.03496,69.0749221 L128.049291,69.0749221 C128.063622,69.1418005 128.079147,69.2098721 128.095867,69.279139 C128.112586,69.348406 128.137665,69.4140891 128.171104,69.4761905 L129.116951,69.4761905 C129.069181,69.3615418 129.036937,69.2540603 129.020217,69.1537427 C129.003497,69.0534251 128.995138,68.9125048 128.995138,68.7309778 L128.995138,66.7031393 C128.995138,66.5311663 128.977224,66.3723325 128.941396,66.2266331 C128.905569,66.0809338 128.837497,65.9555386 128.73718,65.850444 C128.636862,65.7453494 128.495942,65.6641411 128.314415,65.6068168 C128.132888,65.5494925 127.89404,65.5208307 127.597864,65.5208307 C127.41156,65.5208307 127.236007,65.5411328 127.071199,65.5817375 C126.906392,65.6223423 126.763083,65.6892197 126.641269,65.7823717 C126.519455,65.8755238 126.422721,65.9973362 126.351066,66.1478126 C126.27941,66.298289 126.243583,66.4857845 126.243583,66.7103048 C126.243583,66.7103048 126.243583,66.4857845 126.243583,66.7103048 L126.243583,66.8034564 L126.243583,66.8034564 Z M129.697357,65.6211478 L129.697357,69.4761905 L130.686197,69.4761905 L130.686197,67.1617318 C130.686197,67.032752 130.707694,66.9240762 130.750687,66.8357012 C130.79368,66.7473262 130.851004,66.6756718 130.922659,66.620736 C130.994315,66.5658002 131.073134,66.5263903 131.159121,66.5025051 C131.245107,66.47862 131.331093,66.4666776 131.417079,66.4666776 C131.469626,66.4666776 131.520979,66.4678718 131.571137,66.4702604 C131.621296,66.4726489 131.672649,66.4762316 131.725196,66.4810086 L131.725196,65.5351617 C131.696534,65.5303847 131.666678,65.526802 131.635627,65.5244135 C131.604576,65.5220249 131.57472,65.5208307 131.546058,65.5208307 C131.340646,65.5208307 131.166287,65.57696 131.022976,65.6892201 C130.879665,65.8014803 130.757853,65.9507602 130.657535,66.1370643 L130.643204,66.1370643 L130.643204,65.6211478 L130.643204,65.6211478 L129.697357,65.6211478 L129.697357,65.6211478 Z M132.298436,64.5176598 L132.298436,65.6211478 L131.796851,65.6211478 L131.796851,66.2947054 L132.298436,66.2947054 L132.298436,68.5016815 C132.298436,68.6975397 132.310379,68.8599562 132.334264,68.988936 C132.358149,69.1179158 132.402336,69.2218146 132.466826,69.3006356 C132.531316,69.3794565 132.624466,69.4320031 132.746281,69.4582767 C132.868095,69.4845504 133.02454,69.497687 133.215621,69.497687 C133.33027,69.497687 133.438946,69.4941043 133.541652,69.4869387 C133.644358,69.4797732 133.750645,69.4761905 133.860517,69.4761905 L133.860517,68.7883018 C133.827078,68.7930788 133.791251,68.7966616 133.753034,68.7990501 C133.714818,68.8014386 133.676602,68.8026328 133.638386,68.8026328 C133.495075,68.8026328 133.40073,68.7703884 133.355349,68.7058985 C133.309967,68.6414086 133.287276,68.5327328 133.287276,68.3798679 L133.287276,66.2947054 L133.860517,66.2947054 L133.860517,65.6211478 L133.287276,65.6211478 L133.287276,64.5176598 L133.287276,64.5176598 L132.298436,64.5176598 L132.298436,64.5176598 Z M136.182141,69.0247635 L136.182141,69.4761905 L137.127988,69.4761905 L137.127988,65.6211478 L136.139148,65.6211478 L136.139148,68.1792337 C136.139148,68.6043893 135.964789,68.8169638 135.616066,68.8169638 C135.467978,68.8169638 135.360497,68.777554 135.293618,68.698733 C135.22674,68.619912 135.193301,68.480186 135.193301,68.2795508 L135.193301,65.6211478 L134.204461,65.6211478 L134.204461,68.480185 C134.204461,68.8671243 134.289252,69.1429936 134.458837,69.3078011 C134.628421,69.4726085 134.870852,69.5550111 135.186136,69.5550111 C135.401102,69.5550111 135.59218,69.5144069 135.759376,69.4331974 C135.926572,69.351988 136.062715,69.2158447 136.16781,69.0247635 C136.16781,69.0247635 136.062715,69.2158447 136.16781,69.0247635 L136.182141,69.0247635 L136.182141,69.0247635 Z M137.787215,65.6211478 L137.787215,70.7158232 L138.776055,70.7158232 L138.776055,69.1179151 L138.790386,69.1179151 C138.89548,69.27078 139.01371,69.3818443 139.145078,69.4511112 C139.276446,69.5203781 139.43528,69.5550111 139.621584,69.5550111 C140.027632,69.5550111 140.326192,69.39976 140.517273,69.0892531 C140.708354,68.7787463 140.803893,68.2652234 140.803893,67.5486691 C140.803893,66.8321149 140.708354,66.3150093 140.517273,65.9973369 C140.326192,65.6796645 140.027632,65.5208307 139.621584,65.5208307 C139.420949,65.5208307 139.252561,65.5602406 139.116416,65.6390616 C138.980271,65.7178825 138.857264,65.8480546 138.747393,66.0295817 L138.733062,66.0295817 L138.733062,65.6211478 L138.733062,65.6211478 L137.787215,65.6211478 L137.787215,65.6211478 Z M138.776055,67.5486691 C138.776055,67.1282906 138.808299,66.8118173 138.872789,66.5992395 C138.937279,66.3866617 139.079393,66.2803744 139.299137,66.2803744 C139.514103,66.2803744 139.653829,66.3866617 139.718319,66.5992395 C139.782809,66.8118173 139.815053,67.1282906 139.815053,67.5486691 C139.815053,67.9690476 139.782809,68.285521 139.718319,68.4980988 C139.653829,68.7106766 139.514103,68.8169638 139.299137,68.8169638 C139.079393,68.8169638 138.937279,68.7106766 138.872789,68.4980988 C138.808299,68.285521 138.776055,67.9690476 138.776055,67.5486691 C138.776055,67.5486691 138.776055,67.9690476 138.776055,67.5486691 L138.776055,67.5486691 L138.776055,67.5486691 Z M145.303831,66.0869057 L146.335664,66.0869057 C146.335664,65.9006016 146.322528,65.7011637 146.296254,65.4885859 C146.26998,65.2760082 146.204297,65.0777645 146.099203,64.8938489 C145.994108,64.7099333 145.835274,64.5582649 145.622696,64.4388392 C145.410119,64.3194135 145.119918,64.2597015 144.752087,64.2597015 C144.365148,64.2597015 144.057034,64.3253847 143.827737,64.4567529 C143.59844,64.5881212 143.422886,64.7708398 143.301072,65.0049142 C143.179258,65.2389886 143.100438,65.5196348 143.06461,65.8468613 C143.028783,66.1740877 143.010869,66.5311652 143.010869,66.9181045 C143.010869,67.3098209 143.028783,67.6680926 143.06461,67.9929306 C143.100438,68.3177685 143.179258,68.5972205 143.301072,68.8312949 C143.422886,69.0653693 143.59844,69.2445051 143.827737,69.3687079 C144.057034,69.4929106 144.365148,69.5550111 144.752087,69.5550111 C145.091256,69.5550111 145.367126,69.5024645 145.579703,69.3973699 C145.792281,69.2922753 145.957086,69.1465781 146.074123,68.960274 C146.19116,68.7739699 146.271175,68.5566183 146.314168,68.3082129 C146.357161,68.0598074 146.378657,67.7970748 146.378657,67.5200071 L145.346824,67.5200071 C145.346824,67.7970748 145.330105,68.0203975 145.296666,68.189982 C145.263227,68.3595665 145.217846,68.4909328 145.160521,68.5840849 C145.103197,68.6772369 145.035125,68.7393374 144.956304,68.7703881 C144.877483,68.8014387 144.792692,68.8169638 144.701929,68.8169638 C144.592057,68.8169638 144.495324,68.7942733 144.411726,68.7488915 C144.328128,68.7035098 144.258862,68.6151361 144.203926,68.4837678 C144.14899,68.3523995 144.108386,68.1672924 144.082112,67.928441 C144.055839,67.6895896 144.042702,67.3766989 144.042702,66.9897596 C144.042702,66.6267054 144.052256,66.319786 144.071364,66.068992 C144.090472,65.818198 144.123911,65.6151773 144.171681,65.4599239 C144.219452,65.3046705 144.285135,65.192412 144.368733,65.1231451 C144.452331,65.0538782 144.558618,65.0192452 144.687598,65.0192452 C144.921672,65.0192452 145.082894,65.1040362 145.171269,65.2736207 C145.259644,65.4432052 145.303831,65.7142975 145.303831,66.0869057 C145.303831,66.0869057 145.303831,65.7142975 145.303831,66.0869057 L145.303831,66.0869057 L145.303831,66.0869057 Z M148.736109,67.5486691 L148.736109,68.3082129 C148.736109,68.4133075 148.717001,68.5040697 148.678785,68.5805021 C148.640569,68.6569346 148.591605,68.719035 148.531892,68.7668053 C148.472179,68.8145756 148.406496,68.8492085 148.334841,68.8707051 C148.263185,68.8922018 148.193919,68.9029499 148.127041,68.9029499 C147.993284,68.9029499 147.897745,68.8504034 147.840421,68.7453088 C147.783096,68.6402142 147.754435,68.5136248 147.754435,68.3655369 C147.754435,68.1935639 147.797427,68.0574206 147.883414,67.957103 C147.9694,67.8567854 148.112709,67.7851311 148.313344,67.7421378 C148.375446,67.7278067 148.444711,67.7051162 148.521144,67.6740655 C148.597576,67.6430148 148.669231,67.6012165 148.736109,67.5486691 C148.736109,67.5486691 148.669231,67.6012165 148.736109,67.5486691 L148.736109,67.5486691 L148.736109,67.5486691 Z M146.930401,66.8034564 L147.818924,66.8034564 L147.818924,66.6959738 C147.818924,66.5431089 147.85714,66.4212965 147.933572,66.330533 C148.010005,66.2397694 148.124652,66.1943884 148.277517,66.1943884 C148.444713,66.1943884 148.562942,66.2361867 148.632209,66.3197847 C148.701476,66.4033827 148.736109,66.5192239 148.736109,66.6673118 C148.736109,66.7962916 148.707447,66.8942192 148.650123,66.9610976 C148.592799,67.027976 148.490094,67.0805225 148.342006,67.1187387 L147.783097,67.2692144 C147.611124,67.3169847 147.464232,67.3719197 147.342418,67.434021 C147.220604,67.4961224 147.120288,67.5737479 147.041467,67.6669 C146.962646,67.7600521 146.904128,67.8723105 146.865912,68.0036788 C146.827696,68.1350471 146.808588,68.2914924 146.808588,68.4730195 C146.808588,68.6019993 146.825307,68.7321714 146.858746,68.8635396 C146.892185,68.9949079 146.944732,69.1131376 147.016387,69.2182322 C147.088043,69.3233269 147.183582,69.4057294 147.303008,69.4654422 C147.422433,69.5251551 147.568131,69.5550111 147.740104,69.5550111 C147.978955,69.5550111 148.173616,69.5251551 148.324092,69.4654422 C148.474569,69.4057294 148.607129,69.2755573 148.721778,69.0749221 L148.736109,69.0749221 C148.75044,69.1418005 148.765965,69.2098721 148.782685,69.279139 C148.799404,69.348406 148.824483,69.4140891 148.857923,69.4761905 L149.80377,69.4761905 C149.755999,69.3615418 149.723755,69.2540603 149.707035,69.1537427 C149.690316,69.0534251 149.681956,68.9125048 149.681956,68.7309778 L149.681956,66.7031393 C149.681956,66.5311663 149.664042,66.3723325 149.628215,66.2266331 C149.592387,66.0809338 149.524315,65.9555386 149.423998,65.850444 C149.32368,65.7453494 149.18276,65.6641411 149.001233,65.6068168 C148.819706,65.5494925 148.580858,65.5208307 148.284682,65.5208307 C148.098378,65.5208307 147.922825,65.5411328 147.758017,65.5817375 C147.59321,65.6223423 147.449901,65.6892197 147.328087,65.7823717 C147.206273,65.8755238 147.109539,65.9973362 147.037884,66.1478126 C146.966229,66.298289 146.930401,66.4857845 146.930401,66.7103048 C146.930401,66.7103048 146.930401,66.4857845 146.930401,66.7103048 L146.930401,66.8034564 L146.930401,66.8034564 Z M150.384176,65.6211478 L150.384176,69.4761905 L151.373016,69.4761905 L151.373016,66.9181045 C151.373016,66.492949 151.547375,66.2803744 151.896098,66.2803744 C152.044185,66.2803744 152.151667,66.3197843 152.218545,66.3986053 C152.285424,66.4774263 152.318862,66.6171523 152.318862,66.8177874 L152.318862,69.4761905 L153.307702,69.4761905 L153.307702,66.6171533 C153.307702,66.230214 153.222911,65.950762 153.053327,65.778789 C152.883742,65.6068159 152.641312,65.5208307 152.326028,65.5208307 C152.111062,65.5208307 151.919983,65.5650176 151.752787,65.6533926 C151.585591,65.7417676 151.449448,65.8814936 151.344354,66.0725747 L151.330023,66.0725747 L151.330023,65.6211478 L151.330023,65.6211478 L150.384176,65.6211478 L150.384176,65.6211478 Z M155.765471,67.5486691 L155.765471,68.3082129 C155.765471,68.4133075 155.746363,68.5040697 155.708147,68.5805021 C155.669931,68.6569346 155.620967,68.719035 155.561254,68.7668053 C155.501541,68.8145756 155.435858,68.8492085 155.364203,68.8707051 C155.292547,68.8922018 155.223282,68.9029499 155.156403,68.9029499 C155.022646,68.9029499 154.927107,68.8504034 154.869783,68.7453088 C154.812459,68.6402142 154.783797,68.5136248 154.783797,68.3655369 C154.783797,68.1935639 154.826789,68.0574206 154.912776,67.957103 C154.998762,67.8567854 155.142071,67.7851311 155.342706,67.7421378 C155.404808,67.7278067 155.474074,67.7051162 155.550506,67.6740655 C155.626939,67.6430148 155.698593,67.6012165 155.765471,67.5486691 C155.765471,67.5486691 155.698593,67.6012165 155.765471,67.5486691 L155.765471,67.5486691 L155.765471,67.5486691 Z M153.959764,66.8034564 L154.848286,66.8034564 L154.848286,66.6959738 C154.848286,66.5431089 154.886502,66.4212965 154.962935,66.330533 C155.039367,66.2397694 155.154014,66.1943884 155.306879,66.1943884 C155.474075,66.1943884 155.592305,66.2361867 155.661571,66.3197847 C155.730838,66.4033827 155.765471,66.5192239 155.765471,66.6673118 C155.765471,66.7962916 155.73681,66.8942192 155.679485,66.9610976 C155.622161,67.027976 155.519456,67.0805225 155.371368,67.1187387 L154.812459,67.2692144 C154.640486,67.3169847 154.493594,67.3719197 154.37178,67.434021 C154.249966,67.4961224 154.14965,67.5737479 154.070829,67.6669 C153.992008,67.7600521 153.93349,67.8723105 153.895274,68.0036788 C153.857058,68.1350471 153.83795,68.2914924 153.83795,68.4730195 C153.83795,68.6019993 153.854669,68.7321714 153.888108,68.8635396 C153.921548,68.9949079 153.974094,69.1131376 154.04575,69.2182322 C154.117405,69.3233269 154.212944,69.4057294 154.33237,69.4654422 C154.451796,69.5251551 154.597493,69.5550111 154.769466,69.5550111 C155.008317,69.5550111 155.202978,69.5251551 155.353455,69.4654422 C155.503931,69.4057294 155.636492,69.2755573 155.75114,69.0749221 L155.765471,69.0749221 C155.779802,69.1418005 155.795327,69.2098721 155.812047,69.279139 C155.828767,69.348406 155.853846,69.4140891 155.887285,69.4761905 L156.833132,69.4761905 C156.785361,69.3615418 156.753117,69.2540603 156.736397,69.1537427 C156.719678,69.0534251 156.711318,68.9125048 156.711318,68.7309778 L156.711318,66.7031393 C156.711318,66.5311663 156.693405,66.3723325 156.657577,66.2266331 C156.621749,66.0809338 156.553678,65.9555386 156.45336,65.850444 C156.353042,65.7453494 156.212122,65.6641411 156.030595,65.6068168 C155.849068,65.5494925 155.61022,65.5208307 155.314044,65.5208307 C155.12774,65.5208307 154.952187,65.5411328 154.78738,65.5817375 C154.622572,65.6223423 154.479263,65.6892197 154.357449,65.7823717 C154.235635,65.8755238 154.138902,65.9973362 154.067246,66.1478126 C153.995591,66.298289 153.959764,66.4857845 153.959764,66.7103048 C153.959764,66.7103048 153.959764,66.4857845 153.959764,66.7103048 L153.959764,66.8034564 L153.959764,66.8034564 Z M159.391218,69.0677566 L159.391218,69.4761905 L160.337065,69.4761905 L160.337065,64.3600186 L159.348225,64.3600186 L159.348225,65.9794231 L159.333894,65.9794231 C159.228799,65.8265582 159.110569,65.7119113 158.979201,65.6354788 C158.847833,65.5590464 158.688999,65.5208307 158.502695,65.5208307 C158.096647,65.5208307 157.798088,65.6796645 157.607007,65.9973369 C157.415925,66.3150093 157.320386,66.8321149 157.320386,67.5486691 C157.320386,68.2652234 157.415925,68.7787463 157.607007,69.0892531 C157.798088,69.39976 158.096647,69.5550111 158.502695,69.5550111 C158.70333,69.5550111 158.871718,69.5191839 159.007863,69.4475284 C159.144008,69.375873 159.267015,69.2492837 159.376887,69.0677566 C159.376887,69.0677566 159.267015,69.2492837 159.376887,69.0677566 L159.391218,69.0677566 L159.391218,69.0677566 Z M158.309226,67.5486691 C158.309226,67.1282906 158.341471,66.8118173 158.405961,66.5992395 C158.47045,66.3866617 158.610176,66.2803744 158.825143,66.2803744 C159.044886,66.2803744 159.187,66.3866617 159.25149,66.5992395 C159.31598,66.8118173 159.348225,67.1282906 159.348225,67.5486691 C159.348225,67.9690476 159.31598,68.285521 159.25149,68.4980988 C159.187,68.7106766 159.044886,68.8169638 158.825143,68.8169638 C158.610176,68.8169638 158.47045,68.7106766 158.405961,68.4980988 C158.341471,68.285521 158.309226,67.9690476 158.309226,67.5486691 C158.309226,67.5486691 158.309226,67.9690476 158.309226,67.5486691 L158.309226,67.5486691 L158.309226,67.5486691 Z M162.794833,67.5486691 L162.794833,68.3082129 C162.794833,68.4133075 162.775726,68.5040697 162.737509,68.5805021 C162.699293,68.6569346 162.650329,68.719035 162.590617,68.7668053 C162.530904,68.8145756 162.465221,68.8492085 162.393565,68.8707051 C162.32191,68.8922018 162.252644,68.9029499 162.185765,68.9029499 C162.052009,68.9029499 161.956469,68.8504034 161.899145,68.7453088 C161.841821,68.6402142 161.813159,68.5136248 161.813159,68.3655369 C161.813159,68.1935639 161.856152,68.0574206 161.942138,67.957103 C162.028125,67.8567854 162.171433,67.7851311 162.372069,67.7421378 C162.43417,67.7278067 162.503436,67.7051162 162.579868,67.6740655 C162.656301,67.6430148 162.727955,67.6012165 162.794833,67.5486691 C162.794833,67.5486691 162.727955,67.6012165 162.794833,67.5486691 L162.794833,67.5486691 L162.794833,67.5486691 Z M160.989126,66.8034564 L161.877649,66.8034564 L161.877649,66.6959738 C161.877649,66.5431089 161.915864,66.4212965 161.992297,66.330533 C162.068729,66.2397694 162.183376,66.1943884 162.336241,66.1943884 C162.503437,66.1943884 162.621667,66.2361867 162.690934,66.3197847 C162.760201,66.4033827 162.794833,66.5192239 162.794833,66.6673118 C162.794833,66.7962916 162.766172,66.8942192 162.708847,66.9610976 C162.651523,67.027976 162.548818,67.0805225 162.400731,67.1187387 L161.841821,67.2692144 C161.669848,67.3169847 161.522957,67.3719197 161.401142,67.434021 C161.279328,67.4961224 161.179012,67.5737479 161.100191,67.6669 C161.02137,67.7600521 160.962852,67.8723105 160.924636,68.0036788 C160.88642,68.1350471 160.867312,68.2914924 160.867312,68.4730195 C160.867312,68.6019993 160.884031,68.7321714 160.917471,68.8635396 C160.95091,68.9949079 161.003456,69.1131376 161.075112,69.2182322 C161.146767,69.3233269 161.242306,69.4057294 161.361732,69.4654422 C161.481158,69.5251551 161.626855,69.5550111 161.798828,69.5550111 C162.037679,69.5550111 162.23234,69.5251551 162.382817,69.4654422 C162.533293,69.4057294 162.665854,69.2755573 162.780502,69.0749221 L162.794833,69.0749221 C162.809165,69.1418005 162.82469,69.2098721 162.841409,69.279139 C162.858129,69.348406 162.883208,69.4140891 162.916647,69.4761905 L163.862494,69.4761905 C163.814724,69.3615418 163.782479,69.2540603 163.76576,69.1537427 C163.74904,69.0534251 163.74068,68.9125048 163.74068,68.7309778 L163.74068,66.7031393 C163.74068,66.5311663 163.722767,66.3723325 163.686939,66.2266331 C163.651111,66.0809338 163.58304,65.9555386 163.482722,65.850444 C163.382405,65.7453494 163.241484,65.6641411 163.059957,65.6068168 C162.87843,65.5494925 162.639582,65.5208307 162.343407,65.5208307 C162.157102,65.5208307 161.981549,65.5411328 161.816742,65.5817375 C161.651934,65.6223423 161.508626,65.6892197 161.386811,65.7823717 C161.264997,65.8755238 161.168264,65.9973362 161.096608,66.1478126 C161.024953,66.298289 160.989126,66.4857845 160.989126,66.7103048 C160.989126,66.7103048 160.989126,66.4857845 160.989126,66.7103048 L160.989126,66.8034564 L160.989126,66.8034564 Z M160.989126,66.8034564" id="- powered by Startup"></path>
            <path d="M162.075129,57.4600433 L160.209675,57.4600433 L160.209675,57.9427706 L160.847857,57.9427706 L160.847857,60.3809524 L161.436948,60.3809524 L161.436948,57.9427706 L162.075129,57.9427706 L162.075129,57.9427706 L162.075129,57.4600433 L162.075129,57.4600433 Z M162.341038,57.4600433 L162.341038,60.3809524 L162.881038,60.3809524 L162.881038,58.0491342 L162.88922,58.0491342 L163.408766,60.3809524 L163.866948,60.3809524 L164.386493,58.0491342 L164.394675,58.0491342 L164.394675,60.3809524 L164.934675,60.3809524 L164.934675,57.4600433 L164.063311,57.4600433 L163.641948,59.5218615 L163.633766,59.5218615 L163.216493,57.4600433 L163.216493,57.4600433 L162.341038,57.4600433 L162.341038,57.4600433 Z M162.341038,57.4600433" id="TM"></path>
        </g>
    </g>
</svg>