<?xml version="1.0" encoding="UTF-8" standalone="no"?>
<svg viewBox="0 0 322 72" version="1.1" xmlns="http://www.w3.org/2000/svg" xmlns:xlink="http://www.w3.org/1999/xlink" xmlns:sketch="http://www.bohemiancoding.com/sketch/ns">
    <title>Typeform Logo</title>
    <defs></defs>
    <g id="Page-1" stroke="none" stroke-width="1" fill="none" fill-rule="evenodd" sketch:type="MSPage">
        <rect id="Rectangle-1" fill="#7AC0BF" sketch:type="MSShapeGroup" x="314" y="0" width="8" height="72"></rect>
        <path d="M0.567943068,5.31108115 L41.6018298,5.31108115 L41.6018298,12.9783126 L25.4864452,12.9783126 L25.4864452,56 L16.6123347,56 L16.6123347,12.9783126 L0.567943068,12.9783126 L0.567943068,5.31108115 Z M35.414625,19.2966792 L44.2887355,19.2966792 L53.8727748,46.6999323 L54.0147605,46.6999323 L63.3148283,19.2966792 L71.7629814,19.2966792 L57.4934118,57.9878007 C56.8308083,59.6443096 56.1800467,61.2298015 55.5411075,62.7443239 C54.9021684,64.2588464 54.1212545,65.5958656 53.1983424,66.7554219 C52.2754303,67.9149781 51.1277235,68.8378763 49.7551875,69.5241443 C48.3826516,70.2104123 46.6315113,70.5535411 44.5017141,70.5535411 C42.6085611,70.5535411 40.7391005,70.4115568 38.8932763,70.1275838 L38.8932763,63.312267 C39.5558799,63.4069247 40.1948094,63.5134129 40.8100842,63.631735 C41.4253589,63.750057 42.0642885,63.8092172 42.726892,63.8092172 C43.6734686,63.8092172 44.4543825,63.6908969 45.0696572,63.4542528 C45.6849319,63.2176086 46.1937092,62.8744798 46.5960042,62.424856 C46.9982992,61.9752321 47.341428,61.4427908 47.625401,60.8275161 C47.909374,60.2122413 48.1696786,59.5023196 48.4063227,58.6977296 L49.3292302,55.8580142 L35.414625,19.2966792 Z M77.5025811,19.2966792 L85.1698125,19.2966792 L85.1698125,24.2661811 L85.3117983,24.2661811 C86.4476901,22.1363839 88.033182,20.6100522 90.0683215,19.6871401 C92.103461,18.764228 94.3042184,18.3027788 96.6706597,18.3027788 C99.557718,18.3027788 102.07794,18.8115561 104.231402,19.8291258 C106.384863,20.8466956 108.1715,22.242875 109.591364,24.017706 C111.011229,25.7925369 112.076112,27.863142 112.786044,30.2295833 C113.495977,32.5960246 113.850937,35.1280787 113.850937,37.8258218 C113.850937,40.2869207 113.531473,42.6769906 112.892534,44.9961031 C112.253594,47.3152155 111.283368,49.3621565 109.981825,51.1369875 C108.680283,52.9118184 107.035631,54.3316619 105.04782,55.3965605 C103.060009,56.4614591 100.717268,56.9939004 98.0195245,56.9939004 C96.8363038,56.9939004 95.6531009,56.8874121 94.4698803,56.6744324 C93.2866596,56.4614527 92.1507849,56.1183238 91.0622219,55.6450356 C89.9736589,55.1717473 88.9679364,54.5683138 88.0450243,53.8347171 C87.1221122,53.1011203 86.3530303,52.2373821 85.7377556,51.2434768 L85.5957698,51.2434768 L85.5957698,69.5596408 L77.5025811,69.5596408 L77.5025811,19.2966792 Z M105.757749,37.683836 C105.757749,36.0273271 105.544772,34.4181712 105.118813,32.85632 C104.692853,31.2944687 104.053924,29.9101213 103.202005,28.7032363 C102.350086,27.4963512 101.285203,26.5261248 100.007325,25.7925281 C98.7294469,25.0589313 97.2622753,24.6921384 95.6057664,24.6921384 C92.198091,24.6921384 89.6305407,25.8753412 87.9030386,28.2417825 C86.1755364,30.6082238 85.3117983,33.7555435 85.3117983,37.683836 C85.3117983,39.5296602 85.5366069,41.2453044 85.9862307,42.8308201 C86.4358545,44.4163358 87.1102802,45.7770191 88.0095279,46.9129109 C88.9087756,48.0488027 89.9854902,48.9480369 91.2397041,49.6106405 C92.493918,50.273244 93.9492575,50.6045409 95.6057664,50.6045409 C97.4515906,50.6045409 99.0134184,50.2259159 100.291297,49.4686547 C101.569175,48.7113935 102.622226,47.7293351 103.45048,46.52245 C104.278735,45.315565 104.870336,43.9430496 105.225302,42.4048628 C105.580268,40.866676 105.757749,39.2930161 105.757749,37.683836 Z M127.967697,39.7426297 C127.967697,41.1624944 128.168842,42.5350098 128.571137,43.8602169 C128.973432,45.185424 129.576865,46.3449629 130.381456,47.3388682 C131.186046,48.3327735 132.2036,49.1255195 133.434149,49.7171298 C134.664699,50.3087401 136.131871,50.6045409 137.835708,50.6045409 C140.20215,50.6045409 142.107106,50.0957636 143.550635,49.0781939 C144.994165,48.0606241 146.070879,46.5342924 146.780812,44.4991529 L154.448043,44.4991529 C154.022084,46.4869635 153.288498,48.2617679 152.247264,49.8236191 C151.206029,51.3854704 149.951834,52.6988256 148.484641,53.7637242 C147.017447,54.8286227 145.372795,55.6332007 143.550635,56.1774822 C141.728476,56.7217637 139.823519,56.9939004 137.835708,56.9939004 C134.94865,56.9939004 132.392932,56.5206192 130.168477,55.5740427 C127.944022,54.6274662 126.062729,53.3022789 124.524543,51.5984412 C122.986356,49.8946035 121.826817,47.8594945 121.045891,45.4930532 C120.264966,43.126612 119.874509,40.5235656 119.874509,37.683836 C119.874509,35.0807506 120.28863,32.6078566 121.116884,30.2650797 C121.945139,27.9223028 123.128342,25.8635298 124.666528,24.0886988 C126.204715,22.3138679 128.062344,20.9058564 130.23947,19.8646223 C132.416596,18.8233881 134.877658,18.3027788 137.62273,18.3027788 C140.509788,18.3027788 143.101002,18.9062123 145.39645,20.1130974 C147.691898,21.3199824 149.596855,22.9173063 151.111378,24.905117 C152.6259,26.8929277 153.726279,29.1765093 154.412547,31.7559303 C155.098815,34.3353513 155.276295,36.9975578 154.944993,39.7426297 L127.967697,39.7426297 Z M146.851804,34.4181634 C146.757147,33.1402851 146.48501,31.9097541 146.035386,30.7265335 C145.585762,29.5433128 144.970497,28.5139263 144.189571,27.638343 C143.408646,26.7627597 142.462083,26.052838 141.349856,25.5085565 C140.237629,24.964275 138.995266,24.6921384 137.62273,24.6921384 C136.202865,24.6921384 134.913174,24.940611 133.753617,25.4375636 C132.594061,25.9345163 131.600171,26.620774 130.771916,27.4963573 C129.943662,28.3719405 129.281068,29.401327 128.784116,30.5845477 C128.287163,31.7677683 128.015026,33.0456275 127.967697,34.4181634 L146.851804,34.4181634 Z M158.483814,19.2966792 L164.518209,19.2966792 L164.518209,16.2439852 C164.518209,13.9248728 164.802177,12.0435802 165.370123,10.600051 C165.938069,9.15652179 166.695319,8.04431107 167.641896,7.26338545 C168.588472,6.48245982 169.665187,5.96185055 170.872072,5.70154201 C172.078957,5.44123347 173.344984,5.31108115 174.670191,5.31108115 C177.273276,5.31108115 179.166401,5.47672955 180.349622,5.80803133 L180.349622,12.126398 C179.829005,11.9844115 179.272899,11.8779232 178.681289,11.80693 C178.089679,11.7359368 177.391589,11.7004407 176.586999,11.7004407 C175.498436,11.7004407 174.563706,11.9607453 173.78278,12.4813624 C173.001854,13.0019795 172.611397,14.019534 172.611397,15.5340564 L172.611397,19.2966792 L179.497707,19.2966792 L179.497707,25.3310743 L172.611397,25.3310743 L172.611397,56 L164.518209,56 L164.518209,25.3310743 L158.483814,25.3310743 L158.483814,19.2966792 Z M202.275599,56.9939004 C199.341212,56.9939004 196.726333,56.5087872 194.430885,55.5385463 C192.135437,54.5683053 190.194984,53.2312861 188.609469,51.5274483 C187.023953,49.8236106 185.817086,47.7885016 184.988832,45.4220604 C184.160577,43.0556191 183.746456,40.4525727 183.746456,37.6128432 C183.746456,34.8204424 184.160577,32.2410601 184.988832,29.8746189 C185.817086,27.5081776 187.023953,25.4730686 188.609469,23.7692309 C190.194984,22.0653931 192.135437,20.7283739 194.430885,19.7581329 C196.726333,18.787892 199.341212,18.3027788 202.275599,18.3027788 C205.209986,18.3027788 207.824864,18.787892 210.120312,19.7581329 C212.415761,20.7283739 214.356213,22.0653931 215.941729,23.7692309 C217.527245,25.4730686 218.734112,27.5081776 219.562366,29.8746189 C220.39062,32.2410601 220.804741,34.8204424 220.804741,37.6128432 C220.804741,40.4525727 220.39062,43.0556191 219.562366,45.4220604 C218.734112,47.7885016 217.527245,49.8236106 215.941729,51.5274483 C214.356213,53.2312861 212.415761,54.5683053 210.120312,55.5385463 C207.824864,56.5087872 205.209986,56.9939004 202.275599,56.9939004 Z M202.275599,50.6045409 C204.074094,50.6045409 205.635922,50.2259159 206.961129,49.4686547 C208.286336,48.7113935 209.374883,47.7175031 210.226802,46.4869536 C211.078721,45.2564041 211.705818,43.8720568 212.108113,42.3338699 C212.510408,40.7956831 212.711553,39.2220232 212.711553,37.6128432 C212.711553,36.0509919 212.510408,34.4891641 212.108113,32.9273128 C211.705818,31.3654616 211.078721,29.9811142 210.226802,28.7742292 C209.374883,27.5673441 208.286336,26.5852857 206.961129,25.8280245 C205.635922,25.0707633 204.074094,24.6921384 202.275599,24.6921384 C200.477103,24.6921384 198.915276,25.0707633 197.590069,25.8280245 C196.264861,26.5852857 195.176315,27.5673441 194.324396,28.7742292 C193.472477,29.9811142 192.845379,31.3654616 192.443084,32.9273128 C192.040789,34.4891641 191.839645,36.0509919 191.839645,37.6128432 C191.839645,39.2220232 192.040789,40.7956831 192.443084,42.3338699 C192.845379,43.8720568 193.472477,45.2564041 194.324396,46.4869536 C195.176315,47.7175031 196.264861,48.7113935 197.590069,49.4686547 C198.915276,50.2259159 200.477103,50.6045409 202.275599,50.6045409 Z M228.532142,19.2966792 L236.12838,19.2966792 L236.12838,26.3959676 L236.270366,26.3959676 C236.50701,25.4020622 236.968459,24.4318358 237.654727,23.4852593 C238.340995,22.5386828 239.169237,21.6749447 240.139478,20.8940191 C241.109719,20.1130935 242.186434,19.4859959 243.369655,19.0127077 C244.552875,18.5394194 245.759742,18.3027788 246.990292,18.3027788 C247.936868,18.3027788 248.58763,18.3264429 248.942596,18.3737717 C249.297562,18.4211005 249.664355,18.4684287 250.042986,18.5157575 L250.042986,26.3249747 C249.47504,26.230317 248.89527,26.1474928 248.30366,26.0764996 C247.71205,26.0055063 247.13228,25.9700103 246.564334,25.9700103 C245.191798,25.9700103 243.902107,26.2421469 242.695222,26.7864284 C241.488337,27.3307099 240.435287,28.1352879 239.536039,29.2001865 C238.636791,30.265085 237.926869,31.5784403 237.406252,33.1402915 C236.885635,34.7021427 236.625331,36.5006111 236.625331,38.5357506 L236.625331,56 L228.532142,56 L228.532142,19.2966792 Z M254.504713,19.2966792 L262.171945,19.2966792 L262.171945,24.4081668 L262.384923,24.4081668 C263.000198,23.5089191 263.662792,22.6806771 264.372724,21.9234159 C265.082657,21.1661547 265.875403,20.5272251 266.750986,20.006608 C267.626569,19.485991 268.632292,19.0718699 269.768183,18.7642326 C270.904075,18.4565952 272.205598,18.3027788 273.672792,18.3027788 C275.897247,18.3027788 277.967852,18.7997241 279.884669,19.7936294 C281.801487,20.7875347 283.16217,22.3256985 283.96676,24.4081668 C285.339296,22.5150138 286.924788,21.0241781 288.723283,19.9356152 C290.521779,18.8470522 292.769864,18.3027788 295.467607,18.3027788 C299.348571,18.3027788 302.365738,19.2493412 304.5192,21.1424942 C306.672661,23.0356472 307.749376,26.206631 307.749376,30.6555406 L307.749376,56 L299.656187,56 L299.656187,34.5601492 C299.656187,33.0929556 299.608859,31.7559363 299.514202,30.5490512 C299.419544,29.3421662 299.147407,28.3009476 298.697783,27.4253644 C298.24816,26.5497811 297.573734,25.8753554 296.674486,25.4020672 C295.775239,24.9287789 294.544708,24.6921384 292.982856,24.6921384 C290.237784,24.6921384 288.250004,25.5440444 287.019454,27.2478822 C285.788905,28.9517199 285.173639,31.3654538 285.173639,34.4891563 L285.173639,56 L277.08045,56 L277.08045,32.4303627 C277.08045,29.8746061 276.619001,27.9459854 275.696089,26.6444427 C274.773177,25.3428999 273.081197,24.6921384 270.620098,24.6921384 C269.578864,24.6921384 268.573141,24.9051149 267.6029,25.3310743 C266.632659,25.7570337 265.780753,26.3722992 265.047157,27.1768893 C264.31356,27.9814793 263.721958,28.9753697 263.272335,30.1585904 C262.822711,31.341811 262.597902,32.6906623 262.597902,34.2051848 L262.597902,56 L254.504713,56 L254.504713,19.2966792 Z" id="Typeform" fill="#000000" sketch:type="MSShapeGroup"></path>
    </g>
</svg>