<svg height="34" width="221" xmlns="http://www.w3.org/2000/svg"><path d="m25.177 11.054c-.264-1.205-.698-2.284-1.3-3.239s-1.337-1.755-2.203-2.402c-.867-.646-1.822-1.138-2.864-1.476-1.043-.338-2.137-.507-3.283-.507-2.086 0-3.878.397-5.376 1.19s-2.725 1.844-3.68 3.151-1.66 2.784-2.115 4.429-.683 3.335-.683 5.068c0 1.704.228 3.386.683 5.046s1.16 3.144 2.115 4.451 2.181 2.358 3.68 3.151c1.498.793 3.29 1.19 5.376 1.19 1.469 0 2.791-.264 3.966-.793s2.189-1.249 3.041-2.159c.852-.911 1.542-1.976 2.071-3.195s.867-2.534 1.014-3.944h2.997c-.206 1.939-.661 3.687-1.366 5.244s-1.616 2.879-2.732 3.966-2.431 1.924-3.944 2.512-3.195.881-5.046.881c-2.468 0-4.635-.448-6.5-1.344-1.866-.896-3.415-2.093-4.649-3.592-1.234-1.498-2.159-3.232-2.776-5.2s-.925-4.04-.925-6.214.308-4.245.925-6.214c.617-1.968 1.542-3.709 2.776-5.222s2.784-2.718 4.649-3.614c1.866-.896 4.032-1.344 6.5-1.344 1.498 0 2.96.22 4.385.661s2.718 1.094 3.878 1.961 2.13 1.932 2.909 3.195 1.271 2.718 1.476 4.363zm5.385-.793h2.556v5.332h.088c.705-1.851 1.799-3.276 3.283-4.275s3.254-1.454 5.31-1.366v2.776c-1.263-.059-2.409.11-3.437.507s-1.917.962-2.666 1.697c-.749.734-1.329 1.609-1.741 2.622-.411 1.014-.617 2.123-.617 3.327v12.119h-2.776zm27.64 22.739v-4.098h-.088c-.734 1.528-1.799 2.696-3.195 3.503-1.396.808-2.945 1.212-4.649 1.212-1.44 0-2.666-.198-3.68-.595s-1.836-.962-2.468-1.697c-.632-.734-1.094-1.631-1.388-2.688-.294-1.058-.441-2.262-.441-3.614v-14.763h2.776v14.807c.059 2.057.536 3.614 1.432 4.671.896 1.058 2.446 1.586 4.649 1.586 1.205 0 2.233-.257 3.085-.771s1.557-1.197 2.115-2.049.97-1.829 1.234-2.931.397-2.225.397-3.371v-11.943h2.776v22.739zm5.65-22.739h2.776v3.922h.088c.529-1.381 1.469-2.49 2.82-3.327s2.835-1.256 4.451-1.256c1.586 0 2.916.206 3.988.617s1.932.992 2.578 1.741 1.102 1.667 1.366 2.754.397 2.306.397 3.658v14.631h-2.776v-14.19c0-.97-.088-1.873-.264-2.71s-.485-1.564-.925-2.181c-.441-.617-1.036-1.102-1.785-1.454-.749-.353-1.682-.529-2.798-.529s-2.108.198-2.975.595-1.601.94-2.203 1.631c-.602.69-1.072 1.513-1.41 2.468s-.521 1.99-.551 3.107v13.265h-2.776zm37.644 7.139c-.382-1.704-1.087-3.041-2.115-4.01-1.028-.97-2.468-1.454-4.319-1.454-1.322 0-2.483.279-3.481.837-.999.558-1.829 1.293-2.49 2.203-.661.911-1.16 1.946-1.498 3.107-.338 1.16-.507 2.343-.507 3.548s.169 2.387.507 3.548c.338 1.16.837 2.196 1.498 3.107s1.491 1.645 2.49 2.203 2.159.837 3.481.837c.852 0 1.66-.162 2.424-.485s1.44-.771 2.027-1.344c.588-.573 1.072-1.256 1.454-2.049s.617-1.66.705-2.6h2.776c-.382 2.762-1.396 4.914-3.041 6.456s-3.761 2.314-6.346 2.314c-1.733 0-3.268-.316-4.605-.947-1.337-.632-2.461-1.491-3.371-2.578-.911-1.087-1.601-2.358-2.071-3.812s-.705-3.004-.705-4.649.235-3.195.705-4.649 1.16-2.725 2.071-3.812 2.035-1.954 3.371-2.6c1.337-.646 2.872-.97 4.605-.97 2.438 0 4.502.646 6.192 1.939 1.689 1.293 2.696 3.246 3.019 5.861zm4.68-15.865h2.776v12.648h.088c.529-1.381 1.469-2.49 2.82-3.327s2.835-1.256 4.451-1.256c1.586 0 2.916.206 3.988.617s1.932.992 2.578 1.741 1.102 1.667 1.366 2.754.397 2.306.397 3.658v14.631h-2.776v-14.19c0-.97-.088-1.873-.264-2.71s-.485-1.564-.925-2.181c-.441-.617-1.036-1.102-1.785-1.454-.749-.353-1.682-.529-2.798-.529s-2.108.198-2.975.595-1.601.94-2.203 1.631c-.602.69-1.072 1.513-1.41 2.468s-.521 1.99-.551 3.107v13.265h-2.776zm27.816 13.177h8.99c1.322 0 2.424-.375 3.305-1.124s1.322-1.829 1.322-3.239c0-1.586-.397-2.703-1.19-3.349s-1.939-.97-3.437-.97h-8.99zm-5.509 18.289v-31.465h15.292c2.82 0 5.083.646 6.787 1.939s2.556 3.246 2.556 5.861c0 1.586-.389 2.945-1.168 4.076s-1.888 2.005-3.327 2.622v.088c1.939.411 3.408 1.329 4.407 2.754s1.498 3.21 1.498 5.354c0 1.234-.22 2.387-.661 3.459s-1.131 1.998-2.071 2.776c-.94.779-2.145 1.396-3.614 1.851s-3.217.683-5.244.683zm5.509-4.495h9.739c1.675 0 2.975-.433 3.9-1.3s1.388-2.093 1.388-3.68c0-1.557-.463-2.754-1.388-3.592-.925-.837-2.225-1.256-3.9-1.256h-9.739zm41.786-12.295v11.722c0 .617.081 1.058.242 1.322.162.264.477.397.947.397h.529c.206 0 .441-.029.705-.088v3.481c-.176.059-.404.125-.683.198s-.566.14-.859.198c-.294.059-.588.103-.881.132-.294.029-.544.044-.749.044-1.028 0-1.88-.206-2.556-.617s-1.116-1.131-1.322-2.159c-.999.97-2.225 1.675-3.68 2.115-1.454.441-2.857.661-4.209.661-1.028 0-2.012-.14-2.953-.419-.94-.279-1.77-.69-2.49-1.234s-1.293-1.234-1.719-2.071-.639-1.814-.639-2.931c0-1.41.257-2.556.771-3.437s1.19-1.572 2.027-2.071 1.777-.859 2.82-1.08c1.043-.22 2.093-.389 3.151-.507.911-.176 1.777-.301 2.6-.375.823-.073 1.55-.198 2.181-.375.632-.176 1.131-.448 1.498-.815s.551-.918.551-1.653c0-.646-.154-1.175-.463-1.586-.308-.411-.69-.727-1.146-.947-.455-.22-.962-.367-1.52-.441-.558-.073-1.087-.11-1.586-.11-1.41 0-2.571.294-3.481.881-.911.588-1.425 1.498-1.542 2.732h-5.024c.088-1.469.441-2.688 1.058-3.658s1.403-1.748 2.358-2.336 2.035-.999 3.239-1.234c1.205-.235 2.438-.353 3.702-.353 1.116 0 2.218.118 3.305.353s2.064.617 2.931 1.146 1.564 1.212 2.093 2.049.793 1.858.793 3.063zm-5.024 5.376c-.764.499-1.704.801-2.82.903-1.116.103-2.233.257-3.349.463-.529.088-1.043.213-1.542.375s-.94.382-1.322.661-.683.646-.903 1.102c-.22.455-.331 1.006-.331 1.653 0 .558.162 1.028.485 1.41s.712.683 1.168.903c.455.22.955.375 1.498.463.544.088 1.036.132 1.476.132.558 0 1.16-.073 1.807-.22.646-.147 1.256-.397 1.829-.749.573-.353 1.05-.801 1.432-1.344.382-.544.573-1.212.573-2.005zm7.104 4.098h5.024c.147 1.469.705 2.497 1.675 3.085s2.13.881 3.481.881c.47 0 1.006-.037 1.609-.11.602-.073 1.168-.213 1.697-.419s.962-.507 1.3-.903c.338-.397.492-.918.463-1.564s-.264-1.175-.705-1.586-1.006-.742-1.697-.992c-.69-.25-1.476-.463-2.358-.639-.881-.176-1.777-.367-2.688-.573-.94-.206-1.844-.455-2.71-.749-.867-.294-1.645-.69-2.336-1.19-.69-.499-1.241-1.138-1.653-1.917-.411-.779-.617-1.741-.617-2.887 0-1.234.301-2.27.903-3.107s1.366-1.513 2.292-2.027c.925-.514 1.954-.874 3.085-1.08s2.211-.308 3.239-.308c1.175 0 2.299.125 3.371.375s2.042.654 2.909 1.212 1.586 1.285 2.159 2.181.933 1.976 1.08 3.239h-5.244c-.235-1.205-.786-2.012-1.653-2.424-.867-.411-1.858-.617-2.975-.617-.353 0-.771.029-1.256.088s-.94.169-1.366.331-.786.397-1.08.705-.441.712-.441 1.212c0 .617.213 1.116.639 1.498s.984.698 1.675.947c.69.25 1.476.463 2.358.639.881.176 1.792.367 2.732.573.911.206 1.807.455 2.688.749s1.667.69 2.358 1.19c.69.499 1.249 1.131 1.675 1.895s.639 1.704.639 2.82c0 1.351-.308 2.497-.925 3.437s-1.418 1.704-2.402 2.292-2.079 1.014-3.283 1.278c-1.205.264-2.394.397-3.57.397-1.44 0-2.769-.162-3.988-.485s-2.277-.815-3.173-1.476-1.601-1.484-2.115-2.468-.786-2.152-.815-3.503zm37.644-6.081c-.059-.793-.228-1.557-.507-2.292-.279-.734-.661-1.373-1.146-1.917s-1.072-.984-1.763-1.322c-.69-.338-1.462-.507-2.314-.507-.881 0-1.682.154-2.402.463-.72.308-1.337.734-1.851 1.278s-.925 1.183-1.234 1.917c-.308.734-.477 1.528-.507 2.38zm-11.722 3.305c0 .881.125 1.733.375 2.556s.624 1.542 1.124 2.159c.499.617 1.131 1.109 1.895 1.476s1.675.551 2.732.551c1.469 0 2.651-.316 3.548-.947.896-.632 1.564-1.579 2.005-2.842h4.759c-.264 1.234-.72 2.336-1.366 3.305-.646.97-1.425 1.785-2.336 2.446s-1.932 1.16-3.063 1.498-2.314.507-3.548.507c-1.792 0-3.379-.294-4.759-.881-1.381-.588-2.549-1.41-3.503-2.468-.955-1.058-1.675-2.321-2.159-3.79-.485-1.469-.727-3.085-.727-4.848 0-1.616.257-3.151.771-4.605s1.249-2.732 2.203-3.834c.955-1.102 2.108-1.976 3.459-2.622s2.879-.97 4.583-.97c1.792 0 3.401.375 4.826 1.124s2.607 1.741 3.548 2.975c.94 1.234 1.623 2.651 2.049 4.253.426 1.601.536 3.254.331 4.958zm0 0" fill="#4a4a4a"/></svg>