<svg height="248" viewBox="0 0 248 248" width="248" xmlns="http://www.w3.org/2000/svg"><g fill="none" fill-rule="evenodd"><circle cx="124" cy="124" fill="#4ebbe9" r="124"/><g fill="#fff"><path d="m126.175128 185c0 2.605377 1.023086 4.961675 3.06929 7.068966 2.046204 2.10729 4.939069 3.160919 8.678683 3.160919h18.839092c2.469556 0 4.551008.344824 6.244418 1.034483 1.69341.689658 3.051646 1.609189 4.074748 2.758621 1.023102 1.149431 1.763957 2.471256 2.222589 3.965517.458632 1.49426.687945 3.045969.687945 4.655172v7.356322h-6.350256v-6.436782c0-1.379317-.264591-2.47126-.793782-3.275862-.529191-.804601-1.217128-1.379308-2.063833-1.724138-.846705-.344829-1.799234-.555555-2.857615-.632184-1.058382-.076628-2.081468-.114942-3.069291-.114942h-18.204066c-2.540115 0-4.674485-.402295-6.403175-1.206897-1.728689-.804601-3.104564-1.762446-4.127666-2.873563-1.023102-1.111116-1.763958-2.241373-2.222589-3.390804-.458632-1.149431-.723224-2.068962-.793782-2.758621h-.211676c-.070558.689659-.33515 1.60919-.793782 2.758621-.458631 1.149431-1.199487 2.279688-2.222589 3.390804-1.023102 1.111117-2.398977 2.068962-4.127666 2.873563-1.72869.804602-3.86306 1.206897-6.403175 1.206897h-18.2040665c-.9878225 0-2.010909.038314-3.0692903.114942-1.0583812.076629-2.01091.287355-2.857615.632184-.8467051.34483-1.5346425.919537-2.0638332 1.724138-.5291906.804602-.7937819 1.896545-.7937819 3.275862v6.436782h-6.3502558v-7.356322c0-1.609203.2293125-3.160912.6879444-4.655172.4586318-1.494261 1.1994876-2.816086 2.2225895-3.965517 1.0231019-1.149432 2.3813374-2.068963 4.0747474-2.758621 1.69341-.689659 3.7748619-1.034483 6.2444182-1.034483h18.8390922c3.739614 0 6.632479-1.053629 8.678683-3.160919 2.046204-2.107291 3.06929-4.463589 3.06929-7.068966zm0 0"/><path d="m75 32v142h96v-121.5009766l-21.25-20.4990234zm82 26.2317324v101.7682676h-68v-114h55.210854zm0 0"/></g></g></svg>