<svg enable-background="new -230.5 33.637 802 197.363" height="197.363" viewBox="-230.5 33.637 802 197.363" width="802" xmlns="http://www.w3.org/2000/svg"><path d="m-123.834 104.282-.001.003h.001z" fill="#4d4d4d"/><path d="m-162.761 88.722h-.002l.002.002z" fill="#333"/><path d="m-145.462 150.971-4.325 5.188h-.001l-4.324 5.188-4.326 5.187-4.296 5.153 5.289-3.962 1.589-1.191 1.744-1.307 1.991-1.492 3.188-2.388 2.137-1.602 1.334-1 3.454-2.586.536-.402 1.788-1.341 2.873-2.151 1.726-1.294 4.261-3.193 2.663-1.995v-5.186-.001-5.187-5.187l-4.325 5.187-4.325 5.187v.001l-4.325 5.186h-.001z" fill="#67b240"/><path d="m-162.77 171.713.007.007v-.012z"/><path d="m-162.77 171.713-.01.007h.017z"/><path d="m-162.763 171.708v.012l.029-.033z"/><path d="m-162.763 135.409v5.187l4.325-5.187 4.326-5.187v-.001l2.15-2.579-.724-2.608-1.426-5.14-.01-.037.01-.01h-.013v-.001h.013l-.02-.024-1.432-5.163-.718-2.585-.722-2.602v-.001l-1.438-5.182.004-.004-.008-.012-1.437-5.177-.718-2.591-.722-2.596-1.438-5.185-.002-.002v5.187 5.187 5.189 5.186.001 5.187 5.187.001 5.187 5.187 4.534z" fill="#009643"/><path d="m-128.984 100.083-3.501 4.202h-.001l-4.323 5.186v.001h-.002v.003l-4.322 5.184h-.003-.001l.002.003-4.321 5.184v.001h-.006v.007l-4.318 5.18h-.007-.001l.004.005-2.176 2.61-.002-.007-2.15 2.58-4.326 5.187-4.325 5.187v-5.187-5.187-5.188-5.187-.001-5.187-5.187-.001-5.186-5.189-5.187-5.187l-4.325 5.187-4.325 5.187-4.325 5.189h-.001l-4.325 5.186v.001 5.187 5.187.001 5.187 5.188 5.187 5.187.001 5.186 5.188 5.188 5.188 5.187 5.186h8.651 8.633l.01-.007.007-.005.029-.021 4.296-5.153 4.326-5.187 4.324-5.188h.001l4.325-5.188 4.325-5.188h.001l4.325-5.186v-.001l4.325-5.187 4.325-5.187v-20.751-5.186-5.189z" fill="#85c441"/><path d="m-93.556 88.722h.001l-.002.002z" fill="#333"/><path d="m-110.855 150.971 4.325 5.188 4.325 5.188 4.325 5.187h.001l4.296 5.153-5.289-3.962-1.589-1.191-1.744-1.307-1.992-1.492-3.187-2.388-2.137-1.602-1.334-1-3.454-2.586-.536-.402-1.788-1.341-2.874-2.151-1.725-1.294-4.262-3.193-2.662-1.995v-5.186-.001-5.187-5.187l4.325 5.187 4.324 5.187v.001l4.326 5.186h.001z" fill="#479d3c"/><path d="m-93.548 171.713-.007.007v-.012z"/><path d="m-93.548 171.713.01.007h-.017z"/><path d="m-93.555 171.708v.012l-.028-.033z"/><path d="m-93.555 135.409v5.187l-4.324-5.187h-.001l-4.325-5.187v-.001l-2.15-2.579.723-2.608 1.427-5.14.01-.037-.01-.01h.012v-.001h-.012l.02-.024 1.432-5.163.718-2.585.722-2.602v-.001l1.438-5.182-.004-.004.007-.012 1.438-5.177.719-2.591.72-2.596 1.438-5.185.002-.002v5.187 5.187 5.189 5.186.001 5.187 5.187.001 5.187 5.187 4.534z" fill="#00652e"/><path d="m-127.333 100.083 3.501 4.202h.001l4.323 5.186v.001h.001v.003l4.322 5.184h.004.001l-.003.003 4.321 5.184v.001h.007v.007l4.317 5.18h.008l-.004.005 2.177 2.61.002-.007 2.15 2.58 4.325 5.187h.001l4.324 5.187v-5.187-5.187-5.188-5.187-.001-5.187-5.187-.001-5.186-5.189-5.187-5.187l4.326 5.187 4.325 5.187 4.324 5.189h.002l4.325 5.186v.001 5.187 5.187.001 5.187 5.188 5.187 5.187.001 5.186 5.188 5.188 5.188 5.187 5.186h-8.651-8.634l-.01-.007-.007-.005-.028-.021-4.296-5.153h-.001l-4.325-5.187-4.325-5.188-4.325-5.188-4.325-5.188h-.001l-4.326-5.186v-.001l-4.324-5.187-4.325-5.187v-20.751-5.186-5.189z" fill="#b5d334"/><path d="m-167.088 93.909 4.325 5.187v-5.187z" fill="#9fcc3b"/><path d="m-162.763 88.722-4.325 5.187h4.325z" fill="#9fcc3b"/><path d="m-171.413 99.096h8.65l-4.325-5.187z" fill="#82c341"/><path d="m-162.761 88.722h-.002l.002.002z" fill="#333"/><path d="m-161.323 93.909h-1.44v5.187l2.162-2.591z" fill="#099e43"/><path d="m-161.323 93.909-1.438-5.185-.002-.002v5.187z" fill="#099e43"/><path d="m-162.763 99.096h2.88l-.718-2.591z" fill="#099e43"/><path d="m-175.738 104.285h-.001l4.326 5.186v-5.186z" fill="#9fcc3b"/><path d="m-171.413 99.096-4.325 5.189h4.325z" fill="#82c341"/><path d="m-180.064 109.471h8.651l-4.326-5.186z" fill="#82c341"/><path d="m-167.088 104.285 4.325-5.189h-8.65z" fill="#82c341"/><path d="m-167.088 104.285 4.325 5.186v-5.186z" fill="#82c341"/><path d="m-162.763 104.285v-5.189l-4.325 5.189z" fill="#82c341"/><path d="m-171.413 104.285v5.186l4.325-5.186z" fill="#82c341"/><path d="m-167.088 104.285-4.325-5.189v5.189z" fill="#82c341"/><path d="m-171.413 109.471h8.65l-4.325-5.186z" fill="#82c341"/><path d="m-159.883 99.096h-2.88l4.317 5.177z" fill="#099e43"/><path d="m-158.444 104.285h-4.319v5.186l4.321-5.182z" fill="#009643"/><path d="m-158.444 104.285-.002-.012-4.317-5.177v5.189z" fill="#099e43"/><path d="m-162.763 109.471h5.759l-1.438-5.182z" fill="#009643"/><path d="m-128.161 109.471v-5.186h-4.324-.001z" fill="#85c441"/><path d="m-132.485 104.285h4.324v-5.189l-.823.987z" fill="#85c441"/><path d="m-132.486 104.285-4.323 5.186h8.648z" fill="#9aca3c"/><path d="m-167.088 114.659 4.325-5.187h-8.65z" fill="#92c841"/><path d="m-167.088 114.659 4.325 5.187v-5.187z" fill="#92c841"/><path d="m-162.763 114.659v-5.187l-4.325 5.187z" fill="#92c841"/><path d="m-171.413 114.659v5.187l4.325-5.187z" fill="#65bc46"/><path d="m-171.413 119.846h8.65l-4.325-5.187z" fill="#92c841"/><path d="m-158.438 114.659 2.156-2.585-.722-2.602h-5.759z" fill="#009643"/><path d="m-158.438 114.659 4.306 5.163-1.432-5.163z" fill="#099e43"/><path d="m-156.282 112.074-2.156 2.585h2.874z" fill="#099e43"/><path d="m-162.763 114.659v5.187l4.325-5.187z" fill="#009643"/><path d="m-158.438 114.659-4.325-5.187v5.187z" fill="#009643"/><path d="m-158.438 114.659-4.325 5.187h8.638l-.007-.024z" fill="#099e43"/><path d="m-141.133 114.659-.002.003 4.324 5.184v-5.187z" fill="#92c841"/><path d="m-136.811 109.475-4.322 5.184h4.322z" fill="#92c841"/><path d="m-141.135 114.662-4.321 5.184h8.645z" fill="#65bc46"/><path d="m-132.486 114.659 4.325-5.187h-8.648l-.001.002z" fill="#9aca3c"/><path d="m-132.486 114.659 4.325 5.187v-5.187z" fill="#9aca3c"/><path d="m-128.161 114.659v-5.187l-4.325 5.187z" fill="#9aca3c"/><path d="m-136.811 114.659v5.187l4.325-5.187z" fill="#9aca3c"/><path d="m-132.486 114.659-4.324-5.185-.001.001v5.184z" fill="#9aca3c"/><path d="m-136.811 119.846h8.65l-4.325-5.187z" fill="#9aca3c"/><path d="m-175.738 125.034h-.001l4.326 5.187v-5.187z" fill="#9fcc3b"/><path d="m-171.413 109.472h-8.651v5.187 5.187h8.651v-5.187h4.325z" fill="#65bc46"/><path d="m-175.739 125.034h.001 4.325v-5.187h-8.651z" fill="#82c341"/><path d="m-180.064 125.034v5.187l4.325-5.187z" fill="#82c341"/><path d="m-180.064 119.847v5.187h4.325z" fill="#9fcc3b"/><path d="m-180.064 130.221h8.651l-4.326-5.187z" fill="#82c341"/><path d="m-167.088 125.034 4.325-5.187h-8.65z" fill="#92c841"/><path d="m-167.088 125.034 4.325 5.187v-5.187z" fill="#77c046"/><path d="m-162.763 125.034v-5.187l-4.325 5.187z" fill="#77c046"/><path d="m-171.413 125.034v5.187l4.325-5.187z" fill="#9fcc3b"/><path d="m-167.088 125.034-4.325-5.187v5.187z" fill="#9fcc3b"/><path d="m-171.413 130.221h8.65l-4.325-5.187z" fill="#92c841"/><path d="m-158.438 125.034 4.316-5.177-.003-.01h-8.638z" fill="#099e43"/><path d="m-158.438 125.034 4.326 5.187v-5.187z" fill="#099e43"/><path d="m-154.122 119.857-4.316 5.177h4.326v-5.14z" fill="#009344"/><path d="m-162.763 125.034v5.187l4.325-5.187z" fill="#009344"/><path d="m-158.438 125.034-4.325-5.187v5.187z" fill="#009344"/><path d="m-162.763 130.221h8.651l-4.326-5.187z" fill="#009643"/><path d="m-149.78 125.034-.004.005 4.322 5.182v-5.187z" fill="#85c441"/><path d="m-149.78 125.034h4.318v-5.18z" fill="#85c441"/><path d="m-152.686 125.034h-1.426v5.187l2.15-2.579z" fill="#099e43"/><path d="m-154.112 125.034h1.426l-1.426-5.14z" fill="#099e43"/><path d="m-151.96 127.649-.002-.007-2.15 2.579h8.65l-4.322-5.182z" fill="#9aca3c"/><path d="m-145.456 119.847-.003.003 4.322 5.184h.001l4.325-5.187z" fill="#65bc46"/><path d="m-141.136 125.034h-.001l4.326 5.187v-5.187z" fill="#9fcc3b"/><path d="m-141.136 125.034h4.325v-5.187z" fill="#65bc46"/><path d="m-145.462 125.034v5.187l4.325-5.187z" fill="#85c441"/><path d="m-145.462 119.854v5.18h4.325l-4.322-5.184z" fill="#65bc46"/><path d="m-145.462 130.221h8.651l-4.326-5.187z" fill="#85c441"/><path d="m-136.811 119.847 4.325 5.187 4.325-5.187z" fill="#9aca3c"/><path d="m-132.486 125.034 4.325 5.187v-5.187z" fill="#85c441"/><path d="m-132.486 125.034h4.325v-5.187z" fill="#85c441"/><path d="m-136.811 125.034v5.187l4.325-5.187z" fill="#9aca3c"/><path d="m-136.811 125.034h4.325l-4.325-5.187z" fill="#65bc46"/><path d="m-136.811 130.221h8.65l-4.325-5.187z" fill="#9aca3c"/><path d="m-175.738 135.409 4.325-5.187h-8.651l4.325 5.187z" fill="#82c341"/><path d="m-175.738 135.409h-.001l4.326 5.187v-5.187z" fill="#82c341"/><path d="m-171.413 135.409v-5.187l-4.325 5.187z" fill="#82c341"/><path d="m-180.064 135.409v5.187l4.325-5.187z" fill="#65bc46"/><path d="m-180.064 130.222v5.187h4.325z" fill="#65bc46"/><path d="m-180.064 140.596h8.651l-4.326-5.187z" fill="#65bc46"/><path d="m-167.088 135.409 4.325-5.187h-8.65z" fill="#92c841"/><path d="m-167.088 135.409 4.325 5.187v-5.187z" fill="#77c046"/><path d="m-162.763 135.409v-5.187l-4.325 5.187z" fill="#77c046"/><path d="m-171.413 135.409v5.187l4.325-5.187z" fill="#82c341"/><path d="m-167.088 135.409-4.325-5.187v5.187z" fill="#92c841"/><path d="m-171.413 140.596h8.65l-4.325-5.187z" fill="#82c341"/><path d="m-158.438 135.409 4.326-5.187h-8.651z" fill="#009643"/><path d="m-158.438 135.409 4.326 5.187v-5.187z" fill="#92c841"/><path d="m-154.112 135.409v-5.187l-4.326 5.187z" fill="#92c841"/><path d="m-162.763 135.409v5.187l4.325-5.187z" fill="#009643"/><path d="m-158.438 135.409-4.325-5.187v5.187z" fill="#009643"/><path d="m-162.763 140.596h8.651l-4.326-5.187z" fill="#92c841"/><path d="m-149.787 135.409 4.325-5.187h-8.65l4.324 5.187z" fill="#9aca3c"/><path d="m-149.787 135.409h-.001l4.326 5.187v-5.187z" fill="#9aca3c"/><path d="m-145.462 135.409v-5.187l-4.325 5.187z" fill="#9aca3c"/><path d="m-154.112 135.409v5.187l4.324-5.187z" fill="#92c841"/><path d="m-149.788 135.409-4.324-5.187v5.187z" fill="#92c841"/><path d="m-154.112 140.596h8.65l-4.326-5.187z" fill="#9aca3c"/><path d="m-141.136 135.409 4.325-5.187h-8.651l4.325 5.187z" fill="#9aca3c"/><path d="m-141.136 135.409h-.001l4.326 5.187v-5.187z" fill="#9aca3c"/><path d="m-136.811 135.409v-5.187l-4.325 5.187z" fill="#9aca3c"/><path d="m-145.462 135.409v5.187l4.325-5.187z" fill="#9aca3c"/><path d="m-141.137 135.409-4.325-5.187v5.187z" fill="#92c841"/><path d="m-145.462 140.596h8.651l-4.326-5.187z" fill="#92c841"/><path d="m-132.486 135.409 4.325-5.187h-8.65z" fill="#9aca3c"/><path d="m-136.811 135.409v5.187l4.325-5.187z" fill="#9aca3c"/><path d="m-132.486 135.409-4.325-5.187v5.187z" fill="#9aca3c"/><path d="m-175.738 145.783 4.325-5.186h-8.651l4.325 5.186z" fill="#65bc46"/><path d="m-171.413 145.783v-5.186l-4.325 5.186z" fill="#65bc46"/><path d="m-167.088 145.783 4.325-5.186h-8.65z" fill="#82c341"/><path d="m-167.088 145.783 4.325 5.188v-5.188z" fill="#82c341"/><path d="m-162.763 145.783v-5.186l-4.325 5.186z" fill="#82c341"/><path d="m-167.088 145.783-4.325-5.186v5.186z" fill="#82c341"/><path d="m-171.413 150.971h8.65l-4.325-5.188z" fill="#82c341"/><path d="m-158.438 145.783 4.326-5.186h-8.651z" fill="#9aca3c"/><path d="m-158.438 145.783 4.326 5.188v-5.188z" fill="#85c441"/><path d="m-154.112 145.783v-5.186l-4.326 5.186z" fill="#85c441"/><path d="m-162.763 145.783v5.188l4.325-5.188z" fill="#85c441"/><path d="m-158.438 145.783-4.325-5.186v5.186z" fill="#85c441"/><path d="m-162.763 150.971h8.651l-4.326-5.188z" fill="#85c441"/><path d="m-149.787 145.783 4.325-5.186h-8.65l4.324 5.186z" fill="#92c841"/><path d="m-149.787 145.783h-.001l4.326 5.188v-5.188z" fill="#9fcc3b"/><path d="m-145.462 145.783v-5.186l-4.325 5.186z" fill="#9fcc3b"/><path d="m-154.112 145.783v5.188l4.324-5.188z" fill="#92c841"/><path d="m-149.788 145.783-4.324-5.186v5.186z" fill="#92c841"/><path d="m-154.112 150.971h8.65l-4.326-5.188z" fill="#92c841"/><path d="m-141.136 145.783 4.325-5.186h-8.651l4.325 5.186z" fill="#85c441"/><path d="m-145.462 145.783v5.188l4.325-5.188z" fill="#9fcc3b"/><path d="m-141.137 145.783-4.325-5.186v5.186z" fill="#9fcc3b"/><path d="m-171.413 145.783h-4.325-.001l-4.325-5.186v5.186 5.188h8.651l4.325-5.188z" fill="#77c046"/><path d="m-175.739 156.159h.001l4.325-5.188h-8.651z" fill="#77c046"/><path d="m-175.738 156.159h-.001l4.326 5.187v-5.187z" fill="#92c841"/><path d="m-171.413 156.159v-5.188l-4.325 5.188z" fill="#92c841"/><path d="m-180.064 156.159v5.187l4.325-5.187z" fill="#92c841"/><path d="m-180.064 150.971v5.188h4.325z" fill="#92c841"/><path d="m-180.064 161.346h8.651l-4.326-5.187z" fill="#92c841"/><path d="m-167.088 156.159 4.325-5.188h-8.65z" fill="#92c841"/><path d="m-167.088 156.159 4.325 5.187v-5.187z" fill="#77c046"/><path d="m-162.763 156.159v-5.188l-4.325 5.188z" fill="#77c046"/><path d="m-171.413 156.159v5.187l4.325-5.187z" fill="#77c046"/><path d="m-167.088 156.159-4.325-5.188v5.188z" fill="#65bc46"/><path d="m-171.413 161.346h8.65l-4.325-5.187z" fill="#77c046"/><path d="m-158.438 156.159 4.326-5.188h-8.651z" fill="#85c441"/><path d="m-158.438 156.159 4.326 5.187v-5.187z" fill="#85c441"/><path d="m-154.112 156.159v-5.188l-4.326 5.188z" fill="#85c441"/><path d="m-162.763 156.159v5.187l4.325-5.187z" fill="#77c046"/><path d="m-158.438 156.159-4.325-5.188v5.188z" fill="#77c046"/><path d="m-162.763 161.346h8.651l-4.326-5.187z" fill="#92c841"/><path d="m-149.787 156.159 4.325-5.188h-8.65l4.324 5.188z" fill="#92c841"/><path d="m-154.112 156.159v5.187l4.324-5.187z" fill="#92c841"/><path d="m-149.788 156.159-4.324-5.188v5.188z" fill="#92c841"/><path d="m-175.738 166.534 4.325-5.187h-8.651l4.325 5.187z" fill="#77c046"/><path d="m-175.738 166.534h-.001l4.326 5.186v-5.186z" fill="#77c046"/><path d="m-171.413 166.534v-5.187l-4.325 5.187z" fill="#77c046"/><path d="m-180.064 166.534v5.186l4.325-5.186z" fill="#77c046"/><path d="m-180.064 161.347v5.187h4.325z" fill="#77c046"/><path d="m-180.064 171.72h8.651l-4.326-5.186z" fill="#77c046"/><path d="m-167.088 166.534 4.325-5.187h-8.65z" fill="#80c342"/><path d="m-162.763 166.534h-4.325l4.318 5.179.007-.005z" fill="#82c341"/><path d="m-162.763 166.534v-5.187l-4.325 5.187z" fill="#82c341"/><path d="m-171.413 166.534v5.186l4.325-5.186z" fill="#77c046"/><path d="m-167.088 166.534-4.325-5.187v5.187z" fill="#77c046"/><path d="m-167.088 166.534-4.325 5.186h8.633l.01-.007z" fill="#82c341"/><path d="m-158.438 166.534 4.326-5.187h-8.651z" fill="#92c841"/><path d="m-162.734 171.687 4.296-5.153h-4.325v5.174z" fill="#85c441"/><path d="m-158.438 166.534-4.325-5.187v5.187z" fill="#85c441"/><path d="m-132.486 135.409-4.325 5.187h8.65v-5.187-5.187z" fill="#67b240"/><path d="m-136.811 140.597-4.325 5.186h-.001l-4.325 5.188h8.651 1.726l4.261-3.193 2.663-1.995v-5.186z" fill="#67b240"/><path d="m-136.811 150.971h-8.651l-4.325 5.188h-.001l-4.324 5.187h5.179l2.137-1.601 1.334-1 3.454-2.586.536-.402 1.788-1.341 2.873-2.151.663-.498 1.063-.796z" fill="#67b240"/><path d="m-158.438 166.534-4.296 5.153 5.289-3.962 1.589-1.191 1.744-1.307 1.991-1.492 3.188-2.388h-5.179z" fill="#67b240"/><path d="m-162.77 171.713.007.007v-.012z"/><path d="m-162.77 171.713-.01.007h.017z"/><path d="m-162.763 171.708v.012l.029-.033z"/><path d="m-158.442 104.289.004-.004h-.006z"/><path d="m-158.444 104.285h.006l-.008-.012z"/><path d="m-154.132 119.822.007.024h.013z"/><path d="m-136.809 109.472h-.002l.001.002z"/><path d="m-136.81 109.474-.001-.002v.003z"/><path d="m-154.112 119.847h-.013l.003.01z"/><path d="m-154.112 119.847-.01.01.01.037z"/><path d="m-149.788 125.034.004.005.004-.005h-.007z"/><path d="m-145.456 119.847h-.006l.003.003z"/><path d="m-145.459 119.85-.003-.003v.007z"/><path d="m-96.436 99.096h2.876l-2.158-2.588z" fill="#006831"/><path d="m-93.56 99.096 4.325-5.187h-4.325z" fill="#b5d334"/><path d="m-93.56 93.909h4.325l-4.323-5.186-.002.004z" fill="#b5d334"/><path d="m-84.909 99.096-4.326-5.187-4.325 5.187z" fill="#b5d334"/><path d="m-123.834 104.282-.001.003h.001z" fill="#4d4d4d"/><path d="m-123.836 104.285h-4.325v5.186z" fill="#b5d334"/><path d="m-123.836 104.285-4.325-5.189v5.189z" fill="#b5d334"/><path d="m-123.836 104.285-4.325 5.186h8.65l-.853-1.024z" fill="#b5d334"/><path d="m-94.997 93.909-.721 2.599 2.158 2.588v-5.187-5.182z" fill="#006831"/><path d="m-97.873 104.269-.002.016-.003.007 4.318 5.179v-5.186-5.189h-2.876z" fill="#006831"/><path d="m-99.314 109.471h5.754l-4.318-5.179z" fill="#007534"/><path d="m-89.234 104.285 4.325-5.189h-8.651l4.325 5.189z" fill="#b5d334"/><path d="m-89.234 104.285h-.001l4.326 5.186v-5.186z" fill="#b5d334"/><path d="m-84.909 104.285v-5.189l-4.325 5.189z" fill="#b5d334"/><path d="m-89.235 104.285-4.325-5.189v5.189 5.186h8.651z" fill="#9fcc3b"/><path d="m-76.258 109.471-4.326-5.186-4.325 5.186z" fill="#9fcc3b"/><path d="m-123.836 114.659h.001l4.324-5.187h-8.65z" fill="#b5d334"/><path d="m-119.511 114.659h-4.324-.001l4.325 5.187z" fill="#b5d334"/><path d="m-119.511 109.472-4.324 5.187h4.324z" fill="#b5d334"/><path d="m-128.161 119.846 4.325-5.187h-4.325z" fill="#b5d334"/><path d="m-123.836 114.659-4.325-5.187v5.187z" fill="#a6ce39"/><path d="m-119.511 119.846-4.325-5.187-4.325 5.187z" fill="#a6ce39"/><path d="m-119.511 119.846 4.324-5.186-.001-.001h-4.323z" fill="#b5d334"/><path d="m-115.188 114.659-4.323-5.187v5.187z" fill="#b5d334"/><path d="m-119.511 119.846h8.647l-4.323-5.186z" fill="#b5d334"/><path d="m-97.885 114.659h.002l4.323-5.187h-5.754l-.725 2.604z" fill="#007534"/><path d="m-97.883 114.659h-.002l4.325 5.187v-5.187z" fill="#007534"/><path d="m-93.56 114.659v-5.187l-4.323 5.187z" fill="#007534"/><path d="m-102.186 119.817 4.301-5.158h-2.87z" fill="#007534"/><path d="m-97.885 114.659-2.154-2.583-.716 2.583z" fill="#007534"/><path d="m-102.186 119.817-.008.029h8.634l-4.325-5.187z" fill="#006831"/><path d="m-89.234 114.659 4.325-5.187h-8.651l4.325 5.187z" fill="#b5d334"/><path d="m-89.234 114.659h-.001l4.326 5.187v-5.187z" fill="#9fcc3b"/><path d="m-84.909 114.659v-5.187l-4.325 5.187z" fill="#9fcc3b"/><path d="m-93.56 114.659v5.187l4.325-5.187z" fill="#9fcc3b"/><path d="m-89.235 114.659-4.325-5.187v5.187z" fill="#9fcc3b"/><path d="m-93.56 119.846h8.651l-4.326-5.187z" fill="#9fcc3b"/><path d="m-84.909 99.096v5.189 5.186l4.325-5.186z" fill="#9fcc3b"/><path d="m-84.909 109.472 4.325 5.187 4.326-5.187z" fill="#9fcc3b"/><path d="m-80.584 114.659 4.326 5.187v-5.187z" fill="#b5d334"/><path d="m-76.258 114.659v-5.187l-4.326 5.187z" fill="#b5d334"/><path d="m-84.909 114.659v5.187l4.325-5.187z" fill="#9fcc3b"/><path d="m-80.584 114.659-4.325-5.187v5.187z" fill="#9fcc3b"/><path d="m-84.909 119.846h8.651l-4.326-5.187z" fill="#b5d334"/><path d="m-128.161 119.847 4.325 5.187h.001l4.324-5.187z" fill="#a6ce39"/><path d="m-123.835 125.034h-.001l4.325 5.187v-5.187z" fill="#b5d334"/><path d="m-123.835 125.034h4.324v-5.187z" fill="#b5d334"/><path d="m-128.161 125.034v5.187l4.325-5.187z" fill="#a6ce39"/><path d="m-128.161 125.034h4.325l-4.325-5.187z" fill="#a6ce39"/><path d="m-128.161 130.221h8.65l-4.325-5.187z" fill="#a6ce39"/><path d="m-115.185 125.034 4.323-5.185-.002-.002h-8.647z" fill="#b5d334"/><path d="m-119.511 125.034v5.187l4.326-5.187z" fill="#b5d334"/><path d="m-119.511 125.034h4.326l-4.326-5.187z" fill="#b5d334"/><path d="m-119.511 130.221h8.65l-4.324-5.187z" fill="#b5d334"/><path d="m-103.634 125.034-.724 2.612 2.148 2.575v-5.187z" fill="#006831"/><path d="m-103.634 125.034h1.424v-5.132z" fill="#006831"/><path d="m-97.885 125.034h.002l4.323-5.187h-8.634l-.004.013z" fill="#007534"/><path d="m-97.883 125.034h-.002l4.325 5.187v-5.187z" fill="#007534"/><path d="m-93.56 125.034v-5.187l-4.323 5.187z" fill="#007534"/><path d="m-97.885 125.034-4.313-5.174-.012.042v5.132 5.187h8.65z" fill="#00652e"/><path d="m-89.234 125.034 4.325-5.187h-8.651l4.325 5.187z" fill="#bace32"/><path d="m-89.234 125.034h-.001l4.326 5.187v-5.187z" fill="#9fcc3b"/><path d="m-84.909 125.034v-5.187l-4.325 5.187z" fill="#9fcc3b"/><path d="m-93.56 125.034v5.187l4.325-5.187z" fill="#bace32"/><path d="m-89.235 125.034-4.325-5.187v5.187z" fill="#bace32"/><path d="m-93.56 130.221h8.651l-4.326-5.187z" fill="#9fcc3b"/><path d="m-80.584 125.034 4.326-5.187h-8.651z" fill="#b5d334"/><path d="m-80.584 125.034 4.326 5.187v-5.187z" fill="#9fcc3b"/><path d="m-76.258 125.034v-5.187l-4.326 5.187z" fill="#9fcc3b"/><path d="m-84.909 125.034v5.187l4.325-5.187z" fill="#9fcc3b"/><path d="m-80.584 125.034-4.325-5.187v5.187z" fill="#9fcc3b"/><path d="m-84.909 130.221h8.651l-4.326-5.187z" fill="#9fcc3b"/><path d="m-123.835 135.409 4.324-5.187h-8.65l4.325 5.187z" fill="#a6ce39"/><path d="m-123.835 135.409h-.001l4.325 5.187v-5.187z" fill="#b5d334"/><path d="m-119.511 135.409v-5.187l-4.324 5.187z" fill="#b5d334"/><path d="m-115.185 135.409 4.324-5.187h-8.65z" fill="#b5d334"/><path d="m-115.185 135.409 4.324 5.187v-5.187z" fill="#b5d334"/><path d="m-110.861 135.409v-5.187l-4.324 5.187z" fill="#b5d334"/><path d="m-119.511 135.409v5.187l4.326-5.187z" fill="#b5d334"/><path d="m-115.185 135.409-4.326-5.187v5.187z" fill="#b5d334"/><path d="m-119.511 140.596h8.65l-4.324-5.187z" fill="#a6ce39"/><path d="m-106.535 135.409h-.001l4.326 5.187v-5.187z" fill="#bfd730"/><path d="m-102.21 135.409v-5.187l-4.325 5.187z" fill="#bfd730"/><path d="m-102.21 130.221-2.148-2.575-.001.003-2.179-2.613-.002-.002-4.321-5.184-.001-.001-4.323 5.185 4.324 5.187z" fill="#bace32"/><path d="m-110.861 135.409v5.187l4.325-5.187h.001l4.325-5.187h-8.651z" fill="#bace32"/><path d="m-110.861 140.596h8.651l-4.326-5.187z" fill="#bfd730"/><path d="m-102.21 130.222 4.325 5.187 4.325 5.187v-5.187-5.187z" fill="#007534"/><path d="m-102.21 135.409v5.187l4.325-5.187z" fill="#a9cf38"/><path d="m-97.885 135.409-4.325-5.187v5.187z" fill="#a9cf38"/><path d="m-102.21 140.596h8.65l-4.325-5.187z" fill="#bfd730"/><path d="m-89.234 135.409 4.325-5.187h-8.651l4.325 5.187z" fill="#bace32"/><path d="m-89.234 135.409h-.001l4.326 5.187v-5.187z" fill="#bace32"/><path d="m-84.909 135.409v-5.187l-4.325 5.187z" fill="#bace32"/><path d="m-93.56 135.409v5.187l4.325-5.187z" fill="#bace32"/><path d="m-89.235 135.409-4.325-5.187v5.187z" fill="#bace32"/><path d="m-93.56 140.596h8.651l-4.326-5.187z" fill="#bace32"/><path d="m-80.584 135.409 4.326-5.187h-8.651z" fill="#9fcc3b"/><path d="m-80.584 135.409 4.326 5.187v-5.187z" fill="#bace32"/><path d="m-76.258 135.409v-5.187l-4.326 5.187z" fill="#bace32"/><path d="m-84.909 135.409v5.187l4.325-5.187z" fill="#bace32"/><path d="m-80.584 135.409-4.325-5.187v5.187z" fill="#bace32"/><path d="m-84.909 140.596h8.651l-4.326-5.187z" fill="#bace32"/><path d="m-115.185 145.783 4.324-5.186h-8.65z" fill="#b5d334"/><path d="m-115.185 145.783 4.324 5.188v-5.188z" fill="#b5d334"/><path d="m-110.861 145.783v-5.186l-4.324 5.186z" fill="#b5d334"/><path d="m-106.535 145.783 4.325-5.186h-8.651l4.325 5.186z" fill="#bfd730"/><path d="m-106.535 145.783h-.001l4.326 5.188v-5.188z" fill="#bfd730"/><path d="m-102.21 145.783v-5.186l-4.325 5.186z" fill="#bfd730"/><path d="m-110.861 145.783v5.188l4.325-5.188z" fill="#a9cf38"/><path d="m-106.536 145.783-4.325-5.186v5.186z" fill="#a9cf38"/><path d="m-110.861 150.971h8.651l-4.326-5.188z" fill="#bfd730"/><path d="m-97.883 145.783 4.323-5.186h-8.65l4.325 5.186z" fill="#bfd730"/><path d="m-97.883 145.783h-.002l4.325 5.188v-5.188z" fill="#a9cf38"/><path d="m-93.56 145.783v-5.186l-4.323 5.186z" fill="#a9cf38"/><path d="m-102.21 145.783v5.188l4.325-5.188z" fill="#a9cf38"/><path d="m-97.885 145.783-4.325-5.186v5.186z" fill="#bfd730"/><path d="m-102.21 150.971h8.65l-4.325-5.188z" fill="#a9cf38"/><path d="m-89.234 145.783 4.325-5.186h-8.651l4.325 5.186z" fill="#bace32"/><path d="m-89.234 145.783h-.001l4.326 5.188v-5.188z" fill="#a9cf38"/><path d="m-84.909 145.783v-5.186l-4.325 5.186z" fill="#a9cf38"/><path d="m-93.56 145.783v5.188l4.325-5.188z" fill="#bace32"/><path d="m-89.235 145.783-4.325-5.186v5.186z" fill="#bace32"/><path d="m-93.56 150.971h8.651l-4.326-5.188z" fill="#a9cf38"/><path d="m-80.584 145.783 4.326-5.186h-8.651z" fill="#b5d334"/><path d="m-80.584 145.783 4.326 5.188v-5.188z" fill="#b5d334"/><path d="m-76.258 145.783v-5.186l-4.326 5.186z" fill="#b5d334"/><path d="m-84.909 145.783v5.188l4.325-5.188z" fill="#bfd730"/><path d="m-80.584 145.783-4.325-5.186v5.186z" fill="#b5d334"/><path d="m-84.909 150.971h8.651l-4.326-5.188z" fill="#bfd730"/><path d="m-106.535 156.159 4.325-5.188h-8.651l4.325 5.188z" fill="#bfd730"/><path d="m-106.535 156.159h-.001l4.326 5.187v-5.187z" fill="#b5d334"/><path d="m-102.21 156.159v-5.188l-4.325 5.188z" fill="#b5d334"/><path d="m-97.883 156.159 4.323-5.188h-8.65l4.325 5.188z" fill="#b5d334"/><g fill="#a9cf38"><path d="m-97.883 156.159h-.002l4.325 5.187v-5.187z"/><path d="m-93.56 156.159v-5.188l-4.323 5.188z"/><path d="m-102.21 156.159v5.187l4.325-5.187z"/><path d="m-97.885 156.159-4.325-5.188v5.188z"/><path d="m-102.21 161.346h8.65l-4.325-5.187z"/><path d="m-89.234 156.159 4.325-5.188h-8.651l4.325 5.188z"/><path d="m-89.234 156.159h-.001l4.326 5.187v-5.187z"/><path d="m-84.909 156.159v-5.188l-4.325 5.188z"/><path d="m-93.56 156.159v5.187l4.325-5.187z"/><path d="m-89.235 156.159-4.325-5.188v5.188z"/></g><path d="m-93.56 161.346h8.651l-4.326-5.187z" fill="#b5d334"/><path d="m-80.584 156.159 4.326-5.188h-8.651z" fill="#bfd730"/><path d="m-80.584 156.159 4.326 5.187v-5.187z" fill="#bfd730"/><path d="m-76.258 156.159v-5.188l-4.326 5.188z" fill="#bfd730"/><path d="m-84.909 156.159v5.187l4.325-5.187z" fill="#a9cf38"/><path d="m-80.584 156.159-4.325-5.188v5.188z" fill="#a9cf38"/><path d="m-84.909 161.346h8.651l-4.326-5.187z" fill="#a9cf38"/><path d="m-97.883 166.534 4.323-5.187h-8.65l4.325 5.187z" fill="#a9cf38"/><path d="m-93.56 171.72v-5.186h-4.323-.002l4.324 5.185z" fill="#b5d334"/><path d="m-93.56 166.534v-5.187l-4.323 5.187z" fill="#b5d334"/><path d="m-123.836 135.409-4.325-5.187v5.187 5.187h8.65z" fill="#479d3c"/><path d="m-119.511 150.971h8.65l-4.324-5.188-4.326-5.186h-8.65v5.186l2.661 1.995 4.26 3.193z" fill="#479d3c"/><path d="m-106.536 156.159-4.325-5.188h-8.65-1.729l1.064.798.665.499 2.882 2.16 1.776 1.332.533.399 3.459 2.593 1.333.998 2.129 1.596h5.189z" fill="#479d3c"/><path d="m-97.885 166.534-4.325-5.187h-5.189l3.193 2.392 1.996 1.496 1.731 1.299 1.597 1.195 5.321 3.99z" fill="#479d3c"/><path d="m-89.234 166.534 4.325-5.187h-8.651l4.325 5.187z" fill="#a9cf38"/><path d="m-89.234 166.534h-.001l4.326 5.186v-5.186z" fill="#b5d334"/><path d="m-84.909 166.534v-5.187l-4.325 5.187z" fill="#b5d334"/><path d="m-93.559 171.72 4.324-5.186h-4.325v5.186z" fill="#b5d334"/><path d="m-89.235 166.534-4.325-5.187v5.187z" fill="#b5d334"/><path d="m-93.559 171.72h.001 8.649l-4.326-5.186z" fill="#bfd730"/><path d="m-80.584 166.534 4.326-5.187h-8.651z" fill="#b5d334"/><path d="m-80.584 166.534 4.326 5.186v-5.186z" fill="#b5d334"/><path d="m-76.258 166.534v-5.187l-4.326 5.187z" fill="#b5d334"/><path d="m-84.909 166.534v5.186l4.325-5.186z" fill="#b5d334"/><path d="m-80.584 166.534-4.325-5.187v5.187z" fill="#b5d334"/><path d="m-84.909 171.72h8.651l-4.326-5.186z" fill="#b5d334"/><path d="m-93.561 171.719.001.001z"/><path d="m-93.56 171.72h.002-.001z"/><path d="m-93.56 88.727.002-.004-.002-.001z"/><path d="m-97.875 104.285h-.008-.002l.007.007z"/><path d="m-97.873 104.269-.01.016h.008z"/><path d="m-115.185 114.659h-.003l.001.001z"/><path d="m-102.21 119.846h.016l.008-.029z"/><path d="m-110.861 119.847h-.003l.002.002z"/><path d="m-110.861 119.85v-.003l-.001.002z"/><path d="m-106.54 125.034.002.002.002-.002z"/><path d="m-102.198 119.86.004-.013h-.016z"/><path d="m-102.198 119.86-.012-.013v.055z"/><path d="m-42.901 114.17h5.759l8.988 32.513h.115l9.622-32.513h6.333l9.62 32.513h.118l8.987-32.513h5.753l-11.865 40.676h-5.819l-9.91-33.204h-.116l-9.849 33.204h-5.818z" fill="#1e1e1e"/><path d="m365.742 154.846h-5.763l-8.98-32.518h-.121l-9.619 32.518h-6.337l-9.613-32.518h-.116l-8.987 32.518h-5.763l11.865-40.676h5.819l9.909 33.206h.115l9.847-33.206h5.82z" fill="#b5d334"/><path d="m71.836 114.17h14.27c10.376 0 13.014 6.263 13.014 11.37 0 5.176-3.841 10.053-9.975 10.747l11.518 18.559h-6.879l-10.314-17.926h-6.131v17.926h-5.502v-40.676zm5.503 17.928h7.223c4.354 0 8.709-1.035 8.709-6.553 0-5.51-4.355-6.546-8.709-6.546h-7.22v13.099z" fill="#1e1e1e"/><path d="m114.869 113.355h14.562c10.578 0 13.27 6.39 13.27 11.602s-2.688 11.6-13.27 11.6h-8.948v18.286h-5.613v-41.488zm5.613 18.286h7.368c4.444 0 8.885-1.052 8.885-6.678 0-5.629-4.441-6.685-8.885-6.685h-7.368z" fill="#1e1e1e"/><path d="m199.354 114.016h5.861v40.83h-5.861z" fill="#1e1e1e"/><path d="m470.789 114.016h5.86v40.83h-5.86z" fill="#b5d334"/><path d="m223.517 114.016h7.175l22.2 33.561h.113v-33.561h5.463v40.83h-6.945l-22.429-33.568h-.115v33.568h-5.464v-40.83z" fill="#1e1e1e"/><path d="m284.201 119.255h-13.096v-5.179h31.712v5.179h-13.099v35.591h-5.513v-35.591z" fill="#1e1e1e"/><path d="m378.691 113.966h26.111v5.195h-20.618v12.185h19.19v5.195h-19.19v13.104h21.649v5.201h-27.14v-40.879h-.002z" fill="#b5d334"/><path d="m420.683 114.559h14.016c16.978 0 21.124 12.691 21.124 20.143 0 10.297-7.666 20.146-22.027 20.146h-13.112v-40.289zm5.447 35.163h6.869c9.2 0 17.03-5.062 17.03-15.021 0-5.117-2.669-15.02-15.72-15.02h-8.177v30.04h-.002z" fill="#b5d334"/><path d="m41.275 114.559h-4.65l-16.692 40.287h5.99l3.744-9.96 1.82-4.783 7.166-18.486h.107l7.062 18.486 1.869 4.783 3.798 9.96h5.99z" fill="#1e1e1e"/><path d="m169.657 114.559h-4.653l-16.69 40.287h5.992l3.742-9.96 1.82-4.783 7.167-18.486h.104l7.064 18.486 1.869 4.783 3.801 9.96h5.985z" fill="#1e1e1e"/><path d="m513.59 114.559h-4.652l-16.69 40.287h5.984l3.751-9.96 1.817-4.783 7.175-18.486h.098l7.062 18.486 1.869 4.783 3.8 9.96h5.984z" fill="#b5d334"/></svg>