<svg height="256" viewBox="0 0 701 256" width="701" xmlns="http://www.w3.org/2000/svg"><g fill="#000" fill-rule="evenodd"><path d="m91.2938843 190.619435c.8292367 9.325 10.0290697 15.833726 18.8846907 16.271813 8.699162.422441 17.898994-5.413507 17.883348-14.816738 0-10.044715-9.950839-17.257509-19.35407-17.539136h-.531963c-8.839975-.015646-17.7112423 6.508725-16.8820057 16.084061z"/><path d="m152.547873 174.519728c-9.387585.297273-19.338424 7.494421-19.338424 17.539136 0 9.418877 9.184187 15.239179 17.883348 14.816738 8.855621-.438087 18.039808-6.946813 18.884691-16.271813.829236-9.575336-8.042031-16.099707-16.897652-16.099707-.187752.015646-.359858.015646-.531963.015646z"/><path d="m54.9639326 185.894351c1.4394296 8.27672 8.8243294 15.50516 17.0854037 16.913298 7.9950927 1.361199 14.8949672-4.396519 14.0657306-12.657593-.9231124-9.074665-9.2780626-17.273156-18.3214356-18.196268-.4693792-.046938-.9387584-.062584-1.3768457-.062584-7.5100675.015646-12.7671148 6.383557-11.452853 14.003147z"/><path d="m193.493387 171.969434c-9.074665.923112-17.413969 9.121603-18.337082 18.196268-.829236 8.261074 6.070638 14.018792 14.065731 12.657593 8.245428-1.408138 15.630328-8.636578 17.069758-16.913298 1.314261-7.61959-3.92714-14.003147-11.437207-14.003147-.438088 0-.891821.015646-1.3612.062584z"/><path d="m50.7864575 148.015448c.4850252 8.965143 7.1658561 18.086746 16.5377946 18.915982 9.7630878.876175 16.4908566-8.214136 16.2092291-17.320093-.2972735-9.48146-7.6978192-19.35407-17.7894725-19.416654h-.0938758c-9.4032304 0-15.3487006 9.090311-14.8636754 17.820765z"/><path d="m195.527363 130.194683c-10.107299.062584-17.507845 9.935194-17.789472 19.416654-.281628 9.105957 6.446141 18.196268 16.209229 17.320093 9.371938-.829236 16.052769-9.950839 16.537795-18.915982.469379-8.7461-5.476091-17.820765-14.879322-17.820765z"/><path d="m67.3242521 88.7954358c-9.3719385.8448825-16.0527694 9.9664854-16.5377946 18.9003362-.4850252 8.777392 5.4917369 17.914641 14.9575512 17.852057 10.0916533-.046938 17.492199-9.919548 17.7894725-19.4323.2659816-8.6991616-5.8515943-17.3826771-14.9106133-17.3826771-.4380872 0-.8605285.0156459-1.2986158.0625839z"/><path d="m177.737891 106.131175c.297273 9.497106 7.697819 19.369716 17.789472 19.4323 9.450169.062584 15.426931-9.074665 14.957552-17.852057-.485026-8.9338508-7.165857-18.0554537-16.537795-18.9003363-.422441-.0469379-.876175-.0625839-1.298616-.0625839-9.059019-.0156459-15.192241 8.6678696-14.910613 17.3826772z"/><path d="m72.0493363 52.9192173c-8.2610743 1.4081376-15.6459741 8.6678696-17.0854037 16.9132979-1.4081377 8.0733226 4.5842704 14.7854455 12.8140527 13.9405629 9.043373-.9231125 17.3983232-9.1216029 18.3214357-18.1962678.7353607-7.4474837-4.7876681-12.8609907-11.7344806-12.8609907-.7510067 0-1.5333054.0625839-2.3156041.2033977z"/><path d="m175.156305 65.5768103c.923113 9.0746649 9.278063 17.2731553 18.337082 18.1962678 8.214136.8448826 14.206544-5.8672403 12.798407-13.9405629-1.43943-8.2454283-8.82433-15.5051603-17.069758-16.9132979-.797945-.1408138-1.564598-.2033977-2.33125-.2033977-6.946813 0-12.485488 5.429153-11.734481 12.8609907z"/><path d="m110.178575 48.851264c-8.855621.4380873-18.055454 6.9468125-18.8846907 16.287459-.8448826 9.7474418 8.4018881 16.3343969 17.4139687 16.0684153 9.403231-.2816275 19.338424-7.4944215 19.35407-17.5391369.015646-9.0903109-8.573993-14.8480293-16.991527-14.8480293-.281628 0-.578902 0-.891821.0312919z"/><path d="m133.193803 63.6680014c0 10.0447154 9.950839 17.2575094 19.338424 17.5391369 9.027727.2659816 18.258851-6.3209735 17.429615-16.0684153-.844883-9.3250005-10.02907-15.8493717-18.884691-16.287459-.297273-.015646-.610193-.015646-.89182-.015646-8.401888-.0156459-16.991528 5.7420725-16.991528 14.8323834z"/><path d="m89.0252181 149.783443c.2816275 10.404572 9.1528948 19.19761 19.5418219 19.447945 10.482802.281628 19.479237-8.370596 19.479237-18.900336 0-10.76443-9.262416-19.932971-20.0112-19.979909h-.031292c-10.5140949-.015646-19.2601944 8.918205-18.9785669 19.4323"/><path d="m153.236296 130.335497c-10.764431.031292-20.011201 9.215479-20.011201 19.979909 0 10.52974 8.980789 19.181964 19.463591 18.900336 10.388927-.265981 19.244549-9.043373 19.557468-19.432299.281628-10.529741-8.464472-19.447946-18.962921-19.447946z"/><path d="m108.56704 86.4954776c-10.3889271.2816275-19.2445484 9.0590189-19.5418219 19.4479454-.2972735 10.529741 8.4801179 19.447946 18.9942129 19.447946 10.76443-.015646 20.0112-9.215479 20.0112-19.995555 0-10.3576346-8.714807-18.9003364-18.994212-18.9003364z"/><path d="m133.225095 105.41146c0 10.76443 9.262416 19.964263 20.011201 19.979909 10.514094 0 19.291486-8.918205 19.009858-19.447946-.297273-10.3889265-9.152895-19.1663179-19.541822-19.4479454h-.469379c-10.295051 0-19.025504 8.5427018-19.009858 18.9159824"/><path d="m95.1740859 221.754923c1.2986158 7.494422 10.5923241 11.046058 17.2418631 11.499791 5.992408.391149 15.708558-1.924455 15.692912-9.528398-.015646-8.370596-10.76443-12.454195-17.67995-12.829699-.297274 0-.610193-.015646-.923113-.015646-6.305327-.015646-15.6616199 3.097903-14.3317121 10.873952"/><path d="m150.826816 210.880971c-6.899875.375504-17.648659 4.474749-17.664305 12.829699-.015646 7.603943 9.700504 9.919547 15.708558 9.528398 6.618247-.453733 15.927601-4.005369 17.226217-11.499791 1.345554-7.776049-8.026384-10.889598-14.331712-10.889598-.328565.015646-.641485.031292-.938758.031292"/><path d="m62.1610807 215.324428c2.2686662 6.774707 9.7943797 11.531083 16.4595647 13.080034 5.1788174 1.173448 13.236494-.250335 11.8752943-7.275378-1.5176595-7.713465-10.4984486-13.189556-17.6799507-14.488172-.7979447-.125168-1.5958894-.203397-2.40948-.203397-5.1318795.015646-10.279405 2.831921-8.2454283 8.886913"/><path d="m188.455383 206.672204c-7.197148 1.28297-16.177937 6.759061-17.679951 14.45688-1.376845 7.025043 6.680831 8.448826 11.859649 7.244086 6.665185-1.517659 14.206544-6.289681 16.459565-13.048742 2.033976-6.054992-3.113549-8.871267-8.229783-8.871267-.81359 0-1.627181.062583-2.40948.219043"/><path d="m37.6125474 206.015073c2.5815857 5.851595 7.9481548 11.139934 13.7841031 13.658936 4.6937922 2.049622 8.9651431.046938 7.0406883-5.444799-2.3156041-6.555663-8.6835156-12.798407-15.2391787-15.067073-.9544044-.328566-1.799287-.500672-2.5346478-.500672-3.5359901.015646-4.787668 3.395177-3.0509649 7.353608"/><path d="m218.057566 199.146491c-6.540017 2.284312-12.93922 8.527056-15.239179 15.082719-1.9401 5.491737 2.33125 7.494421 7.025043 5.444799 5.851594-2.534648 11.249455-7.822987 13.799749-13.658936 1.752349-3.958431.485025-7.353608-3.050965-7.353608-.751007.015646-1.611535.15646-2.534648.485026"/><path d="m28.81951 179.150936c1.5958893 6.727769 6.5087252 14.175252 13.3147239 16.428273 6.9781044 2.299958 9.8726096-4.646855 8.7930374-10.498449-1.3299078-7.259732-6.9781044-16.099707-14.7228616-17.664305-.563255-.093876-1.0952182-.140813-1.5958893-.140813-5.6638426 0-6.9155206 7.025042-5.7890104 11.875294"/><path d="m225.051316 167.416455c-7.744757 1.548952-13.392953 10.388927-14.738507 17.679951-1.063926 5.851594 1.830579 12.798407 8.793037 10.482803 6.821645-2.284313 11.734481-9.700504 13.314724-16.428273 1.142156-4.850252-.109522-11.875294-5.804656-11.875294-.485025 0-1.016988.046937-1.564598.140813"/><path d="m23.7971523 145.543384c.4850252 6.774706 4.2557049 16.021477 11.8127104 17.335739 8.2141364 1.455075 11.3589772-8.777392 10.9834738-15.160949-.4067953-7.056334-4.7250842-17.742535-13.1739102-17.820764h-.1095218c-7.6039434.015646-9.9821314 9.590982-9.5127522 15.645974"/><path d="m227.851946 129.913056c-8.448826.109521-12.767115 10.76443-13.17391 17.820764-.359858 6.383557 2.753691 16.616024 10.999119 15.160949 7.54136-1.314262 11.327686-10.576679 11.797065-17.320093.453733-6.070638-1.924455-15.645974-9.512752-15.645974h-.109522z"/><path d="m35.5942167 92.8320971c-7.5413595 1.3455537-11.3120392 10.5923239-11.7970644 17.3513849-.4537332 6.10193 1.9244548 15.755496 9.622274 15.645974 8.448826-.093876 12.7514689-10.780076 13.1739102-17.83641.3442114-5.94547-2.3625421-15.3017627-9.4501683-15.3017627-.4850252 0-1.0013424.0469379-1.5489515.1408138"/><path d="m214.678036 107.993046c.391149 7.07198 4.725084 17.742534 13.17391 17.83641 7.697819.093876 10.076007-9.544044 9.622274-15.645974-.485025-6.759061-4.255705-16.0058312-11.797065-17.335739-.547609-.0938758-1.04828-.1408137-1.533305-.1408137-7.103272-.015646-9.810026 9.3406467-9.465814 15.2861167"/><path d="m42.1342339 60.1633032c-6.8059987 2.2530203-11.7344805 9.700504-13.299078 16.4126268-1.2516779 5.2726933.3442115 13.1269722 7.3848998 11.7344806 7.7447571-1.5333055 13.3929538-10.4045728 14.7228616-17.6799507.9231124-5.0380037-1.1108642-10.9365359-6.1958057-10.9365359-.7979447 0-1.6741193.1408138-2.6128777.4693792"/><path d="m210.312809 70.6304599c1.329908 7.2753779 6.99375 16.1466452 14.738507 17.6799507 7.025043 1.3924916 8.620932-6.4617873 7.3849-11.7344806-1.595889-6.7121228-6.508725-14.1596065-13.33037-16.4126268-.938758-.3285654-1.814933-.4537332-2.597231-.4537332-5.069296-.015646-7.118919 5.8828862-6.195806 10.9208899"/><path d="m51.4122965 36.0528572c-5.8359483 2.5346478-11.2338094 7.8229871-13.7997491 13.6432894-2.1122065 4.803314.1877517 8.7773915 5.5856127 6.8842286 6.5556631-2.2843122 12.9235746-8.5427018 15.2391787-15.098365 1.4237837-4.0679532-.563255-6.2114517-3.598574-6.2114517-1.0326343.015646-2.2217283.2659816-3.4264683.7822987"/><path d="m202.818387 41.4976562c2.299959 6.5713091 8.683516 12.8140528 15.239179 15.098365 5.413507 1.8931628 7.713465-2.0652686 5.585613-6.8842286-2.56594-5.8359483-7.948155-11.1242876-13.799749-13.6589354-1.20474-.5163171-2.378188-.7666527-3.426469-.7666527-3.035319 0-5.038003 2.1434985-3.598574 6.2114517"/><path d="m78.6206454 27.3380497c-6.665185 1.5333055-14.1908985 6.2896816-16.4595647 13.0643883-2.3468961 7.0250424 4.9284818 9.684858 10.6392623 8.6678697 7.1971481-1.2986159 16.1779372-6.7590608 17.6799507-14.472526 1.1108641-5.5856128-3.7863257-7.6352354-8.448826-7.6352354-1.1734481 0-2.3468961.1408138-3.4108223.3755034"/><path d="m170.775432 34.5977817c1.51766 7.7134652 10.482803 13.1739101 17.679951 14.472526 5.710781 1.0326342 12.986159-1.6271813 10.639263-8.6522237-2.268667-6.7747068-9.79438-11.5467288-16.459565-13.0643883-1.04828-.2346896-2.237374-.3755034-3.410823-.3755034-4.6625-.015646-9.544044 2.0183307-8.448826 7.6195894"/><path d="m112.400303 22.4877977c-6.633893.4537333-15.9276013 4.0366614-17.2262171 11.499791-1.4081377 8.1671984 9.0120811 11.1868714 15.2704711 10.858306 6.899874-.3755034 17.648658-4.4903946 17.664304-12.8296988.015646-7.0719802-8.35495-9.5596901-14.363004-9.5596901-.453733 0-.907466.015646-1.345554.0312919"/><path d="m133.146865 32.0161959c.015646 8.3549502 10.76443 12.4541954 17.664305 12.8296988 6.258389.3285654 16.662962-2.6911076 15.254824-10.873952-1.298616-7.4631296-10.576678-11.0460577-17.226217-11.484145-.438087-.0156459-.876175-.0469379-1.345554-.0469379-5.992408 0-14.363004 2.5190018-14.347358 9.5753361"/><path d="m99.7270643 241.437559c1.6741197 5.210109 10.4828027 6.508725 15.0514267 6.852936 3.379531.250336 13.392954.438087 13.377308-4.772022-.031292-5.898532-11.249455-7.494421-15.473868-7.776049-.422441-.031292-1.001342-.062584-1.689765-.062584-4.365227 0-12.845345.844883-11.2651017 5.757719"/><path d="m148.542503 235.726778c-4.208767.297274-15.411284 1.908809-15.442576 7.760403-.015646 5.225755 9.997777 5.05365 13.377308 4.803314 4.568624-.344211 13.377308-1.642827 15.051427-6.852936 1.580243-4.89719-6.899875-5.757719-11.265101-5.757719-.688423 0-1.28297.031292-1.721058.046938"/><path d="m70.7194285 234.615914c2.9414431 4.865898 9.7787337 7.525713 15.0044891 8.902559 2.2686662.578901 11.7344805 2.17479 9.9351935-2.738045-2.0652686-5.648197-10.827014-8.683516-16.1309992-9.919548-.9387585-.219044-2.6441697-.453733-4.3495808-.453733-3.2387167 0-6.4774333.844882-4.4591026 4.208767"/><path d="m181.727614 230.86088c-5.303985 1.236032-14.06573 4.271351-16.130999 9.935194-1.783641 4.912835 7.666527 3.316946 9.935194 2.722399 5.241401-1.345554 12.078692-4.021015 15.004489-8.902559 2.01833-3.379531-1.236032-4.208767-4.474749-4.208767-1.689765 0-3.395176.250335-4.333935.453733"/><path d="m48.2361638 224.618136c3.3013005 4.412165 8.3862421 7.854279 13.3147239 10.201176 2.0652685 1.001342 8.5114099 2.894505 5.8359483-1.3612-3.1917787-5.100588-9.3093546-9.027727-14.6915696-11.405915-1.1734481-.516317-2.5815858-.876175-3.6768039-.891821-1.7367032.015646-2.6754616.907467-.7822987 3.45776"/><path d="m208.576106 222.067843c-5.382215 2.393834-11.499791 6.305327-14.69157 11.374623-2.675461 4.271351 3.77068 2.378188 5.851594 1.376846 4.912836-2.346897 9.997778-5.804657 13.314724-10.216822 1.893163-2.534647.938759-3.410822-.782298-3.426468-1.110865 0-2.503356.375504-3.69245.891821"/><path d="m22.0604492 195.76696c2.393834 4.928482 5.9298241 9.95084 10.4045727 13.236494 4.1461831 3.050965 4.0835993-1.12651 2.6441696-4.286997-2.4407719-5.397861-6.4617872-11.437207-11.5780208-14.628985-.7510067-.453734-1.2986158-.657131-1.7210571-.657131-2.0026847 0-.625839 4.537332.2503356 6.336619"/><path d="m237.740201 190.071826c-5.131879 3.191778-9.137248 9.231124-11.593666 14.628985-1.408138 3.176133-1.486368 7.337962 2.659815 4.286997 4.459103-3.270008 7.995093-8.292366 10.404573-13.220848.876174-1.830579 2.25302-6.352265.250336-6.352265-.422442.015646-.970051.203397-1.721058.657131"/><path d="m13.2204739 171.859912c1.4237836 5.272693 4.2244129 12.094338 9.1372488 15.020135 5.2101094 3.097903 4.5373325-5.86724 3.8645556-8.66787-1.2986159-5.413507-4.4591026-14.050084-10.2011751-16.177937-.4380873-.172105-.8448826-.234689-1.189094-.234689-3.5359902 0-2.1747904 7.932508-1.6115353 10.060361"/><path d="m245.234623 162.03424c-5.726427 2.127853-8.902559 10.76443-10.201175 16.162291-.672777 2.816276-1.3612 11.765773 3.864555 8.683516 4.928482-2.957089 7.713466-9.747442 9.137249-15.020135.578901-2.127853 1.940101-10.076007-1.595889-10.076007-.359857 0-.751007.07823-1.20474.250335"/><path d="m8.22940813 142.883568c.40679533 4.709438 1.86187087 13.455538 7.15021017 15.192241 5.7890104 1.908809 6.0237-9.653566 5.7733644-12.876637-.3285655-4.380873-2.0965605-15.520806-8.0889686-15.645974h-.1095218c-5.21010936.015646-5.0067117 9.935194-4.72508417 13.33037"/><path d="m248.207358 129.568844c-5.992408.125168-7.760403 11.265101-8.104615 15.645974-.234689 3.223071 0 14.785446 5.789011 12.876637 5.288339-1.736703 6.743415-10.482803 7.15021-15.192241.281628-3.37953.500671-13.314724-4.725084-13.314724-.046938-.015646-.093876-.015646-.109522-.015646"/><path d="m15.3639723 97.6510571c-5.2883392 1.7367031-6.74341482 10.4828029-7.15021014 15.1922409-.29727351 3.410822-.4850252 13.439892 4.81896004 13.33037 6.008054-.125168 7.7760491-11.249456 8.1046145-15.630328.2346896-2.988381.031292-13.0956806-4.5686244-13.0956806-.3598574-.015646-.7510068.0469379-1.20474.2033977"/><path d="m240.118389 110.527694c.328566 4.396518 2.096561 15.489514 8.088969 15.645974 5.319631.109522 5.116234-9.919548 4.81896-13.33037-.406795-4.678146-1.846225-13.4555378-7.15021-15.176595-.422441-.1564597-.829237-.2190436-1.220386-.2190436-4.599916-.015646-4.772022 10.0916536-4.537333 13.0800346"/><path d="m22.3733687 68.8624648c-4.9284819 2.9414431-7.7291112 9.7474418-9.1372489 15.0357811-.6258389 2.3156041-2.2060823 11.6562506 2.7849834 9.8100257 5.7420725-2.1122065 8.9025592-10.7800761 10.2011751-16.1935831.578901-2.3938341 1.1578021-9.3093546-1.9401008-9.3093546-.5319631 0-1.1578021.2033977-1.9088088.6571309"/><path d="m235.033448 77.5146885c1.298616 5.413507 4.474748 14.0500847 10.201175 16.1622912 4.991066 1.8775168 3.426468-7.4631297 2.800629-9.7943798-1.423783-5.2570473-4.224413-12.063046-9.137249-15.0044891-.751006-.4693792-1.392491-.6571309-1.908808-.6571309-3.113549 0-2.534648 6.8998745-1.955747 9.2937086"/><path d="m32.449376 46.7234115c-4.4591027 3.2700086-7.9950928 8.2923663-10.3889268 13.2364941-1.0639262 2.1747904-2.8475673 8.3705961 1.4707215 5.6951345 5.1162336-3.1761327 9.1372489-9.2154787 11.5780208-14.6289857 1.0795722-2.393834 1.3611998-5.3509231-.3442114-5.3509231-.5319631 0-1.3142618.2972735-2.3156041 1.0482802"/><path d="m226.146535 51.0260544c2.440772 5.413507 6.461787 11.452853 11.593666 14.6289857 4.318289 2.6911076 2.534648-3.5203441 1.470722-5.6951345-2.40948-4.9441278-5.94547-9.9664855-10.404573-13.2364941-1.001342-.7510067-1.767995-1.0482802-2.33125-1.0482802-1.689765 0-1.392492 2.9570891-.328565 5.3509231"/><path d="m61.5508877 20.8919084c-4.9284818 2.3468961-10.0134234 5.8203023-13.299078 10.216821-3.1135488 4.1774751 1.3924917 3.8958476 4.4278107 2.5502938 5.397861-2.393834 11.5154369-6.2896815 14.7072156-11.3902691 1.2673239-2.0183306.4850252-2.6441696-.9231125-2.6441696-1.5489514 0-3.8489096.7666527-4.9128358 1.2673239"/><path d="m193.884536 22.2844001c3.207425 5.0849416 9.309355 8.9807891 14.69157 11.3902691 3.050965 1.3299078 7.557005 1.6115353 4.443456-2.5502938-3.285654-4.4121647-8.370596-7.8542789-13.314724-10.216821-1.079572-.5163172-3.37953-1.2673239-4.912835-1.2673239-1.408138-.015646-2.174791.610193-.907467 2.6441696"/><path d="m85.7239176 12.2083928c-5.2257554 1.3611997-12.078692 4.0366613-15.0044891 8.9182052-3.0822569 5.1475255 6.1175758 4.3808727 8.8086834 3.7550338 5.3039852-1.2516779 14.0657306-4.2713509 16.1466452-9.9351935.9856963-2.7380455-1.5020135-3.4421143-4.2869969-3.4421143-2.2373743 0-4.6625003.4537332-5.6638426.7040688"/><path d="m165.596615 14.9307923c2.065269 5.6794886 10.827014 8.6991616 16.130999 9.9351935 2.691108.6571309 11.906587 1.3924917 8.808684-3.7550338-2.925797-4.8658979-9.778734-7.5413595-15.004489-8.8869132-1.001343-.2659816-3.426469-.7197148-5.648197-.7197148-2.800629 0-5.272693.7197148-4.286997 3.4264683"/><path d="m114.778491 7.45201669c-4.568624.34421143-13.392953 1.64282728-15.0514267 6.85293661-1.8305789 5.6794886 9.8256717 5.9141782 12.9705127 5.7107805 4.224413-.2972735 15.442576-1.9088088 15.473868-7.7760491 0-4.1305371-6.289681-4.88154385-10.592324-4.88154385-1.110864 0-2.096561.03129195-2.80063.09387584"/><path d="m133.099927 12.2240388c.031292 5.8672402 11.233809 7.4944215 15.442576 7.7760491 3.144841.2033976 14.816738-.031292 12.986159-5.7107806-1.674119-5.19446333-10.482803-6.49307918-15.051427-6.85293658-.688423-.0625839-1.674119-.09387585-2.784984-.09387585-4.302642.01564598-10.623616.73536078-10.592324 4.88154393"/><path d="m104.170521 251.357106c.985696 1.877517 9.434522 3.144841 12.798407 3.410822.735361.046938 2.894505.265982 5.131879.265982h.109522c2.957089 0 6.008054-.344211 5.992408-1.799287-.015646-3.004027-10.889598-3.551636-13.126972-3.723742-.344212-.031292-1.28297-.062584-2.48771-.062584-3.53599 0-9.246771.297274-8.417534 1.908809"/><path d="m146.179961 249.510881c-2.237374.172106-13.111326.704069-13.126972 3.739388-.015646 1.43943 3.035319 1.783641 5.992408 1.783641h.093876c2.25302 0 4.396519-.203398 5.147525-.265982 3.363885-.265981 11.812711-1.533305 12.782761-3.410822.844883-1.627181-4.881544-1.908809-8.417534-1.908809-1.189094 0-2.127852.031292-2.472064.062584"/><path d="m79.9974911 245.521158c1.5802434 2.206082 8.7773914 4.490394 13.1426182 5.523029 9.0590187 2.159144 8.4018877.156459 8.4018877.156459-.844882-1.893163-9.9195472-4.881544-14.0970223-5.961116-.7979447-.219043-4.0835992-1.001342-6.1019299-1.001342-1.2829698-.015646-2.0339766.312919-1.3455537 1.28297"/><path d="m173.795105 245.223884c-4.177475 1.079572-13.25214 4.083599-14.081376 5.992408 0 0-.657131 1.971393 8.401888-.156459 4.380873-1.048281 11.578021-3.332593 13.142618-5.538675.704069-.970051-.062584-1.28297-1.345554-1.28297-2.01833 0-5.288339.766653-6.117576.985696"/><path d="m58.6720285 236.243095c3.7863257 2.894505 8.1984904 5.038004 12.5324252 6.884229 1.0795722.453733 7.4005457 2.581585 5.2101093.829236-4.0523073-3.254362-9.1216029-5.460445-13.7997491-7.510067-1.0169883-.438087-3.6611579-1.408138-4.5999164-1.408138-.5163171 0-.5006711.31292.657131 1.20474"/><path d="m198.640912 236.446493c-4.693792 2.065268-9.763088 4.271351-13.815395 7.510067-2.159144 1.752349 4.146183-.359857 5.225756-.81359 4.318288-1.861871 8.730453-4.00537 12.516779-6.899875 1.173448-.89182 1.189094-1.20474.657131-1.20474-.938759 0-3.582928.970051-4.584271 1.408138"/><path d="m31.9799967 213.525141c3.0666109 3.974077 6.7590608 7.635235 10.7644302 10.670554 2.4877098 1.877517 4.6781462 2.346896 2.2217283-.89182-3.3638844-4.443457-7.5413595-8.558348-12.0004621-11.890941-1.0169883-.73536-1.6897652-1.079572-2.0652686-1.079572-.7979447 0-.2503356 1.455076 1.0795722 3.191779"/><path d="m228.290033 211.42858c-4.443457 3.301301-8.636578 7.447484-12.000462 11.890941-2.456418 3.22307-.265982 2.738045 2.221728.844882 4.021016-3.019673 7.713465-6.665185 10.76443-10.654908 1.345554-1.736703 1.877517-3.191779 1.079573-3.191779-.359858.015646-1.032635.359858-2.065269 1.110864"/><path d="m13.3769336 186.097748c2.0183306 4.240059 4.3495808 8.542702 7.3379618 12.141276 2.5815857 3.129195.4537333-2.190436-.3285654-3.786326-2.2373743-4.599916-4.6468543-9.544044-8.0107387-13.408599-.2816276-.328566-.4693793-.46938-.5789011-.46938-.6414849 0 1.1578021 4.615563 1.5802434 5.523029"/><path d="m248.880135 181.044099c-3.348239 3.880201-5.773365 8.824329-8.010739 13.424245-.766653 1.580244-2.910151 6.915521-.328565 3.786326 3.004027-3.598574 5.319631-7.916863 7.337962-12.156922.453733-.89182 2.221728-5.507383 1.580243-5.507383-.109522-.015646-.297274.140814-.578901.453734"/><path d="m5.38184085 165.64846c1.03263429 4.271351 2.75369144 9.731796 4.95977375 11.922232 2.3468961 2.315605 1.2673239-4.991065.7510068-7.275377-1.0013424-4.365227-3.03531898-11.31204-5.49173691-12.798407-.17210571-.109522-.31291948-.15646-.43808727-.15646-1.45507559-.015646-.18775169 6.586955.21904363 8.308012"/><path d="m255.639196 157.481262c-2.456418 1.502013-4.506041 8.448826-5.491737 12.829699-.516317 2.268666-1.59589 9.575336.751007 7.259731 2.221728-2.206082 3.942785-7.650881 4.959773-11.922232.422442-1.736703 1.689766-8.308012.219044-8.308012-.125168-.015646-.250336.031292-.438087.140814"/><path d="m.87580033 136.672116v.219044c0 1.236032.04693792 2.346896.09387584 3.082257.21904364 3.739388.89182052 10.733138 2.98838105 12.078692 2.28431221 1.486367 2.25302026-7.744757 2.11220649-10.326343-.17210571-3.504698-1.00134234-12.36032-3.36388442-12.422903l-.01564597-.015646c-1.48636754 0-1.81493299 4.083599-1.81493299 7.384899"/><path d="m258.564993 129.318509c-2.346896.078229-3.176133 8.933851-3.363885 12.422903-.125167 2.581586-.172105 11.81271 2.127853 10.326343 2.09656-1.345554 2.753691-8.339304 2.972735-12.078692.15646-2.7224.344211-10.670554-1.705411-10.6862z"/><path d="m3.94241124 103.659111c-2.09656052 1.3612-2.7693374 8.339304-2.98838104 12.094338-.03129195.751007-.07822987 1.877517-.07822987 3.144841v.093876c0 3.332592.32856545 7.478775 1.83057896 7.447483 2.34689611-.093876 3.19177871-8.949497 3.36388442-12.438549.14081377-2.393834.17210572-10.482803-1.6271813-10.482803-.17210571-.015646-.32856545.031292-.50067117.140814"/><path d="m255.201108 113.985454c.172106 3.489052 1.016989 12.360319 3.348239 12.438549 2.09656.062584 1.908809-7.9638 1.752349-10.670554-.219044-3.755034-.891821-10.748784-2.972735-12.094338-.172106-.109522-.328566-.15646-.469379-.15646-1.846225 0-1.783641 8.088969-1.658474 10.482803"/><path d="m10.3572606 78.1718194c-2.22172831 2.2060823-3.92713948 7.6352353-4.95977377 11.9222322-.45373325 1.8775169-1.92445481 9.4501683.21904364 8.1515525 2.45641792-1.4863676 4.49039453-8.448826 5.49173693-12.8140528.4380872-1.9713927 1.3142618-7.7134652.0156459-7.7134652-.2190436 0-.4537332.1408138-.7666527.4537333"/><path d="m250.147459 85.4315513c.985696 4.3652268 3.035319 11.3276852 5.491737 12.8140528 2.127852 1.2986158.672777-6.2740356.219043-8.1515525-1.016988-4.2869969-2.738045-9.7317959-4.959773-11.9378782-.31292-.3129195-.563256-.4537332-.766653-.4537332-1.298616.0156459-.422441 5.7577184.015646 7.7291111"/><path d="m20.7148954 57.4878417c-2.988381 3.629866-5.3196312 7.9168629-7.3379618 12.1569218-.5163172 1.0639263-2.8788592 7.2127941-1.0013423 5.0536496 3.3638844-3.8958475 5.7733644-8.8399753 8.0107387-13.4242457.610193-1.2360319 2.0339766-4.7563761 1.4081376-4.7563761-.1721057.015646-.5163171.2816275-1.0795722.9700504"/><path d="m240.869396 61.2741674c2.25302 4.5842704 4.6625 9.5283982 8.010739 13.4085998 1.893163 2.1747904-.469379-3.9897234-1.001342-5.0536497-1.987039-4.2400589-4.333935-8.5270558-7.337962-12.1569218-.563255-.6884228-.891821-.9700504-1.063926-.9700504-.641485.031292.782298 3.5359902 1.392491 4.7720221"/><path d="m42.7444269 31.5468167c-4.0053694 3.035319-7.7134652 6.6964769-10.7644302 10.6705543-1.9713927 2.5659398-2.2217283 4.4747486.9700504 2.0965605 4.4591026-3.3169465 8.6522237-7.4631296 12.0161081-11.8909402 1.2829699-1.6741193 1.2986158-2.3625421.6727769-2.3625421-.5789011.015646-1.6897652.578901-2.8945052 1.4863675"/><path d="m216.289571 32.4386372c3.363884 4.4278107 7.541359 8.5583478 12.000462 11.8752943 3.223071 2.3781881 2.957089.4693793.985696-2.0965605-3.06661-3.9897234-6.75906-7.6352353-10.76443-10.6705543-1.189094-.9074665-2.315604-1.4863675-2.894505-1.4863675-.610193 0-.594547.6884228.672777 2.378188"/><path d="m71.2044537 12.5995422c-4.3339348 1.8462249-8.7460995 4.0053693-12.5324252 6.8998745-3.2387167 2.4720639 2.362542.4850252 3.9427854-.2033977 4.6781462-2.0652685 9.7474418-4.2557049 13.7997491-7.5100675.625839-.5163171.5476091-.6727769.1095218-.6727769-1.0952181-.0312919-4.5529784 1.1421561-5.3196311 1.4863676"/><path d="m184.841163 11.7703055c4.036661 3.2543626 9.121603 5.460445 13.799749 7.5100676 1.580244.6884228 7.165856 2.6754615 3.942786.2033976-3.801972-2.8945052-8.198491-5.0536496-12.532425-6.8998745-.766653-.3285655-4.240059-1.5020135-5.335278-1.5020135-.438087.0156459-.500671.1877517.125168.6884228"/><path d="m93.1557552 4.69832526c-4.3652267 1.04828026-11.5780207 3.3169465-13.1426182 5.53867484-1.8149329 2.5033558 6.1175759.6258389 7.4474837.2816275 4.1618291-1.09521818 13.2521403-4.09924519 14.0813763-5.97676208 0 0 .281628-.8448826-2.0026843-.8448826-1.236032.01564598-3.2074247.25033559-6.3835575 1.00134234"/><path d="m159.713729 4.54186552c.860528 1.87751689 9.935193 4.8815439 14.097022 5.96111608 1.314262.3598574 9.246771 2.2373743 7.447484-.2816275-1.580243-2.22172832-8.777391-4.49039455-13.158264-5.52302884-3.160487-.75100675-5.147526-1.00134234-6.383557-1.00134234-2.284313 0-2.002685.8448826-2.002685.8448826"/><path d="m122.100807.70860188c-2.237374 0-4.412164.20339766-5.131879.26598156-3.363885.26598156-11.812711 1.53330545-12.798407 3.41082234-1.12651 2.15914442 9.528398 1.95574675 10.905244 1.84622494 2.237374-.17210572 13.111326-.70406884 13.111326-3.72374183.015646-1.43942961-3.035319-1.78364104-5.992408-1.78364104h-.093876z"/><path d="m139.045397.70860188c-2.957089 0-6.0237.34421143-6.008054 1.78364104.015646 3.01967299 10.905244 3.55163611 13.126972 3.72374182 1.376846.09387585 12.0474.31291948 10.905244-1.84622493-.985696-1.87751689-9.434522-3.14484079-12.798407-3.41082235-.73536-.06258389-2.894505-.26598155-5.147525-.26598155h-.07823z"/><path d="m302 54h18v82h-18z"/><path d="m335 54h18v82h-18z"/><path d="m368.55619 97.103448v-.2346896c0-23.3281473 17.413969-42.4475276 42.384944-42.4475276 15.333055 0 24.517241 5.1631714 32.058601 12.657593l-11.390269 13.25214c-6.25839-5.7577185-12.657593-9.2624166-20.7935-9.2624166-13.690227 0-23.562837 11.4997909-23.562837 25.5811675v.2190437c0 14.0813766 9.622274 25.8158576 23.562837 25.8158576 9.325001 0 14.973197-3.755034 21.372401-9.622275l11.390269 11.609313c-8.370596 9.043373-17.664305 14.660278-33.341571 14.660278-23.93834 0-41.680875-18.634355-41.680875-42.228484"/><path d="m493.03556 95.6953103c8.730453 0 13.705873-4.6625003 13.705873-11.5936668v-.2503355c0-7.7447572-5.350923-11.7344806-14.050085-11.7344806h-17.75818v23.5628369h18.102392zm-36.001386-39.8815878h37.174834c10.326343 0 18.337082 2.9414431 23.688005 8.3236582 4.521686 4.5686244 6.962458 11.0304117 6.962458 18.7751688v.2346896c0 13.267786-7.087626 21.5757979-17.413969 25.4559999l19.854741 29.320555h-20.887375l-17.429615-26.26959h-.250336-13.799749v26.26959h-17.898994z"/><path d="m537.094623 97.103448v-.2346896c0-23.3281473 17.429615-42.4475276 42.431881-42.4475276 15.317409 0 24.470304 5.1631714 32.027309 12.657593l-11.390269 13.25214c-6.258389-5.7577185-12.673239-9.2624166-20.762207-9.2624166-13.72152 0-23.594129 11.4997909-23.594129 25.5811675v.2190437c0 14.0813766 9.63792 25.8158576 23.594129 25.8158576 9.278062 0 14.973197-3.755034 21.356754-9.622275l11.390269 11.609313c-8.370596 9.043373-17.648658 14.660278-33.357216 14.660278-23.922695 0-41.696521-18.634355-41.696521-42.228484"/><path d="m298.229634 153.525475h1.716v18.408h-1.716zm7.818 9.776c0-.225334-.008667-.498331-.026-.819-.017334-.320668-.030333-.645665-.039-.975s-.021667-.636998-.039-.923c-.017334-.286001-.026-.506999-.026-.663h1.56c.017333.450669.030333.883998.039 1.3.008667.416003.030333.684667.065.806h.078c.312001-.65867.831996-1.22633 1.56-1.703.728003-.476669 1.577328-.715 2.548-.715.936005 0 1.698664.147332 2.288.442.589336.294669 1.052998.680331 1.391 1.157.338002.47667.571999 1.026997.702 1.651.13.624004.195 1.26533.195 1.924v7.15h-1.56v-7.072c0-.485335-.043333-.957664-.13-1.417-.086667-.459335-.238332-.870998-.455-1.235-.216668-.364001-.519998-.654332-.91-.871-.390002-.216667-.896997-.325-1.521-.325-.572003 0-1.113664.099666-1.625.299-.511336.199335-.953332.502665-1.326.91-.372669.407336-.667332.918664-.884 1.534-.216668.615337-.325 1.338996-.325 2.171v6.006h-1.56zm15.982 5.564c.329335.641337.814663 1.130999 1.456 1.469.641336.338002 1.31733.507 2.028.507.329335 0 .658665-.051999.988-.156.329335-.104.623999-.251332.884-.442.260001-.190667.472332-.420332.637-.689.164667-.268668.247-.576331.247-.923 0-.554669-.177665-.970665-.533-1.248-.355335-.277334-.792998-.493999-1.313-.65-.520003-.156-1.091997-.290332-1.716-.403-.624003-.112667-1.195998-.285998-1.716-.52-.520003-.234001-.957665-.558997-1.313-.975-.355335-.416002-.533-1.005329-.533-1.768 0-.589336.121332-1.100664.364-1.534.242668-.433335.558998-.792998.949-1.079.390002-.286001.827664-.498332 1.313-.637.485336-.138667.979331-.208 1.482-.208.988005 0 1.841663.181999 2.561.546.719337.364002 1.278331.935997 1.677 1.716l-1.404.832c-.294668-.554669-.662998-.974998-1.105-1.261-.442002-.286001-1.01833-.429-1.729-.429-.277335 0-.567665.043333-.871.13-.303335.086668-.576332.208-.819.364-.242668.156001-.446333.355333-.611.598-.164668.242668-.247.519999-.247.832 0 .537336.177665.935999.533 1.196.355335.260002.792997.463666 1.313.611.520002.147335 1.091997.273 1.716.377.624003.104001 1.195997.272999 1.716.507.520002.234002.957665.571998 1.313 1.014.355335.442003.533 1.07033.533 1.885 0 .624004-.116999 1.165665-.351 1.625-.234001.459336-.554665.844999-.962 1.157-.407336.312002-.870998.546-1.391.702-.520003.156001-1.065997.234-1.638.234-1.040005 0-1.988996-.199331-2.847-.598-.858004-.398668-1.520998-1.013995-1.989-1.846zm18.426-7.54h-3.432v7.826c0 .537336.147332.953332.442 1.248.294668.294669.701997.442 1.222.442.294668 0 .593665-.038999.897-.117.303335-.078.593665-.177666.871-.299l.13 1.404c-.294668.104001-.632665.199333-1.014.286-.381335.086668-.719332.13-1.014.13-.55467 0-1.031332-.082332-1.43-.247-.398669-.164667-.719332-.385665-.962-.663-.242668-.277334-.420333-.602331-.533-.975-.112667-.372668-.169-.775664-.169-1.209v-7.826h-2.6v-1.404h2.6v-3.458h1.56v3.458h3.432zm4.568-1.404h1.56v12.012h-1.56zm-.39-4.758c0-.329335.112665-.606665.338-.832.225334-.225334.502665-.338.832-.338s.606665.112666.832.338c.225334.225335.338.502665.338.832s-.112666.606666-.338.832c-.225335.225335-.502665.338-.832.338s-.606666-.112665-.832-.338c-.225335-.225334-.338-.502665-.338-.832zm13.746 6.162h-3.432v7.826c0 .537336.147332.953332.442 1.248.294668.294669.701997.442 1.222.442.294668 0 .593665-.038999.897-.117.303335-.078.593665-.177666.871-.299l.13 1.404c-.294668.104001-.632665.199333-1.014.286-.381335.086668-.719332.13-1.014.13-.55467 0-1.031332-.082332-1.43-.247-.398669-.164667-.719332-.385665-.962-.663-.242668-.277334-.420333-.602331-.533-.975-.112667-.372668-.169-.775664-.169-1.209v-7.826h-2.6v-1.404h2.6v-3.458h1.56v3.458h3.432zm14.448 7.228c0 .225335.008666.498332.026.819.017333.320669.030333.645665.039.975s.021666.636999.039.923c.017333.286002.026.507.026.663h-1.56c-.017334-.450668-.030333-.883997-.039-1.3-.008667-.416002-.030333-.684666-.065-.806h-.078c-.312002.65867-.831997 1.226331-1.56 1.703-.728004.47667-1.577329.715-2.548.715-.936005 0-1.702997-.147331-2.301-.442-.598003-.294668-1.065998-.68033-1.404-1.157-.338002-.476669-.567666-1.026996-.689-1.651-.121334-.624003-.182-1.26533-.182-1.924v-7.15h1.56v7.072c0 .485336.043333.957665.13 1.417.086667.459336.238332.870999.455 1.235.216668.364002.519998.654333.91.871.390002.216668.896997.325 1.521.325.572003 0 1.113664-.099665 1.625-.299.511336-.199334.953331-.502664 1.326-.91.372668-.407335.667332-.918663.884-1.534.216668-.615336.325-1.338995.325-2.171v-6.006h1.56zm11.666-7.228h-3.432v7.826c0 .537336.147332.953332.442 1.248.294668.294669.701997.442 1.222.442.294668 0 .593665-.038999.897-.117.303335-.078.593665-.177666.871-.299l.13 1.404c-.294668.104001-.632665.199333-1.014.286-.381335.086668-.719332.13-1.014.13-.55467 0-1.031332-.082332-1.43-.247-.398669-.164667-.719332-.385665-.962-.663-.242668-.277334-.420333-.602331-.533-.975-.112667-.372668-.169-.775664-.169-1.209v-7.826h-2.6v-1.404h2.6v-3.458h1.56v3.458h3.432zm14.89 8.346c-.60667.918672-1.356329 1.577332-2.249 1.976-.892671.398669-1.876328.598-2.951.598-.918671 0-1.750663-.155998-2.496-.468-.745337-.312001-1.386664-.749663-1.924-1.313-.537336-.563336-.948999-1.230662-1.235-2.002-.286002-.771337-.429-1.624995-.429-2.561 0-.901337.147332-1.733329.442-2.496.294668-.76267.710664-1.425663 1.248-1.989.537336-.563336 1.169996-1.005331 1.898-1.326.728003-.320668 1.533995-.481 2.418-.481.918671 0 1.728996.160332 2.431.481.702003.320669 1.291331.745331 1.768 1.274.476669.52867.836332 1.130997 1.079 1.807.242668.676004.364 1.360664.364 2.054v1.092h-10.088c0 .329335.064999.749665.195 1.261.13.511336.368331 1.009665.715 1.495.346668.485336.81033.901332 1.391 1.248.580669.346669 1.330329.52 2.249.52.797337 0 1.568663-.190664 2.314-.572.745337-.381335 1.317331-.90133 1.716-1.56zm-1.196-4.758c0-.537336-.108332-1.039997-.325-1.508-.216668-.468002-.511332-.879664-.884-1.235-.372669-.355335-.814664-.636999-1.326-.845s-1.052997-.312-1.625-.312c-.849338 0-1.555664.173332-2.119.52-.563336.346669-1.009665.745332-1.339 1.196-.329335.450669-.563333.888332-.702 1.313-.138668.424669-.208.715-.208.871zm14.128 1.014c0-.918671.155998-1.763662.468-2.535.312001-.771337.74533-1.438663 1.3-2.002.554669-.563336 1.221996-1.000998 2.002-1.313.780004-.312001 1.629329-.468 2.548-.468s1.763663.155999 2.535.468c.771337.312002 1.438664.749664 2.002 1.313.563336.563337 1.000998 1.230663 1.313 2.002.312001.771338.468 1.616329.468 2.535 0 .918672-.155999 1.763663-.468 2.535-.312002.771338-.749664 1.438664-1.313 2.002-.563336.563337-1.230663 1.000999-2.002 1.313-.771337.312002-1.616329.468-2.535.468s-1.767996-.155998-2.548-.468c-.780004-.312001-1.447331-.749663-2.002-1.313-.55467-.563336-.987999-1.230662-1.3-2.002-.312002-.771337-.468-1.616328-.468-2.535zm1.56 0c0 .676004.108332 1.312997.325 1.911s.532998 1.117998.949 1.56c.416002.442003.918664.792999 1.508 1.053.589336.260002 1.247996.39 1.976.39.728003 0 1.386664-.129998 1.976-.39.589336-.260001 1.091998-.610997 1.508-1.053.416002-.442002.732332-.961997.949-1.56s.325-1.234996.325-1.911c0-.676003-.108332-1.312997-.325-1.911s-.532998-1.117997-.949-1.56c-.416002-.442002-.918664-.792998-1.508-1.053-.589336-.260001-1.247997-.39-1.976-.39-.728004 0-1.386664.129999-1.976.39-.589336.260002-1.091998.610998-1.508 1.053-.416002.442003-.732332.961997-.949 1.56s-.325 1.234997-.325 1.911zm16.944-4.602h-2.496v-1.404h2.496v-3.926c0-.780003.116999-1.425664.351-1.937.234001-.511335.524331-.922998.871-1.235.346668-.312001.732331-.532999 1.157-.663.424669-.13.827665-.195 1.209-.195.728003 0 1.325997.103999 1.794.312l-.312 1.352c-.346669-.173334-.814664-.26-1.404-.26-1.404007 0-2.106 1.06599-2.106 3.198v3.354h2.808v1.404h-2.808v10.608h-1.56zm17.014-7.8h1.716v18.408h-1.716zm7.818 9.776c0-.225334-.008667-.498331-.026-.819-.017334-.320668-.030333-.645665-.039-.975s-.021667-.636998-.039-.923c-.017334-.286001-.026-.506999-.026-.663h1.56c.017333.450669.030333.883998.039 1.3.008667.416003.030333.684667.065.806h.078c.312001-.65867.831996-1.22633 1.56-1.703.728003-.476669 1.577328-.715 2.548-.715.936005 0 1.698664.147332 2.288.442.589336.294669 1.052998.680331 1.391 1.157.338002.47667.571999 1.026997.702 1.651.13.624004.195 1.26533.195 1.924v7.15h-1.56v-7.072c0-.485335-.043333-.957664-.13-1.417-.086667-.459335-.238332-.870998-.455-1.235-.216668-.364001-.519998-.654332-.91-.871-.390002-.216667-.896997-.325-1.521-.325-.572003 0-1.113664.099666-1.625.299-.511336.199335-.953332.502665-1.326.91-.372669.407336-.667332.918664-.884 1.534-.216668.615337-.325 1.338996-.325 2.171v6.006h-1.56zm15.982 5.564c.329335.641337.814663 1.130999 1.456 1.469.641336.338002 1.31733.507 2.028.507.329335 0 .658665-.051999.988-.156.329335-.104.623999-.251332.884-.442.260001-.190667.472332-.420332.637-.689.164667-.268668.247-.576331.247-.923 0-.554669-.177665-.970665-.533-1.248-.355335-.277334-.792998-.493999-1.313-.65-.520003-.156-1.091997-.290332-1.716-.403-.624003-.112667-1.195998-.285998-1.716-.52-.520003-.234001-.957665-.558997-1.313-.975-.355335-.416002-.533-1.005329-.533-1.768 0-.589336.121332-1.100664.364-1.534.242668-.433335.558998-.792998.949-1.079.390002-.286001.827664-.498332 1.313-.637.485336-.138667.979331-.208 1.482-.208.988005 0 1.841663.181999 2.561.546.719337.364002 1.278331.935997 1.677 1.716l-1.404.832c-.294668-.554669-.662998-.974998-1.105-1.261-.442002-.286001-1.01833-.429-1.729-.429-.277335 0-.567665.043333-.871.13-.303335.086668-.576332.208-.819.364-.242668.156001-.446333.355333-.611.598-.164668.242668-.247.519999-.247.832 0 .537336.177665.935999.533 1.196.355335.260002.792997.463666 1.313.611.520002.147335 1.091997.273 1.716.377.624003.104001 1.195997.272999 1.716.507.520002.234002.957665.571998 1.313 1.014.355335.442003.533 1.07033.533 1.885 0 .624004-.116999 1.165665-.351 1.625-.234001.459336-.554665.844999-.962 1.157-.407336.312002-.870998.546-1.391.702-.520003.156001-1.065997.234-1.638.234-1.040005 0-1.988996-.199331-2.847-.598-.858004-.398668-1.520998-1.013995-1.989-1.846zm12.212-8.944h1.56v2.106h.052c.242668-.416002.545998-.775665.91-1.079.364002-.303334.758331-.554665 1.183-.754.424669-.199334.870997-.346666 1.339-.442.468002-.095333.927331-.143 1.378-.143.918671 0 1.763663.155999 2.535.468.771337.312002 1.438664.749664 2.002 1.313.563336.563337 1.000998 1.230663 1.313 2.002.312001.771338.468 1.616329.468 2.535 0 .918672-.155999 1.763663-.468 2.535-.312002.771338-.749664 1.438664-1.313 2.002-.563336.563337-1.230663 1.000999-2.002 1.313-.771337.312002-1.616329.468-2.535.468-.450669 0-.909998-.047666-1.378-.143-.468003-.095333-.914331-.242665-1.339-.442-.424669-.199334-.818998-.450665-1.183-.754-.364002-.303334-.667332-.662997-.91-1.079h-.052v8.034h-1.56zm1.404 6.006c0 .676004.129999 1.312997.39 1.911s.615331 1.117998 1.066 1.56c.450669.442003.97933.792999 1.586 1.053.60667.260002 1.26533.39 1.976.39.728003 0 1.386664-.129998 1.976-.39.589336-.260001 1.091998-.610997 1.508-1.053.416002-.442002.732332-.961997.949-1.56s.325-1.234996.325-1.911c0-.676003-.108332-1.312997-.325-1.911s-.532998-1.117997-.949-1.56c-.416002-.442002-.918664-.792998-1.508-1.053-.589336-.260001-1.247997-.39-1.976-.39-.71067 0-1.36933.129999-1.976.39-.60667.260002-1.135331.610998-1.586 1.053-.450669.442003-.805999.961997-1.066 1.56s-.39 1.234997-.39 1.911zm26.928 3.744c-.60667.918672-1.356329 1.577332-2.249 1.976-.892671.398669-1.876328.598-2.951.598-.918671 0-1.750663-.155998-2.496-.468-.745337-.312001-1.386664-.749663-1.924-1.313-.537336-.563336-.948999-1.230662-1.235-2.002-.286002-.771337-.429-1.624995-.429-2.561 0-.901337.147332-1.733329.442-2.496.294668-.76267.710664-1.425663 1.248-1.989.537336-.563336 1.169996-1.005331 1.898-1.326.728003-.320668 1.533995-.481 2.418-.481.918671 0 1.728996.160332 2.431.481.702003.320669 1.291331.745331 1.768 1.274.476669.52867.836332 1.130997 1.079 1.807.242668.676004.364 1.360664.364 2.054v1.092h-10.088c0 .329335.064999.749665.195 1.261.13.511336.368331 1.009665.715 1.495.346668.485336.81033.901332 1.391 1.248.580669.346669 1.330329.52 2.249.52.797337 0 1.568663-.190664 2.314-.572.745337-.381335 1.317331-.90133 1.716-1.56zm-1.196-4.758c0-.537336-.108332-1.039997-.325-1.508-.216668-.468002-.511332-.879664-.884-1.235-.372669-.355335-.814664-.636999-1.326-.845s-1.052997-.312-1.625-.312c-.849338 0-1.555664.173332-2.119.52-.563336.346669-1.009665.745332-1.339 1.196-.329335.450669-.563333.888332-.702 1.313-.138668.424669-.208.715-.208.871zm16.606 5.252c-.589336.710671-1.256663 1.234999-2.002 1.573-.745337.338002-1.551329.507-2.418.507-.918671 0-1.767996-.155998-2.548-.468-.780004-.312001-1.447331-.749663-2.002-1.313-.55467-.563336-.987999-1.230662-1.3-2.002-.312002-.771337-.468-1.616328-.468-2.535 0-.918671.155998-1.763662.468-2.535.312001-.771337.74533-1.438663 1.3-2.002.554669-.563336 1.221996-1.000998 2.002-1.313.780004-.312001 1.629329-.468 2.548-.468.884004 0 1.702996.181999 2.457.546.754004.364002 1.425664.87533 2.015 1.534l-1.248.936c-.450669-.502669-.944664-.896998-1.482-1.183-.537336-.286001-1.117997-.429-1.742-.429-.728004 0-1.386664.129999-1.976.39-.589336.260002-1.091998.610998-1.508 1.053-.416002.442003-.732332.961997-.949 1.56s-.325 1.234997-.325 1.911c0 .676004.108332 1.312997.325 1.911s.532998 1.117998.949 1.56c.416002.442003.918664.792999 1.508 1.053.589336.260002 1.247996.39 1.976.39.65867 0 1.260997-.151665 1.807-.455.546003-.303334 1.018331-.70633 1.417-1.209zm9.82-8.84h-3.432v7.826c0 .537336.147332.953332.442 1.248.294668.294669.701997.442 1.222.442.294668 0 .593665-.038999.897-.117.303335-.078.593665-.177666.871-.299l.13 1.404c-.294668.104001-.632665.199333-1.014.286-.381335.086668-.719332.13-1.014.13-.55467 0-1.031332-.082332-1.43-.247-.398669-.164667-.719332-.385665-.962-.663-.242668-.277334-.420333-.602331-.533-.975-.112667-.372668-.169-.775664-.169-1.209v-7.826h-2.6v-1.404h2.6v-3.458h1.56v3.458h3.432zm4.568-1.404h1.56v12.012h-1.56zm-.39-4.758c0-.329335.112665-.606665.338-.832.225334-.225334.502665-.338.832-.338s.606665.112666.832.338c.225334.225335.338.502665.338.832s-.112666.606666-.338.832c-.225335.225335-.502665.338-.832.338s-.606666-.112665-.832-.338c-.225335-.225334-.338-.502665-.338-.832zm7.194 10.764c0-.918671.155998-1.763662.468-2.535.312001-.771337.74533-1.438663 1.3-2.002.554669-.563336 1.221996-1.000998 2.002-1.313.780004-.312001 1.629329-.468 2.548-.468s1.763663.155999 2.535.468c.771337.312002 1.438664.749664 2.002 1.313.563336.563337 1.000998 1.230663 1.313 2.002.312001.771338.468 1.616329.468 2.535 0 .918672-.155999 1.763663-.468 2.535-.312002.771338-.749664 1.438664-1.313 2.002-.563336.563337-1.230663 1.000999-2.002 1.313-.771337.312002-1.616329.468-2.535.468s-1.767996-.155998-2.548-.468c-.780004-.312001-1.447331-.749663-2.002-1.313-.55467-.563336-.987999-1.230662-1.3-2.002-.312002-.771337-.468-1.616328-.468-2.535zm1.56 0c0 .676004.108332 1.312997.325 1.911s.532998 1.117998.949 1.56c.416002.442003.918664.792999 1.508 1.053.589336.260002 1.247996.39 1.976.39.728003 0 1.386664-.129998 1.976-.39.589336-.260001 1.091998-.610997 1.508-1.053.416002-.442002.732332-.961997.949-1.56s.325-1.234996.325-1.911c0-.676003-.108332-1.312997-.325-1.911s-.532998-1.117997-.949-1.56c-.416002-.442002-.918664-.792998-1.508-1.053-.589336-.260001-1.247997-.39-1.976-.39-.728004 0-1.386664.129999-1.976.39-.589336.260002-1.091998.610998-1.508 1.053-.416002.442003-.732332.961997-.949 1.56s-.325 1.234997-.325 1.911zm16.06-2.626c0-.225334-.008667-.498331-.026-.819-.017334-.320668-.030333-.645665-.039-.975s-.021667-.636998-.039-.923c-.017334-.286001-.026-.506999-.026-.663h1.56c.017333.450669.030333.883998.039 1.3.008667.416003.030333.684667.065.806h.078c.312001-.65867.831996-1.22633 1.56-1.703.728003-.476669 1.577328-.715 2.548-.715.936005 0 1.698664.147332 2.288.442.589336.294669 1.052998.680331 1.391 1.157.338002.47667.571999 1.026997.702 1.651.13.624004.195 1.26533.195 1.924v7.15h-1.56v-7.072c0-.485335-.043333-.957664-.13-1.417-.086667-.459335-.238332-.870998-.455-1.235-.216668-.364001-.519998-.654332-.91-.871-.390002-.216667-.896997-.325-1.521-.325-.572003 0-1.113664.099666-1.625.299-.511336.199335-.953332.502665-1.326.91-.372669.407336-.667332.918664-.884 1.534-.216668.615337-.325 1.338996-.325 2.171v6.006h-1.56zm39.816 5.746c-.884005 1.196006-1.906661 2.053998-3.068 2.574-1.161339.520003-2.417993.78-3.77.78-1.404007 0-2.690994-.23833-3.861-.715-1.170006-.476669-2.170996-1.143995-3.003-2.002-.832004-.858004-1.481998-1.88066-1.95-3.068-.468003-1.187339-.702-2.482993-.702-3.887s.233997-2.695327.702-3.874c.468002-1.178672 1.117996-2.196995 1.95-3.055.832004-.858004 1.832994-1.529664 3.003-2.015 1.170006-.485335 2.456993-.728 3.861-.728 1.248006 0 2.413661.220998 3.497.663 1.083339.442003 2.032329 1.182995 2.847 2.223l-1.404 1.17c-.572003-.866671-1.304329-1.499331-2.197-1.898-.892671-.398668-1.806995-.598-2.743-.598-1.196006 0-2.274995.207998-3.237.624-.962005.416003-1.780997.987997-2.457 1.716-.676004.728004-1.195998 1.585996-1.56 2.574-.364002.988005-.546 2.053995-.546 3.198 0 1.144006.181998 2.209996.546 3.198.364002.988005.883996 1.845997 1.56 2.574.676003.728004 1.494995 1.299998 2.457 1.716.962005.416003 2.040994.624 3.237.624.468002 0 .953331-.056332 1.456-.169.502669-.112667.992331-.285998 1.469-.52.476669-.234001.931664-.528664 1.365-.884.433335-.355335.814665-.78433 1.144-1.287zm4.464-16.77h1.56v19.656h-1.56zm18.088 17.394c-.60667.918672-1.356329 1.577332-2.249 1.976-.892671.398669-1.876328.598-2.951.598-.918671 0-1.750663-.155998-2.496-.468-.745337-.312001-1.386664-.749663-1.924-1.313-.537336-.563336-.948999-1.230662-1.235-2.002-.286002-.771337-.429-1.624995-.429-2.561 0-.901337.147332-1.733329.442-2.496.294668-.76267.710664-1.425663 1.248-1.989.537336-.563336 1.169996-1.005331 1.898-1.326.728003-.320668 1.533995-.481 2.418-.481.918671 0 1.728996.160332 2.431.481.702003.320669 1.291331.745331 1.768 1.274.476669.52867.836332 1.130997 1.079 1.807.242668.676004.364 1.360664.364 2.054v1.092h-10.088c0 .329335.064999.749665.195 1.261.13.511336.368331 1.009665.715 1.495.346668.485336.81033.901332 1.391 1.248.580669.346669 1.330329.52 2.249.52.797337 0 1.568663-.190664 2.314-.572.745337-.381335 1.317331-.90133 1.716-1.56zm-1.196-4.758c0-.537336-.108332-1.039997-.325-1.508-.216668-.468002-.511332-.879664-.884-1.235-.372669-.355335-.814664-.636999-1.326-.845s-1.052997-.312-1.625-.312c-.849338 0-1.555664.173332-2.119.52-.563336.346669-1.009665.745332-1.339 1.196-.329335.450669-.563333.888332-.702 1.313-.138668.424669-.208.715-.208.871zm15.878 1.976c0 .589337.004333 1.117998.013 1.586.008667.468003.021666.901332.039 1.3.017333.398669.039.771332.065 1.118.026.346669.065.693332.117 1.04h-1.456c-.104001-.589336-.156-1.239329-.156-1.95h-.052c-.450669.780004-1.009663 1.351999-1.677 1.716-.667337.364002-1.512328.546-2.535.546-.520003 0-1.031331-.064999-1.534-.195-.502669-.13-.953332-.337998-1.352-.624-.398669-.286001-.723666-.654331-.975-1.105-.251335-.450668-.377-.996663-.377-1.638 0-.918671.233997-1.646664.702-2.184.468002-.537336 1.04433-.940332 1.729-1.209s1.412663-.441999 2.184-.52c.771337-.078 1.451664-.117 2.041-.117h1.82v-.728c0-1.040005-.320664-1.785331-.962-2.236-.641337-.450668-1.447329-.676-2.418-.676-1.386674 0-2.608662.450663-3.666 1.352l-.91-1.066c.572003-.554669 1.282662-.974998 2.132-1.261.849337-.286001 1.663996-.429 2.444-.429 1.456007 0 2.617329.34233 3.484 1.027.866671.684671 1.3 1.789659 1.3 3.315zm-3.12-.988c-.65867 0-1.295664.043333-1.911.13-.615337.086668-1.169998.233999-1.664.442-.494003.208001-.888332.485332-1.183.832-.294668.346669-.442.779998-.442 1.3 0 .364002.082332.688999.247.975.164667.286002.376999.52.637.702.260001.182001.550332.320667.871.416.320668.095334.645665.143.975.143.832004 0 1.516664-.121332 2.054-.364.537336-.242667.966332-.558998 1.287-.949.320668-.390001.541666-.831997.663-1.326.121334-.494002.182-.99233.182-1.495v-.806zm8.78-2.6c0-.225334-.008667-.498331-.026-.819-.017334-.320668-.030333-.645665-.039-.975s-.021667-.636998-.039-.923c-.017334-.286001-.026-.506999-.026-.663h1.56c.017333.450669.030333.883998.039 1.3.008667.416003.030333.684667.065.806h.078c.312001-.65867.831996-1.22633 1.56-1.703.728003-.476669 1.577328-.715 2.548-.715.936005 0 1.698664.147332 2.288.442.589336.294669 1.052998.680331 1.391 1.157.338002.47667.571999 1.026997.702 1.651.13.624004.195 1.26533.195 1.924v7.15h-1.56v-7.072c0-.485335-.043333-.957664-.13-1.417-.086667-.459335-.238332-.870998-.455-1.235-.216668-.364001-.519998-.654332-.91-.871-.390002-.216667-.896997-.325-1.521-.325-.572003 0-1.113664.099666-1.625.299-.511336.199335-.953332.502665-1.326.91-.372669.407336-.667332.918664-.884 1.534-.216668.615337-.325 1.338996-.325 2.171v6.006h-1.56zm16.216-3.38h1.56v12.012h-1.56zm-.39-4.758c0-.329335.112665-.606665.338-.832.225334-.225334.502665-.338.832-.338s.606665.112666.832.338c.225334.225335.338.502665.338.832s-.112666.606666-.338.832c-.225335.225335-.502665.338-.832.338s-.606666-.112665-.832-.338c-.225335-.225334-.338-.502665-.338-.832zm7.87 8.138c0-.225334-.008667-.498331-.026-.819-.017334-.320668-.030333-.645665-.039-.975s-.021667-.636998-.039-.923c-.017334-.286001-.026-.506999-.026-.663h1.56c.017333.450669.030333.883998.039 1.3.008667.416003.030333.684667.065.806h.078c.312001-.65867.831996-1.22633 1.56-1.703.728003-.476669 1.577328-.715 2.548-.715.936005 0 1.698664.147332 2.288.442.589336.294669 1.052998.680331 1.391 1.157.338002.47667.571999 1.026997.702 1.651.13.624004.195 1.26533.195 1.924v7.15h-1.56v-7.072c0-.485335-.043333-.957664-.13-1.417-.086667-.459335-.238332-.870998-.455-1.235-.216668-.364001-.519998-.654332-.91-.871-.390002-.216667-.896997-.325-1.521-.325-.572003 0-1.113664.099666-1.625.299-.511336.199335-.953332.502665-1.326.91-.372669.407336-.667332.918664-.884 1.534-.216668.615337-.325 1.338996-.325 2.171v6.006h-1.56zm28.02 7.852c0 1.490675-.216665 2.695329-.65 3.614-.433336.918672-.974997 1.629331-1.625 2.132-.650003.50267-1.347663.840666-2.093 1.014-.745337.173335-1.42133.26-2.028.26s-1.200331-.056332-1.781-.169c-.58067-.112667-1.130998-.277332-1.651-.494-.520003-.216667-.992331-.480998-1.417-.793-.424669-.312001-.792999-.667331-1.105-1.066l1.222-1.144c.554669.780004 1.247996 1.351999 2.08 1.716.832004.364002 1.715995.546 2.652.546.797337 0 1.468997-.103999 2.015-.312s.996665-.480998 1.352-.819c.355335-.338001.632666-.710664.832-1.118.199334-.407335.346666-.814664.442-1.222.095334-.407335.151666-.792998.169-1.157.017333-.364001.026-.658665.026-.884v-1.664h-.052c-.450669.728004-1.061663 1.299998-1.833 1.716-.771337.416003-1.676995.624-2.717.624-.884005 0-1.715996-.160331-2.496-.481-.780004-.320668-1.460331-.762663-2.041-1.326-.58067-.563336-1.039998-1.217662-1.378-1.963-.338002-.745337-.507-1.542662-.507-2.392 0-.849337.168998-1.646662.507-2.392.338002-.745337.79733-1.39533 1.378-1.95.580669-.554669 1.260996-.996665 2.041-1.326s1.611995-.494 2.496-.494c1.040005 0 1.945663.207998 2.717.624.771337.416003 1.382331.987997 1.833 1.716h.052v-2.028h1.56zm-1.508-5.382c0-.65867-.125666-1.27833-.377-1.859-.251335-.580669-.589331-1.083331-1.014-1.508-.424669-.424668-.927331-.762665-1.508-1.014-.58067-.251334-1.20033-.377-1.859-.377s-1.278331.125666-1.859.377c-.58067.251335-1.083331.589332-1.508 1.014-.424669.424669-.762666.927331-1.014 1.508-.251335.58067-.377 1.20033-.377 1.859s.125665 1.278331.377 1.859c.251334.58067.589331 1.083332 1.014 1.508.424669.424669.92733.762666 1.508 1.014.580669.251335 1.20033.377 1.859.377s1.27833-.125665 1.859-.377c.580669-.251334 1.083331-.589331 1.508-1.014.424669-.424668.762665-.92733 1.014-1.508.251334-.580669.377-1.20033.377-1.859zm-392.196 31.118c0 .589337.004333 1.117998.013 1.586.008667.468003.021666.901332.039 1.3.017333.398669.039.771332.065 1.118.026.346669.065.693332.117 1.04h-1.456c-.104001-.589336-.156-1.239329-.156-1.95h-.052c-.450669.780004-1.009663 1.351999-1.677 1.716-.667337.364002-1.512328.546-2.535.546-.520003 0-1.031331-.064999-1.534-.195-.502669-.13-.953332-.337998-1.352-.624-.398669-.286001-.723666-.654331-.975-1.105-.251335-.450668-.377-.996663-.377-1.638 0-.918671.233997-1.646664.702-2.184.468002-.537336 1.04433-.940332 1.729-1.209s1.412663-.441999 2.184-.52c.771337-.078 1.451664-.117 2.041-.117h1.82v-.728c0-1.040005-.320664-1.785331-.962-2.236-.641337-.450668-1.447329-.676-2.418-.676-1.386674 0-2.608662.450663-3.666 1.352l-.91-1.066c.572003-.554669 1.282662-.974998 2.132-1.261.849337-.286001 1.663996-.429 2.444-.429 1.456007 0 2.617329.34233 3.484 1.027.866671.684671 1.3 1.789659 1.3 3.315zm-3.12-.988c-.65867 0-1.295664.043333-1.911.13-.615337.086668-1.169998.233999-1.664.442-.494003.208001-.888332.485332-1.183.832-.294668.346669-.442.779998-.442 1.3 0 .364002.082332.688999.247.975.164667.286002.376999.52.637.702.260001.182001.550332.320667.871.416.320668.095334.645665.143.975.143.832004 0 1.516664-.121332 2.054-.364.537336-.242667.966332-.558998 1.287-.949.320668-.390001.541666-.831997.663-1.326.121334-.494002.182-.99233.182-1.495v-.806zm8.78-2.6c0-.225334-.008667-.498331-.026-.819-.017334-.320668-.030333-.645665-.039-.975s-.021667-.636998-.039-.923c-.017334-.286001-.026-.506999-.026-.663h1.56c.017333.450669.030333.883998.039 1.3.008667.416003.030333.684667.065.806h.078c.312001-.65867.831996-1.22633 1.56-1.703.728003-.476669 1.577328-.715 2.548-.715.936005 0 1.698664.147332 2.288.442.589336.294669 1.052998.680331 1.391 1.157.338002.47667.571999 1.026997.702 1.651.13.624004.195 1.26533.195 1.924v7.15h-1.56v-7.072c0-.485335-.043333-.957664-.13-1.417-.086667-.459335-.238332-.870998-.455-1.235-.216668-.364001-.519998-.654332-.91-.871-.390002-.216667-.896997-.325-1.521-.325-.572003 0-1.113664.099666-1.625.299-.511336.199335-.953332.502665-1.326.91-.372669.407336-.667332.918664-.884 1.534-.216668.615337-.325 1.338996-.325 2.171v6.006h-1.56zm26.46 6.526h-.052c-.242668.416003-.545998.775666-.91 1.079-.364002.303335-.758331.554666-1.183.754-.424669.199335-.870998.346667-1.339.442-.468003.095334-.927331.143-1.378.143-.918671 0-1.767996-.155998-2.548-.468-.780004-.312001-1.447331-.749663-2.002-1.313-.55467-.563336-.987999-1.230662-1.3-2.002-.312002-.771337-.468-1.616328-.468-2.535 0-.918671.155998-1.763662.468-2.535.312001-.771337.74533-1.438663 1.3-2.002.554669-.563336 1.221996-1.000998 2.002-1.313.780004-.312001 1.629329-.468 2.548-.468.450669 0 .909997.047667 1.378.143.468002.095334.914331.242666 1.339.442.424669.199335.818998.450666 1.183.754.364002.303335.667332.662998.91 1.079h.052v-9.75h1.56v19.656h-1.56zm.156-3.9c0-.676003-.129999-1.312997-.39-1.911s-.615331-1.117997-1.066-1.56c-.450669-.442002-.97933-.792998-1.586-1.053-.60667-.260001-1.26533-.39-1.976-.39-.728004 0-1.386664.129999-1.976.39-.589336.260002-1.091998.610998-1.508 1.053-.416002.442003-.732332.961997-.949 1.56s-.325 1.234997-.325 1.911c0 .676004.108332 1.312997.325 1.911s.532998 1.117998.949 1.56c.416002.442003.918664.792999 1.508 1.053.589336.260002 1.247996.39 1.976.39.71067 0 1.36933-.129998 1.976-.39.60667-.260001 1.135331-.610997 1.586-1.053.450669-.442002.805999-.961997 1.066-1.56s.39-1.234996.39-1.911zm15.428-12.402h4.836c.242668 0 .571998.008667.988.026.416002.017334.866664.069333 1.352.156.485336.086668.979331.225333 1.482.416.502669.190668.953331.467999 1.352.832.398668.364002.727999.823331.988 1.378.260001.55467.39 1.230663.39 2.028 0 .884005-.151665 1.611998-.455 2.184-.303335.572003-.684665 1.035665-1.144 1.391-.459336.355336-.966331.619666-1.521.793-.55467.173335-1.083331.294667-1.586.364l5.356 8.84h-1.95l-5.174-8.736h-3.198v8.736h-1.716zm1.716 8.112h3.64c.901338 0 1.633664-.112665 2.197-.338.563336-.225334 1.000998-.502665 1.313-.832.312001-.329335.524333-.684664.637-1.066.112667-.381335.169-.727998.169-1.04 0-.312001-.056333-.658664-.169-1.04-.112667-.381335-.324999-.736665-.637-1.066-.312002-.329335-.749664-.606665-1.313-.832-.563336-.225334-1.295662-.338-2.197-.338h-3.64zm25.368 8.034c-.60667.918672-1.356329 1.577332-2.249 1.976-.892671.398669-1.876328.598-2.951.598-.918671 0-1.750663-.155998-2.496-.468-.745337-.312001-1.386664-.749663-1.924-1.313-.537336-.563336-.948999-1.230662-1.235-2.002-.286002-.771337-.429-1.624995-.429-2.561 0-.901337.147332-1.733329.442-2.496.294668-.76267.710664-1.425663 1.248-1.989.537336-.563336 1.169996-1.005331 1.898-1.326.728003-.320668 1.533995-.481 2.418-.481.918671 0 1.728996.160332 2.431.481.702003.320669 1.291331.745331 1.768 1.274.476669.52867.836332 1.130997 1.079 1.807.242668.676004.364 1.360664.364 2.054v1.092h-10.088c0 .329335.064999.749665.195 1.261.13.511336.368331 1.009665.715 1.495.346668.485336.81033.901332 1.391 1.248.580669.346669 1.330329.52 2.249.52.797337 0 1.568663-.190664 2.314-.572.745337-.381335 1.317331-.90133 1.716-1.56zm-1.196-4.758c0-.537336-.108332-1.039997-.325-1.508-.216668-.468002-.511332-.879664-.884-1.235-.372669-.355335-.814664-.636999-1.326-.845s-1.052997-.312-1.625-.312c-.849338 0-1.555664.173332-2.119.52-.563336.346669-1.009665.745332-1.339 1.196-.329335.450669-.563333.888332-.702 1.313-.138668.424669-.208.715-.208.871zm6.57 3.952c.329335.641337.814663 1.130999 1.456 1.469.641336.338002 1.31733.507 2.028.507.329335 0 .658665-.051999.988-.156.329335-.104.623999-.251332.884-.442.260001-.190667.472332-.420332.637-.689.164667-.268668.247-.576331.247-.923 0-.554669-.177665-.970665-.533-1.248-.355335-.277334-.792998-.493999-1.313-.65-.520003-.156-1.091997-.290332-1.716-.403-.624003-.112667-1.195998-.285998-1.716-.52-.520003-.234001-.957665-.558997-1.313-.975-.355335-.416002-.533-1.005329-.533-1.768 0-.589336.121332-1.100664.364-1.534.242668-.433335.558998-.792998.949-1.079.390002-.286001.827664-.498332 1.313-.637.485336-.138667.979331-.208 1.482-.208.988005 0 1.841663.181999 2.561.546.719337.364002 1.278331.935997 1.677 1.716l-1.404.832c-.294668-.554669-.662998-.974998-1.105-1.261-.442002-.286001-1.01833-.429-1.729-.429-.277335 0-.567665.043333-.871.13-.303335.086668-.576332.208-.819.364-.242668.156001-.446333.355333-.611.598-.164668.242668-.247.519999-.247.832 0 .537336.177665.935999.533 1.196.355335.260002.792997.463666 1.313.611.520002.147335 1.091997.273 1.716.377.624003.104001 1.195997.272999 1.716.507.520002.234002.957665.571998 1.313 1.014.355335.442003.533 1.07033.533 1.885 0 .624004-.116999 1.165665-.351 1.625-.234001.459336-.554665.844999-.962 1.157-.407336.312002-.870998.546-1.391.702-.520003.156001-1.065997.234-1.638.234-1.040005 0-1.988996-.199331-2.847-.598-.858004-.398668-1.520998-1.013995-1.989-1.846zm18.426-7.54h-3.432v7.826c0 .537336.147332.953332.442 1.248.294668.294669.701997.442 1.222.442.294668 0 .593665-.038999.897-.117.303335-.078.593665-.177666.871-.299l.13 1.404c-.294668.104001-.632665.199333-1.014.286-.381335.086668-.719332.13-1.014.13-.55467 0-1.031332-.082332-1.43-.247-.398669-.164667-.719332-.385665-.962-.663-.242668-.277334-.420333-.602331-.533-.975-.112667-.372668-.169-.775664-.169-1.209v-7.826h-2.6v-1.404h2.6v-3.458h1.56v3.458h3.432zm3.606 4.602c0-.918671.155998-1.763662.468-2.535.312001-.771337.74533-1.438663 1.3-2.002.554669-.563336 1.221996-1.000998 2.002-1.313.780004-.312001 1.629329-.468 2.548-.468s1.763663.155999 2.535.468c.771337.312002 1.438664.749664 2.002 1.313.563336.563337 1.000998 1.230663 1.313 2.002.312001.771338.468 1.616329.468 2.535 0 .918672-.155999 1.763663-.468 2.535-.312002.771338-.749664 1.438664-1.313 2.002-.563336.563337-1.230663 1.000999-2.002 1.313-.771337.312002-1.616329.468-2.535.468s-1.767996-.155998-2.548-.468c-.780004-.312001-1.447331-.749663-2.002-1.313-.55467-.563336-.987999-1.230662-1.3-2.002-.312002-.771337-.468-1.616328-.468-2.535zm1.56 0c0 .676004.108332 1.312997.325 1.911s.532998 1.117998.949 1.56c.416002.442003.918664.792999 1.508 1.053.589336.260002 1.247996.39 1.976.39.728003 0 1.386664-.129998 1.976-.39.589336-.260001 1.091998-.610997 1.508-1.053.416002-.442002.732332-.961997.949-1.56s.325-1.234996.325-1.911c0-.676003-.108332-1.312997-.325-1.911s-.532998-1.117997-.949-1.56c-.416002-.442002-.918664-.792998-1.508-1.053-.589336-.260001-1.247997-.39-1.976-.39-.728004 0-1.386664.129999-1.976.39-.589336.260002-1.091998.610998-1.508 1.053-.416002.442003-.732332.961997-.949 1.56s-.325 1.234997-.325 1.911zm16.06-2.626c0-.225334-.008667-.498331-.026-.819-.017334-.320668-.030333-.645665-.039-.975s-.021667-.636998-.039-.923c-.017334-.286001-.026-.506999-.026-.663h1.56c.017333.450669.030333.883998.039 1.3.008667.416003.030333.684667.065.806.398668-.71067.909997-1.291331 1.534-1.742.624003-.450668 1.386662-.676 2.288-.676.156001 0 .307666.013.455.039.147334.026001.298999.056334.455.091l-.182 1.534c-.208001-.069333-.407333-.104-.598-.104-.676004 0-1.260998.108333-1.755.325-.494003.216668-.901332.515665-1.222.897-.320668.381336-.558999.827665-.715 1.339-.156001.511336-.234 1.061664-.234 1.651v6.552h-1.56zm19.492 3.588c0 .589337.004333 1.117998.013 1.586.008667.468003.021666.901332.039 1.3.017333.398669.039.771332.065 1.118.026.346669.065.693332.117 1.04h-1.456c-.104001-.589336-.156-1.239329-.156-1.95h-.052c-.450669.780004-1.009663 1.351999-1.677 1.716-.667337.364002-1.512328.546-2.535.546-.520003 0-1.031331-.064999-1.534-.195-.502669-.13-.953332-.337998-1.352-.624-.398669-.286001-.723666-.654331-.975-1.105-.251335-.450668-.377-.996663-.377-1.638 0-.918671.233997-1.646664.702-2.184.468002-.537336 1.04433-.940332 1.729-1.209s1.412663-.441999 2.184-.52c.771337-.078 1.451664-.117 2.041-.117h1.82v-.728c0-1.040005-.320664-1.785331-.962-2.236-.641337-.450668-1.447329-.676-2.418-.676-1.386674 0-2.608662.450663-3.666 1.352l-.91-1.066c.572003-.554669 1.282662-.974998 2.132-1.261.849337-.286001 1.663996-.429 2.444-.429 1.456007 0 2.617329.34233 3.484 1.027.866671.684671 1.3 1.789659 1.3 3.315zm-3.12-.988c-.65867 0-1.295664.043333-1.911.13-.615337.086668-1.169998.233999-1.664.442-.494003.208001-.888332.485332-1.183.832-.294668.346669-.442.779998-.442 1.3 0 .364002.082332.688999.247.975.164667.286002.376999.52.637.702.260001.182001.550332.320667.871.416.320668.095334.645665.143.975.143.832004 0 1.516664-.121332 2.054-.364.537336-.242667.966332-.558998 1.287-.949.320668-.390001.541666-.831997.663-1.326.121334-.494002.182-.99233.182-1.495v-.806zm14.656-4.576h-3.432v7.826c0 .537336.147332.953332.442 1.248.294668.294669.701997.442 1.222.442.294668 0 .593665-.038999.897-.117.303335-.078.593665-.177666.871-.299l.13 1.404c-.294668.104001-.632665.199333-1.014.286-.381335.086668-.719332.13-1.014.13-.55467 0-1.031332-.082332-1.43-.247-.398669-.164667-.719332-.385665-.962-.663-.242668-.277334-.420333-.602331-.533-.975-.112667-.372668-.169-.775664-.169-1.209v-7.826h-2.6v-1.404h2.6v-3.458h1.56v3.458h3.432zm4.568-1.404h1.56v12.012h-1.56zm-.39-4.758c0-.329335.112665-.606665.338-.832.225334-.225334.502665-.338.832-.338s.606665.112666.832.338c.225334.225335.338.502665.338.832s-.112666.606666-.338.832c-.225335.225335-.502665.338-.832.338s-.606666-.112665-.832-.338c-.225335-.225334-.338-.502665-.338-.832zm7.194 10.764c0-.918671.155998-1.763662.468-2.535.312001-.771337.74533-1.438663 1.3-2.002.554669-.563336 1.221996-1.000998 2.002-1.313.780004-.312001 1.629329-.468 2.548-.468s1.763663.155999 2.535.468c.771337.312002 1.438664.749664 2.002 1.313.563336.563337 1.000998 1.230663 1.313 2.002.312001.771338.468 1.616329.468 2.535 0 .918672-.155999 1.763663-.468 2.535-.312002.771338-.749664 1.438664-1.313 2.002-.563336.563337-1.230663 1.000999-2.002 1.313-.771337.312002-1.616329.468-2.535.468s-1.767996-.155998-2.548-.468c-.780004-.312001-1.447331-.749663-2.002-1.313-.55467-.563336-.987999-1.230662-1.3-2.002-.312002-.771337-.468-1.616328-.468-2.535zm1.56 0c0 .676004.108332 1.312997.325 1.911s.532998 1.117998.949 1.56c.416002.442003.918664.792999 1.508 1.053.589336.260002 1.247996.39 1.976.39.728003 0 1.386664-.129998 1.976-.39.589336-.260001 1.091998-.610997 1.508-1.053.416002-.442002.732332-.961997.949-1.56s.325-1.234996.325-1.911c0-.676003-.108332-1.312997-.325-1.911s-.532998-1.117997-.949-1.56c-.416002-.442002-.918664-.792998-1.508-1.053-.589336-.260001-1.247997-.39-1.976-.39-.728004 0-1.386664.129999-1.976.39-.589336.260002-1.091998.610998-1.508 1.053-.416002.442003-.732332.961997-.949 1.56s-.325 1.234997-.325 1.911zm16.06-2.626c0-.225334-.008667-.498331-.026-.819-.017334-.320668-.030333-.645665-.039-.975s-.021667-.636998-.039-.923c-.017334-.286001-.026-.506999-.026-.663h1.56c.017333.450669.030333.883998.039 1.3.008667.416003.030333.684667.065.806h.078c.312001-.65867.831996-1.22633 1.56-1.703.728003-.476669 1.577328-.715 2.548-.715.936005 0 1.698664.147332 2.288.442.589336.294669 1.052998.680331 1.391 1.157.338002.47667.571999 1.026997.702 1.651.13.624004.195 1.26533.195 1.924v7.15h-1.56v-7.072c0-.485335-.043333-.957664-.13-1.417-.086667-.459335-.238332-.870998-.455-1.235-.216668-.364001-.519998-.654332-.91-.871-.390002-.216667-.896997-.325-1.521-.325-.572003 0-1.113664.099666-1.625.299-.511336.199335-.953332.502665-1.326.91-.372669.407336-.667332.918664-.884 1.534-.216668.615337-.325 1.338996-.325 2.171v6.006h-1.56zm39.816 5.746c-.884005 1.196006-1.906661 2.053998-3.068 2.574-1.161339.520003-2.417993.78-3.77.78-1.404007 0-2.690994-.23833-3.861-.715-1.170006-.476669-2.170996-1.143995-3.003-2.002-.832004-.858004-1.481998-1.88066-1.95-3.068-.468003-1.187339-.702-2.482993-.702-3.887s.233997-2.695327.702-3.874c.468002-1.178672 1.117996-2.196995 1.95-3.055.832004-.858004 1.832994-1.529664 3.003-2.015 1.170006-.485335 2.456993-.728 3.861-.728 1.248006 0 2.413661.220998 3.497.663 1.083339.442003 2.032329 1.182995 2.847 2.223l-1.404 1.17c-.572003-.866671-1.304329-1.499331-2.197-1.898-.892671-.398668-1.806995-.598-2.743-.598-1.196006 0-2.274995.207998-3.237.624-.962005.416003-1.780997.987997-2.457 1.716-.676004.728004-1.195998 1.585996-1.56 2.574-.364002.988005-.546 2.053995-.546 3.198 0 1.144006.181998 2.209996.546 3.198.364002.988005.883996 1.845997 1.56 2.574.676003.728004 1.494995 1.299998 2.457 1.716.962005.416003 2.040994.624 3.237.624.468002 0 .953331-.056332 1.456-.169.502669-.112667.992331-.285998 1.469-.52.476669-.234001.931664-.528664 1.365-.884.433335-.355335.814665-.78433 1.144-1.287zm14.812.624c-.60667.918672-1.356329 1.577332-2.249 1.976-.892671.398669-1.876328.598-2.951.598-.918671 0-1.750663-.155998-2.496-.468-.745337-.312001-1.386664-.749663-1.924-1.313-.537336-.563336-.948999-1.230662-1.235-2.002-.286002-.771337-.429-1.624995-.429-2.561 0-.901337.147332-1.733329.442-2.496.294668-.76267.710664-1.425663 1.248-1.989.537336-.563336 1.169996-1.005331 1.898-1.326.728003-.320668 1.533995-.481 2.418-.481.918671 0 1.728996.160332 2.431.481.702003.320669 1.291331.745331 1.768 1.274.476669.52867.836332 1.130997 1.079 1.807.242668.676004.364 1.360664.364 2.054v1.092h-10.088c0 .329335.064999.749665.195 1.261.13.511336.368331 1.009665.715 1.495.346668.485336.81033.901332 1.391 1.248.580669.346669 1.330329.52 2.249.52.797337 0 1.568663-.190664 2.314-.572.745337-.381335 1.317331-.90133 1.716-1.56zm-1.196-4.758c0-.537336-.108332-1.039997-.325-1.508-.216668-.468002-.511332-.879664-.884-1.235-.372669-.355335-.814664-.636999-1.326-.845s-1.052997-.312-1.625-.312c-.849338 0-1.555664.173332-2.119.52-.563336.346669-1.009665.745332-1.339 1.196-.329335.450669-.563333.888332-.702 1.313-.138668.424669-.208.715-.208.871zm6.544-1.612c0-.225334-.008667-.498331-.026-.819-.017334-.320668-.030333-.645665-.039-.975s-.021667-.636998-.039-.923c-.017334-.286001-.026-.506999-.026-.663h1.56c.017333.450669.030333.883998.039 1.3.008667.416003.030333.684667.065.806.398668-.71067.909997-1.291331 1.534-1.742.624003-.450668 1.386662-.676 2.288-.676.156001 0 .307666.013.455.039.147334.026001.298999.056334.455.091l-.182 1.534c-.208001-.069333-.407333-.104-.598-.104-.676004 0-1.260998.108333-1.755.325-.494003.216668-.901332.515665-1.222.897-.320668.381336-.558999.827665-.715 1.339-.156001.511336-.234 1.061664-.234 1.651v6.552h-1.56zm16.034-1.976h-3.432v7.826c0 .537336.147332.953332.442 1.248.294668.294669.701997.442 1.222.442.294668 0 .593665-.038999.897-.117.303335-.078.593665-.177666.871-.299l.13 1.404c-.294668.104001-.632665.199333-1.014.286-.381335.086668-.719332.13-1.014.13-.55467 0-1.031332-.082332-1.43-.247-.398669-.164667-.719332-.385665-.962-.663-.242668-.277334-.420333-.602331-.533-.975-.112667-.372668-.169-.775664-.169-1.209v-7.826h-2.6v-1.404h2.6v-3.458h1.56v3.458h3.432zm4.568-1.404h1.56v12.012h-1.56zm-.39-4.758c0-.329335.112665-.606665.338-.832.225334-.225334.502665-.338.832-.338s.606665.112666.832.338c.225334.225335.338.502665.338.832s-.112666.606666-.338.832c-.225335.225335-.502665.338-.832.338s-.606666-.112665-.832-.338c-.225335-.225334-.338-.502665-.338-.832zm8.754 6.162h-2.496v-1.404h2.496v-3.926c0-.780003.116999-1.425664.351-1.937.234001-.511335.524331-.922998.871-1.235.346668-.312001.732331-.532999 1.157-.663.424669-.13.827665-.195 1.209-.195.728003 0 1.325997.103999 1.794.312l-.312 1.352c-.346669-.173334-.814664-.26-1.404-.26-1.404007 0-2.106 1.06599-2.106 3.198v3.354h2.808v1.404h-2.808v10.608h-1.56zm8.572-1.404h1.56v12.012h-1.56zm-.39-4.758c0-.329335.112665-.606665.338-.832.225334-.225334.502665-.338.832-.338s.606665.112666.832.338c.225334.225335.338.502665.338.832s-.112666.606666-.338.832c-.225335.225335-.502665.338-.832.338s-.606666-.112665-.832-.338c-.225335-.225334-.338-.502665-.338-.832zm17.932 15.002c-.589336.710671-1.256663 1.234999-2.002 1.573-.745337.338002-1.551329.507-2.418.507-.918671 0-1.767996-.155998-2.548-.468-.780004-.312001-1.447331-.749663-2.002-1.313-.55467-.563336-.987999-1.230662-1.3-2.002-.312002-.771337-.468-1.616328-.468-2.535 0-.918671.155998-1.763662.468-2.535.312001-.771337.74533-1.438663 1.3-2.002.554669-.563336 1.221996-1.000998 2.002-1.313.780004-.312001 1.629329-.468 2.548-.468.884004 0 1.702996.181999 2.457.546.754004.364002 1.425664.87533 2.015 1.534l-1.248.936c-.450669-.502669-.944664-.896998-1.482-1.183-.537336-.286001-1.117997-.429-1.742-.429-.728004 0-1.386664.129999-1.976.39-.589336.260002-1.091998.610998-1.508 1.053-.416002.442003-.732332.961997-.949 1.56s-.325 1.234997-.325 1.911c0 .676004.108332 1.312997.325 1.911s.532998 1.117998.949 1.56c.416002.442003.918664.792999 1.508 1.053.589336.260002 1.247996.39 1.976.39.65867 0 1.260997-.151665 1.807-.455.546003-.303334 1.018331-.70633 1.417-1.209zm13.278-3.276c0 .589337.004333 1.117998.013 1.586.008667.468003.021666.901332.039 1.3.017333.398669.039.771332.065 1.118.026.346669.065.693332.117 1.04h-1.456c-.104001-.589336-.156-1.239329-.156-1.95h-.052c-.450669.780004-1.009663 1.351999-1.677 1.716-.667337.364002-1.512328.546-2.535.546-.520003 0-1.031331-.064999-1.534-.195-.502669-.13-.953332-.337998-1.352-.624-.398669-.286001-.723666-.654331-.975-1.105-.251335-.450668-.377-.996663-.377-1.638 0-.918671.233997-1.646664.702-2.184.468002-.537336 1.04433-.940332 1.729-1.209s1.412663-.441999 2.184-.52c.771337-.078 1.451664-.117 2.041-.117h1.82v-.728c0-1.040005-.320664-1.785331-.962-2.236-.641337-.450668-1.447329-.676-2.418-.676-1.386674 0-2.608662.450663-3.666 1.352l-.91-1.066c.572003-.554669 1.282662-.974998 2.132-1.261.849337-.286001 1.663996-.429 2.444-.429 1.456007 0 2.617329.34233 3.484 1.027.866671.684671 1.3 1.789659 1.3 3.315zm-3.12-.988c-.65867 0-1.295664.043333-1.911.13-.615337.086668-1.169998.233999-1.664.442-.494003.208001-.888332.485332-1.183.832-.294668.346669-.442.779998-.442 1.3 0 .364002.082332.688999.247.975.164667.286002.376999.52.637.702.260001.182001.550332.320667.871.416.320668.095334.645665.143.975.143.832004 0 1.516664-.121332 2.054-.364.537336-.242667.966332-.558998 1.287-.949.320668-.390001.541666-.831997.663-1.326.121334-.494002.182-.99233.182-1.495v-.806zm14.656-4.576h-3.432v7.826c0 .537336.147332.953332.442 1.248.294668.294669.701997.442 1.222.442.294668 0 .593665-.038999.897-.117.303335-.078.593665-.177666.871-.299l.13 1.404c-.294668.104001-.632665.199333-1.014.286-.381335.086668-.719332.13-1.014.13-.55467 0-1.031332-.082332-1.43-.247-.398669-.164667-.719332-.385665-.962-.663-.242668-.277334-.420333-.602331-.533-.975-.112667-.372668-.169-.775664-.169-1.209v-7.826h-2.6v-1.404h2.6v-3.458h1.56v3.458h3.432zm4.568-1.404h1.56v12.012h-1.56zm-.39-4.758c0-.329335.112665-.606665.338-.832.225334-.225334.502665-.338.832-.338s.606665.112666.832.338c.225334.225335.338.502665.338.832s-.112666.606666-.338.832c-.225335.225335-.502665.338-.832.338s-.606666-.112665-.832-.338c-.225335-.225334-.338-.502665-.338-.832zm7.194 10.764c0-.918671.155998-1.763662.468-2.535.312001-.771337.74533-1.438663 1.3-2.002.554669-.563336 1.221996-1.000998 2.002-1.313.780004-.312001 1.629329-.468 2.548-.468s1.763663.155999 2.535.468c.771337.312002 1.438664.749664 2.002 1.313.563336.563337 1.000998 1.230663 1.313 2.002.312001.771338.468 1.616329.468 2.535 0 .918672-.155999 1.763663-.468 2.535-.312002.771338-.749664 1.438664-1.313 2.002-.563336.563337-1.230663 1.000999-2.002 1.313-.771337.312002-1.616329.468-2.535.468s-1.767996-.155998-2.548-.468c-.780004-.312001-1.447331-.749663-2.002-1.313-.55467-.563336-.987999-1.230662-1.3-2.002-.312002-.771337-.468-1.616328-.468-2.535zm1.56 0c0 .676004.108332 1.312997.325 1.911s.532998 1.117998.949 1.56c.416002.442003.918664.792999 1.508 1.053.589336.260002 1.247996.39 1.976.39.728003 0 1.386664-.129998 1.976-.39.589336-.260001 1.091998-.610997 1.508-1.053.416002-.442002.732332-.961997.949-1.56s.325-1.234996.325-1.911c0-.676003-.108332-1.312997-.325-1.911s-.532998-1.117997-.949-1.56c-.416002-.442002-.918664-.792998-1.508-1.053-.589336-.260001-1.247997-.39-1.976-.39-.728004 0-1.386664.129999-1.976.39-.589336.260002-1.091998.610998-1.508 1.053-.416002.442003-.732332.961997-.949 1.56s-.325 1.234997-.325 1.911zm16.06-2.626c0-.225334-.008667-.498331-.026-.819-.017334-.320668-.030333-.645665-.039-.975s-.021667-.636998-.039-.923c-.017334-.286001-.026-.506999-.026-.663h1.56c.017333.450669.030333.883998.039 1.3.008667.416003.030333.684667.065.806h.078c.312001-.65867.831996-1.22633 1.56-1.703.728003-.476669 1.577328-.715 2.548-.715.936005 0 1.698664.147332 2.288.442.589336.294669 1.052998.680331 1.391 1.157.338002.47667.571999 1.026997.702 1.651.13.624004.195 1.26533.195 1.924v7.15h-1.56v-7.072c0-.485335-.043333-.957664-.13-1.417-.086667-.459335-.238332-.870998-.455-1.235-.216668-.364001-.519998-.654332-.91-.871-.390002-.216667-.896997-.325-1.521-.325-.572003 0-1.113664.099666-1.625.299-.511336.199335-.953332.502665-1.326.91-.372669.407336-.667332.918664-.884 1.534-.216668.615337-.325 1.338996-.325 2.171v6.006h-1.56z"/></g></svg>