<svg height="49" viewBox="0 0 406 49" width="406" xmlns="http://www.w3.org/2000/svg"><g fill="#373737" fill-rule="evenodd" transform="translate(0 1)"><path d="m330.193 40.774c9.857 0 16.839-7.392 16.839-16.975 0-9.581-6.982-16.973-16.839-16.973s-16.838 7.392-16.838 16.973c0 9.583 6.981 16.975 16.838 16.975m0-4.106c-7.392 0-12.184-5.796-12.184-12.869 0-7.071 4.792-12.866 12.184-12.866 7.393 0 12.185 5.795 12.185 12.866 0 7.073-4.792 12.869-12.185 12.869"/><path d="m135.69 22.938 14.702-13.798c.744-.702 2.205-1.276 3.246-1.276l5.045-.017-17.571 15.346 18.035 16.99-4.706-.014c-1.041 0-2.472-.6-3.182-1.334l-13.88-13.485c-.71-.734-1.635-1.698-1.739-1.698l.069 14.693c0 1.004-.852 1.824-1.892 1.824l-2.744.014v-30.495c0-1.003.852-1.824 1.894-1.824l2.742-.017z"/><path d="m197.877 38.478c.391.931 1.562 1.692 2.603 1.692l3.176.015-13.736-30.643c-.41-.923-.983-1.678-2.024-1.678h-1.228c-1.04 0-1.575.751-1.996 1.67l-14.12 30.651 3.53-.015c1.04 0 2.209-.763 2.595-1.695l2.729-6.29h15.896zm-4.26-10.087h-12.713l6.376-14.959z"/><path d="m224.883 36.154 16.943-.183c1.041 0 1.893.82 1.893 1.824l.025 2.374h-21.555c-1.041 0-1.893-.819-1.893-1.824v-28.657c0-1.004.852-1.825 1.893-1.825h21.267l.007 2.42c0 1.003-.852 1.824-1.891 1.824l-16.689-.136-.024 9.627h16.556v3.97h-16.525z"/><path d="m270.074 12.932.38 25.413c0 1.004-.852 1.825-1.892 1.825l-3.029.002v-32.304l4.543-.004c1.04 0 2.365.682 2.945 1.517l17.018 25.811-.38-25.504c0-1.003.852-1.824 1.893-1.824l3.076.004v32.304l-4.402-.002c-1.041 0-2.37-.68-2.954-1.512z"/><path d="m370.435 13.028.379 25.414c0 1.004-.851 1.826-1.891 1.826l-3.03.002v-32.305l4.543-.004c1.041 0 2.367.684 2.946 1.517l17.017 25.812-.379-25.503c0-1.005.851-1.826 1.892-1.826l3.076.004v32.305l-4.401-.002c-1.041 0-2.369-.68-2.953-1.511z"/><path d="m403.188 9.74h.291c.333 0 .615-.121.615-.432 0-.223-.16-.444-.615-.444-.13 0-.22.01-.291.021zm0 1.397h-.403v-2.525c.213-.029.412-.06.715-.06.383 0 .634.08.785.192.151.11.231.28.231.523 0 .333-.221.532-.493.613v.021c.221.039.373.242.422.612.062.393.121.545.161.624h-.421c-.061-.079-.122-.311-.171-.644-.061-.321-.222-.441-.544-.441h-.282zm.422-3.229c-.996 0-1.809.855-1.809 1.913 0 1.075.813 1.92 1.82 1.92 1.007.01 1.812-.845 1.812-1.91 0-1.068-.805-1.923-1.812-1.923zm.011-.35c1.237 0 2.224 1.004 2.224 2.263 0 1.277-.987 2.273-2.235 2.273-1.236 0-2.244-.996-2.244-2.273 0-1.259 1.008-2.263 2.244-2.263z"/><path d="m.733 39.3c-.00000002-2.4000008 7.9000001-22.9999998 24.6-33.8 16.6999976-10.80000052 83.4-4.1 89.2 1.1-.600003 1.99999998-14.9 29.7-25.3999985 34.2000007-38.4000015 13.7000008-84.8000016 1.3999978-88.4000015-1.5000007zm31.768-30.278c5.186-1.768 11.763-3.035 18.965-3.831-12.935 6.682-25.861 17.007-30.582 24.902 13.377-1.265 30.919-11.588 43.146-25.79 10.145-.298 20.611.329 29.662 1.833-11.832.037-21.579 5.69-39.502 16.177-14.597 8.521-26.82 12.389-40.681 11.293 3.954-10.067 14.57-20.715 18.992-24.584zm54.683 25.069c-20.511 5.105-52.816 5.472-66.57 1.967 22.261.845 36.07-11.412 47.058-12.23 1.697 7.08 11.05 10.228 19.512 10.263z"/></g></svg>