<svg height="71" viewBox="0 0 165 71" width="165" xmlns="http://www.w3.org/2000/svg"><g fill="#c32033" fill-rule="evenodd"><path d="m66.8288842 21.8551883v.7388572c0 .5863976.029073 1.1200113.0872198 1.6008573s.1671704.8854542.327074 1.2138368c.1599037.3283827.3743168.5863937.6432457.7740409s.606902.2814694 1.0139295.2814694c.4797111 0 .9121713-.2521471 1.2973938-.756449s.5778308-1.2841989.5778308-2.3397145c0-.5629416-.0472435-1.0496443-.1417321-1.4601226-.0944885-.4104782-.2507556-.7799032-.4688061-1.1082858s-.5051459-.6274409-.861295-.8971837c-.3561491-.2697429-.7958776-.5453456-1.3191987-.8268164-.6977615-.3752944-1.3010254-.7857666-1.8098098-1.2314287s-.9339764-.9675481-1.2755888-1.5656736-.5923666-1.2900642-.7522703-2.0758369-.2398543-1.6946753-.2398543-2.7267349c0-2.48632561.4288261-4.33931405 1.2864913-5.55902093.8576651-1.21970688 2.0351199-1.82955118 3.5323998-1.82955118.6977614 0 1.3410006.12314164 1.9297369.36942861.5887362.24628696 1.097513.64503131 1.5263456 1.196245.4288325.55121369.7631716 1.25488018 1.0030271 2.11102059s.3597814 1.88232071.3597814 3.07857171v.7036735h-3.0090813c0-1.196251-.1308283-2.1168813-.3924888-2.76191859-.2616606-.6450373-.697755-.96755111-1.3082963-.96755111-.3488807 0-.6396103.08209443-.8721974.24628574-.2325872.16419131-.4179273.38115514-.5560259.65089801-.1380987.26974287-.2325858.5805289-.2834642.93236743-.0508785.35183852-.0763173.71539952-.0763173 1.09069402 0 .7740447.1017554 1.4249362.3052691 1.952694.2035138.5277578.6396082 1.0144604 1.3082962 1.4601226l2.420348 1.6888164c.5960046.4222063 1.0829767.8619978 1.4609308 1.3193879.3779542.4573901.6795861.9499566.9049049 1.4777144s.381586 1.1082827.4688061 1.741592c.0872202.6333094.1308297 1.3369758.1308297 2.1110206 0 2.6505169-.4760697 4.5797358-1.4282234 5.7877148-.9521537 1.2079789-2.2786074 1.8119593-3.979401 1.8119593-1.7734771 0-3.0417849-.6215721-3.8049615-1.8647348-.7631766-1.2431628-1.1447592-3.0257846-1.1447592-5.3479189v-1.0203266zm17.9018533-17.27518514v4.15167383h-3.4015702v20.96947121h-3.1399109v-20.96947121h-3.4015702v-4.15167383zm3.5978146 15.65673604h3.0526912l-1.5045407-11.29396015h-.0436099zm-.4142938-15.65673604h3.8812788l4.121133 25.12114504h-3.2707405l-.7195629-5.3127352h-4.142938l-.719563 5.3127352h-3.2707405zm9.0926587 0h5.800113c1.308303 0 2.325857.53361376 3.052691 1.60085728.726835 1.06724353 1.090247 2.69154035 1.090247 4.87293916 0 1.688825-.210779 3.0668385-.632343 4.134082s-1.075706 1.7533184-1.962444 2.0582451v.0703674c.784981.1876472 1.359172.5981193 1.72259 1.2314286.363417.6333094.588733 1.6536258.675953 3.0609799.029073.469118.050878.9792762.065415 1.5304899.014536.5512137.029073 1.1669219.043609 1.847143.029074 1.3369864.072683 2.3573028.13083 3.0609799.08722.703677.276195 1.1845158.566928 1.4425307v.2111021h-3.40157c-.159903-.3518385-.261659-.7564468-.305269-1.2138369-.04361-.45739-.072683-.9323649-.08722-1.4249389l-.087219-4.8201636c-.029074-.9851479-.181707-1.759181-.457904-2.3221227-.276197-.5629416-.741365-.8444082-1.395516-.8444082h-1.67898v10.6254703h-3.139911zm3.139911 10.97730704h1.308296c.755908 0 1.337368-.2873305 1.744395-.862.407028-.5746696.610538-1.5422111.610538-2.9026534 0-2.32213421-.726824-3.48318393-2.180493-3.48318393h-1.482736zm17.705609-10.97730704v4.15167383h-3.40157v20.96947121h-3.139911v-20.96947121h-3.401571v-4.15167383zm0 0"/><path d="m128.119514 0v23.6644173c0 .8553447.042387 1.6393989.127163 2.3521861s.242215 1.3305269.472322 1.8532375.544985.9345371.944644 1.2354917.902254.4514296 1.507798.4514296c.629766 0 1.138415-.150475 1.525963-.4514296s.696371-.7127811.926478-1.2354917.387546-1.1404503.472322-1.8532375.127164-1.4968414.127164-2.3521861v-23.6644173h5.231875v23.6644173c0 2.1542014-.230103 3.9361427-.690317 5.3458775-.460213 1.4097347-1.077859 2.5264179-1.852956 3.3500831-.775096.8236653-1.659177 1.378047-2.65227 1.6631619-.993092.2851149-2.022502.4276702-3.088259.4276702-1.065758 0-2.095168-.1267158-3.08826-.3801513-.993092-.2534354-1.877173-.7682185-2.65227-1.5443646-.775096-.7761461-1.392742-1.8769898-1.852956-3.3025642-.460213-1.4255745-.690317-3.2787935-.690317-5.5597126v-23.6644173zm19.873858 15.348608h2.325278c1.041536 0 1.88323-.4118264 2.525107-1.2354916.641876-.8236653.96281-2.106663.96281-3.8490318 0-1.71068929-.278546-3.00952652-.835647-3.89655062-.5571-.88702409-1.489624-1.33052948-2.7976-1.33052948h-2.179948zm-5.231875-15.348608h9.155782c1.332197 0 2.452437.29303035 3.360753.87909984s1.641014 1.35428419 2.198114 2.30466715c.557101.95038296.956754 2.03538723 1.198972 3.25504536.242217 1.21965813.363324 2.46305718.363324 3.73023445 0 1.7423688-.199826 3.2629587-.599486 4.5618154-.399659 1.2988567-.956751 2.3601018-1.671293 3.183767s-1.580457 1.4414049-2.597771 1.8532375-2.14361.6177458-3.37892.6177458h-2.7976v13.5428895h-5.231875zm0 0"/><path d="m63.459854.76190476v1.52380953h54.394161v-1.52380953zm0 0"/><path d="m63.6889733 31.8399251v1.7517564h54.4251227v-1.7517564zm0 0"/><path d="m30.2189781 60.952381c-16.6894816 0-30.2189781-13.6446545-30.2189781-30.4761905 0-16.8315361 13.5294965-30.4761905 30.2189781-30.4761905s30.2189781 13.6446544 30.2189781 30.4761905c0 16.831536-13.5294965 30.4761905-30.2189781 30.4761905zm-.0008226-52.55824181-3.6349838 6.83741141c-.4124663.7431128-1.1514811.6741877-1.8904971.2591359l-2.6316313-1.3743086 1.9613957 10.5021204c.4124663 1.9186779-.9109101 1.9186779-1.5640029 1.0890751l-4.5927085-5.1852317-.7456182 2.633184c-.0859828.3457935-.4640345.7089855-1.031201.6224955l-5.8075323-1.2314399 1.5253856 5.5929233c.3265443 1.2444881.5812565 1.7597488-.32966 2.0879763l-2.06999193.9811708 9.99729113 8.1896373c.3956985.3096578.5956214.8669099.4547501 1.3714629l-.8749759 2.8958328c3.4422151-.4001638 6.5264932-1.0022003 9.9704516-1.3729771.3040309-.0327324.8130153.4732789.8109279.8286078l-.4560886 10.6091875h1.6736221l-.2634477-10.5864353c-.0020992-.3553289.459656-.8840924.763687-.85136 3.4439584.3707779 6.5282408.9728133 9.9704548 1.3729771l-.8749738-2.8958328c-.1408713-.504553.0590505-1.0618051.4547491-1.3714629l9.9972889-8.1896373-2.0699898-.9811708c-.9109186-.3282275-.6562064-.8434882-.3296621-2.0879763l1.5253888-5.5929233-5.8075355 1.2314399c-.5671665.08649-.9452182-.276702-1.0312031-.6224955l-.7456171-2.633184-4.5927064 5.1852317c-.6530949.8296028-1.9764724.8296028-1.5640061-1.0890751l1.9613925-10.5021204-2.631626 1.3743086c-.7390341.4150518-1.4780308.4839769-1.8904982-.2591359zm0 0"/><path d="m64.2100649 60.4038996v-23.1307704h4.2136683v19.3080381h7.4617044v3.8227323zm17.3228587-11.5653852c0 1.5550176.0341382 2.8778425.1024155 3.9685146.0682774 1.090672.2048301 1.9761548.4096622 2.656475s.4974451 1.1770544.8778476 1.4902177.8827214.4697425 1.5069717.4697425c.6242502 0 1.1265691-.1565792 1.5069716-.4697425s.6730155-.8098975.8778476-1.4902177.3413848-1.565803.4096622-2.656475c.0682773-1.0906721.1024155-2.413497.1024155-3.9685146 0-1.5550175-.0341382-2.8724432-.1024155-3.9523165-.0682774-1.0798733-.2048301-1.9653561-.4096622-2.656475s-.4974451-1.1932525-.8778476-1.5064157c-.3804025-.3131633-.8827214-.4697426-1.5069716-.4697426-.6242503 0-1.1265692.1565793-1.5069717.4697426-.3804025.3131632-.6730155.8152968-.8778476 1.5064157s-.3413848 1.5766017-.4096622 2.656475c-.0682773 1.0798733-.1024155 2.397299-.1024155 3.9523165zm-4.2136683 0c0-1.7493947.0731532-3.3637811.2194618-4.8432075.1463087-1.4794264.4681829-2.7482585.9656324-3.8065344.4974494-1.0582758 1.2143511-1.8843665 2.1507265-2.4782968s2.194611-.890891 3.7747446-.890891c1.5801335 0 2.8383691.2969607 3.7747445.890891s1.6532771 1.420021 2.1507265 2.4782968c.4974495 1.0582759.8193237 2.327108.9656324 3.8065344.1463086 1.4794264.2194618 3.0938128.2194618 4.8432075 0 1.7709922-.0731532 3.3907779-.2194618 4.8594056-.1463087 1.4686277-.4681829 2.7320605-.9656324 3.7903363-.4974494 1.0582758-1.2143511 1.8681687-2.1507265 2.4297028s-2.194611.8422969-3.7747445.8422969c-1.5801336 0-2.8383692-.2807628-3.7747446-.8422969s-1.6532771-1.371427-2.1507265-2.4297028c-.4974495-1.0582758-.8193237-2.3217086-.9656324-3.7903363-.1463086-1.4686277-.2194618-3.0884134-.2194618-4.8594056zm21.5657885-11.5653852 5.0915162 15.8416621h.058523v-15.8416621h3.862529v23.1307704h-4.7989l-5.1500389-16.1980185h-.0585232v16.1980185h-3.8625293v-23.1307704zm16.3572262 19.6967905h1.872742c.741297 0 1.336276-.1403814 1.784956-.4211485.44868-.280767.804693-.7451056 1.068048-1.3930296.263356-.6479239.438924-1.501011.526709-2.5592869.087785-1.0582758.131677-2.3757015.131677-3.9523165 0-1.3174454-.039015-2.4728925-.117046-3.466376-.078032-.9934834-.238969-1.8195741-.482817-2.4782968-.243847-.6587227-.604737-1.155457-1.082678-1.4902177-.477942-.3347607-1.116813-.5021386-1.916634-.5021386h-1.784957zm-4.213668-19.6967905h6.905734c1.463087 0 2.643292.264565 3.540652.7937029s1.594754 1.2850379 2.092203 2.2677226c.49745.9826847.833955 2.1651282 1.009525 3.5473661.17557 1.3822378.263354 2.9264334.263354 4.6326333 0 2.0301618-.112168 3.7957281-.336508 5.296752s-.609614 2.7374603-1.155833 3.7093462c-.546219.971886-1.277751 1.6953903-2.194619 2.1705345-.916867.4751443-2.077565.7127128-3.482128.7127128h-6.64238zm20.366063 11.5653852c0 1.5550176.034139 2.8778425.102416 3.9685146.068277 1.090672.20483 1.9761548.409662 2.656475s.497445 1.1770544.877848 1.4902177c.380402.3131633.882721.4697425 1.506971.4697425.624251 0 1.12657-.1565792 1.506972-.4697425.380403-.3131633.673015-.8098975.877848-1.4902177.204832-.6803202.341384-1.565803.409662-2.656475.068277-1.0906721.102415-2.413497.102415-3.9685146 0-1.5550175-.034138-2.8724432-.102415-3.9523165-.068278-1.0798733-.20483-1.9653561-.409662-2.656475-.204833-.6911189-.497445-1.1932525-.877848-1.5064157-.380402-.3131633-.882721-.4697426-1.506972-.4697426-.62425 0-1.126569.1565793-1.506971.4697426-.380403.3131632-.673016.8152968-.877848 1.5064157s-.341385 1.5766017-.409662 2.656475-.102416 2.397299-.102416 3.9523165zm-4.213668 0c0-1.7493947.073153-3.3637811.219462-4.8432075s.468183-2.7482585.965632-3.8065344c.49745-1.0582758 1.214351-1.8843665 2.150727-2.4782968.936375-.5939303 2.194611-.890891 3.774744-.890891 1.580134 0 2.838369.2969607 3.774745.890891.936375.5939303 1.653277 1.420021 2.150726 2.4782968.49745 1.0582759.819324 2.327108.965633 3.8065344.146308 1.4794264.219462 3.0938128.219462 4.8432075 0 1.7709922-.073154 3.3907779-.219462 4.8594056-.146309 1.4686277-.468183 2.7320605-.965633 3.7903363-.497449 1.0582758-1.214351 1.8681687-2.150726 2.4297028-.936376.5615341-2.194611.8422969-3.774745.8422969-1.580133 0-2.838369-.2807628-3.774744-.8422969-.936376-.5615341-1.653277-1.371427-2.150727-2.4297028-.497449-1.0582758-.819323-2.3217086-.965632-3.7903363s-.219462-3.0884134-.219462-4.8594056zm21.565789-11.5653852 5.091516 15.8416621h.058523v-15.8416621h3.862529v23.1307704h-4.7989l-5.150039-16.1980185h-.058523v16.1980185h-3.86253v-23.1307704zm0 0"/><path d="m83.1717216 66.9825941h-2.0206729v.8455298h2.0206729zm2.3646173-1.3614463v5.0946754h.9888399v-1.5979081h.0143311c.1050946.1528649.2233243.2639292.3546925.3331961.1313683.0692669.2902021.1038999.4765062.1038999.4060475 0 .7046073-.1552511.8956884-.465758.1910811-.3105068.2866203-.8240297.2866203-1.540584 0-.7165542-.0955392-1.2336598-.2866203-1.5513322s-.4896409-.4765062-.8956884-.4765062c-.2006351 0-.3690229.0394099-.5051682.1182309-.1361453.0788209-.2591519.208993-.3690236.3905201h-.014331v-.4084339zm.9888399 1.9275213c0-.4203785.0322445-.7368518.0967344-.9494296s.2066043-.3188651.4263476-.3188651c.2149663 0 .3546923.1062873.4191822.3188651s.0967343.5290511.0967343.9494296-.0322444.7368519-.0967343.9494297-.2042159.318865-.4191822.318865c-.2197433 0-.3618577-.1062872-.4263476-.318865s-.0967344-.5290512-.0967344-.9494297c0 0 0 .4203785 0 0zm3.4537743 0c0-.1958581.004777-.3773825.014331-.5445785.0095541-.167196.0322446-.3105047.0680724-.4299304.0358277-.1194257.0895684-.2125764.1612239-.2794548.0716554-.0668784.1671945-.100317.2866202-.100317.2006352 0 .339167.105093.4155994.3152823.0764325.2101892.1146481.5565186.1146481 1.0389984 0 .4824799-.0382156.8288093-.1146481 1.0389985-.0764324.2101893-.2149642.3152823-.4155994.3152823-.1194257 0-.2149648-.0334387-.2866202-.1003171-.0716555-.0668784-.1253962-.160029-.1612239-.2794547-.0358278-.1194257-.0585183-.2627344-.0680724-.4299304-.009554-.167196-.014331-.3487204-.014331-.5445786 0 0 0 .1958582 0 0zm-.9888399 0c0 .334392.0238848.6293691.0716551.8849401.0477702.2555711.1289785.4681456.2436272.6377301.1146487.1695846.2698998.2937854.4657579.3726064.1958582.078821.4418715.1158424.7380472.1110654.2818447 0 .5194983-.0406042.712968-.1218137.1934696-.0812094.3499149-.2066046.4693407-.3761891.1194257-.1695845.2054109-.3809648.2579582-.6341473s.0788206-.5445769.0788206-.8741919c0-.339169-.0238848-.6353403-.0716551-.8885228s-.1289785-.4657571-.2436272-.6377301-.2698998-.2997566-.465758-.3833546c-.1958581-.083598-.4418714-.1230079-.7380472-.1182309-.2818446 0-.5194982.0441869-.7129679.1325619-.1934696.088375-.349915.2173528-.4693407.3869374-.1194257.1695845-.2054109.3809648-.2579582.6341473-.0525474.2531825-.0788206.5445769-.0788206.8741918zm3.2889676-1.9275213.8383643 3.8550427h1.1464811l.480089-2.7372236h.014331l.508751 2.7372236h1.1249845l.8311988-3.8550427h-.9458469l-.4657579 2.7372236h-.014331l-.508751-2.7372236h-1.074826l-.480089 2.7372236h-.014331l-.4514269-2.7372236zm7.1798379 1.4904254h-1.0103365v-.1504756c0-.0907636.0083597-.1815257.0250793-.2722893.0167196-.0907635.0441871-.173166.0824033-.24721.0382162-.0740439.0895685-.1337559.1540584-.1791376.0644899-.0453818.1468924-.0680723.24721-.0680723s.1827201.020302.24721.0609068c.0644898.0406047.1146479.1003167.1504756.1791376.0358277.078821.0609067.1743601.0752378.2866203s.023885.2424322.0286621.3905201c0 0-.0047771-.1480879 0 0zm-1.0103365.5875716h1.9561838v-.2221307c0-.2961758-.019108-.5648796-.057324-.8061195-.038217-.24124-.109871-.4466491-.214966-.6162336-.105094-.1695845-.2495973-.3009509-.4335129-.3941029-.1839156-.0931521-.4191807-.1397274-.7058024-.1397274-.334392 0-.6019016.054935-.8025368.1648067-.2006351.1098716-.354692.2579573-.4621751.4442614-.1074832.1863041-.1791375.3988787-.2149652.6377301-.0358278.2388514-.0537413.4872532-.0537413.7452127 0 .2436285.0107481.4872533.0322447.7308817.0214967.2436285.0800144.4633685.1755549.6592266.0955406.1958582.2436263.3534978.4442615.4729235s.4800871.1791377.8383643.1791377c.4729258 0 .8192552-.1170355 1.0389985-.3511099.2197428-.2340744.3391668-.5756268.3582758-1.0246675h-.8885233c-.0286622.2436285-.0812087.4251528-.1576412.5445786-.0764325.1194257-.1982448.1791376-.3654408.1791376-.0907636 0-.1671949-.025079-.2292963-.0752378-.0621013-.0501588-.1122594-.1170362-.1504756-.2006342s-.0656837-.1791371-.0824033-.2866203c-.0167196-.1074831-.0250793-.2185473-.0250793-.333196 0 0 0 .1146487 0 0zm2.4720998-2.077997v3.8550427h.98884v-2.3144587c0-.1289798.021496-.2376556.06449-.3260306.042993-.088375.100316-.1600294.171972-.2149652.071655-.0549358.150475-.0943457.236461-.1182309.085987-.0238851.171972-.0358275.257959-.0358275.052547 0 .103899.0011942.154058.0035828.050159.0023885.101511.0059712.154058.0107482v-.9458469c-.028662-.004777-.058518-.0083597-.089568-.0107482-.031051-.0023886-.060907-.0035828-.089569-.0035828-.205412 0-.379771.0561293-.523082.1683894-.143311.1122602-.265123.2615401-.365441.4478442h-.014331v-.5159165zm4.24198 1.4904254h-1.010336v-.1504756c0-.0907636.008359-.1815257.025079-.2722893.016719-.0907635.044187-.173166.082403-.24721.038216-.0740439.089569-.1337559.154059-.1791376.06449-.0453818.146892-.0680723.24721-.0680723.100317 0 .18272.020302.24721.0609068.064489.0406047.114648.1003167.150475.1791376.035828.078821.060907.1743601.075238.2866203s.023885.2424322.028662.3905201c0 0-.004777-.1480879 0 0zm-1.010336.5875716h1.956183v-.2221307c0-.2961758-.019108-.5648796-.057324-.8061195-.038216-.24124-.109871-.4466491-.214965-.6162336-.105095-.1695845-.249598-.3009509-.433513-.3941029-.183916-.0931521-.419181-.1397274-.705803-.1397274-.334392 0-.601901.054935-.802537.1648067-.200635.1098716-.354692.2579573-.462175.4442614s-.179137.3988787-.214965.6377301-.053741.4872532-.053741.7452127c0 .2436285.010748.4872533.032244.7308817.021497.2436285.080015.4633685.175555.6592266.095541.1958582.243627.3534978.444262.4729235s.480087.1791377.838364.1791377c.472926 0 .819255-.1170355 1.038999-.3511099.219743-.2340744.339167-.5756268.358275-1.0246675h-.888523c-.028662.2436285-.081209.4251528-.157641.5445786-.076433.1194257-.198245.1791376-.365441.1791376-.090763 0-.167195-.025079-.229296-.0752378-.062102-.0501588-.11226-.1170362-.150476-.2006342s-.065684-.1791371-.082403-.2866203c-.01672-.1074831-.025079-.2185473-.025079-.333196 0 0 0 .1146487 0 0zm4.449779 1.3686118v.4084339h.945847v-5.1161719h-.98884v1.6194045h-.014331c-.105094-.1528649-.223324-.2675118-.354692-.3439443-.131369-.0764324-.290202-.1146481-.476506-.1146481-.406048 0-.704608.1588338-.895689.4765062s-.28662.834778-.28662 1.5513322c0 .7165543.095539 1.2300772.28662 1.540584.191081.3105069.489641.465758.895689.465758.200635 0 .369022-.0358272.505168-.1074827.136145-.0716554.259152-.1982447.369023-.3797718 0 0-.109871.1815271 0 0zm-1.081991-1.5190875c0-.4203785.032244-.7368518.096734-.9494296s.204216-.3188651.419182-.3188651c.219744 0 .361858.1062873.426348.3188651s.096734.5290511.096734.9494296-.032244.7368519-.096734.9494297-.206604.318865-.426348.318865c-.214966 0-.354692-.1062872-.419182-.318865s-.096734-.5290512-.096734-.9494297c0 0 0 .4203785 0 0zm4.406787-3.1886505v5.1161719h.945846v-.4084339h.014331c.109872.1815271.232879.3081164.369024.3797718.136145.0716555.304533.1074827.505168.1074827.406048 0 .704607-.1552511.895689-.465758.191081-.3105068.28662-.8240297.28662-1.540584 0-.7165542-.095539-1.2336598-.28662-1.5513322-.191082-.3176724-.489641-.4765062-.895689-.4765062-.186304 0-.345138.0382157-.476506.1146481-.131368.0764325-.249598.1910794-.354693.3439443h-.014331v-1.6194045zm.988839 3.1886505c0-.4203785.032245-.7368518.096735-.9494296s.206604-.3188651.426347-.3188651c.214967 0 .354693.1062873.419183.3188651.064489.2125778.096734.5290511.096734.9494296s-.032245.7368519-.096734.9494297c-.06449.2125778-.204216.318865-.419183.318865-.219743 0-.361857-.1062872-.426347-.318865s-.096735-.5290512-.096735-.9494297c0 0 0 .4203785 0 0zm2.593914 2.4291069v.7380472h.401268c.229298 0 .419182-.0167194.569658-.0501586.150477-.0334392.279454-.1038993.386937-.2113824.107484-.1074832.200634-.2603458.279455-.4585925s.161224-.4573966.24721-.7774575l.931516-3.5970844h-.98884l-.501585 2.6655685h-.014331l-.573241-2.6655685h-1.031833l1.081992 3.8550427c-.014331.1576419-.060907.2842313-.139728.3797718-.078821.0955406-.208993.1433102-.39052.1433102-.085986 0-.171972-.0071655-.257958-.0214965 0 0 .085986.014331 0 0zm5.761067-2.0994935h-1.031833v.2077997c0 .4729258.125396.8359745.37619 1.089157s.667583.3797719 1.25038.3797719c.558913 0 .99481-.1230067 1.307705-.3690237.312896-.2460169.469341-.6389216.469341-1.1787258 0-.157642-.014331-.3009507-.042993-.4299304-.028662-.1289798-.080014-.2472095-.154058-.3546926-.074044-.1074832-.173166-.2077993-.297369-.3009513-.124203-.0931521-.284231-.18272-.480089-.2687065l-.795371-.3439443c-.219743-.0907636-.363052-.1898854-.42993-.2973686-.066879-.1074831-.100318-.2400437-.100318-.3976856 0-.0764325.00836-.1504753.02508-.2221307.016719-.0716554.04777-.1349501.093151-.1898859.045382-.0549359.106288-.0991227.182721-.1325619.076432-.0334392.171971-.0501586.28662-.0501586.200635 0 .343944.0656832.42993.1970515.085987.1313683.12898.3188638.12898.5624923h.98884v-.1433102c0-.2436284-.03941-.4526203-.118231-.6269818-.078821-.1743616-.188691-.3176703-.329614-.4299304-.140922-.1122602-.308115-.1934685-.501585-.2436273s-.40485-.0752378-.634147-.0752378c-.492034 0-.878968.1242009-1.160813.3726064-.281844.2484054-.422764.625785-.422764 1.13215 0 .2101893.026273.3952964.07882.5553268.052547.1600305.13495.3009507.24721.4227649s.251986.2281015.419182.3188651c.167196.0907635.36544.1743603.594737.2507927.171973.0573244.316476.1134536.433513.1683894.117038.0549359.211383.1158421.283038.1827205.071655.0668783.123008.1421154.154058.2257134.031051.083598.046576.1827199.046576.2973685 0 .2149663-.063295.3738001-.189886.4765063-.126591.1027061-.268705.1540583-.426347.1540583-.133757 0-.244821-.0191078-.333196-.057324-.088376-.0382162-.158836-.0907628-.211383-.1576412s-.088374-.1492809-.107483-.2472099c-.019108-.0979291-.028662-.2066049-.028662-.3260306 0 0 0 .1194257 0 0zm3.074003-3.3606227v1.103488h-.501586v.6735576h.501586v2.2069761c0 .1958582.011942.3582747.035827.4872545.023886.1289798.068072.2328786.132562.3116996.06449.0788209.157641.1313675.279455.1576411.121814.0262737.27826.0394103.469341.0394103.114648 0 .223324-.0035827.32603-.0107483.102706-.0071655.208994-.0107482.318865-.0107482v-.6878887c-.033439.004777-.069266.0083598-.107482.0107483s-.076432.0035827-.114648.0035827c-.143311 0-.237656-.0322444-.283038-.0967343s-.068072-.1731657-.068072-.3260306v-2.0851625h.57324v-.6735576h-.57324v-1.103488zm3.704567 3.0310093v.7595438c0 .1050946-.019108.1958568-.057324.2722892-.038216.0764325-.08718.1385329-.146893.1863032s-.125396.0824032-.197052.1038998c-.071655.0214967-.140921.0322448-.207799.0322448-.133757 0-.229296-.0525465-.28662-.1576411-.057325-.1050946-.085987-.231684-.085987-.3797719 0-.171973.042993-.3081163.12898-.4084339.085986-.1003176.229295-.1719719.42993-.2149652.062101-.0143311.131367-.0370216.2078-.0680723.076432-.0310507.148086-.072849.214965-.1253964 0 0-.066879.0525474 0 0zm-1.805708-.7452127h.888523v-.1074826c0-.1528649.038216-.2746773.114648-.3654408.076433-.0907636.19108-.1361446.343944-.1361446.167196 0 .285426.0417983.354693.1253963s.1039.1994392.1039.3475271c0 .1289798-.028662.2269074-.085986.2937858-.057325.0668784-.160029.1194249-.308117.1576411l-.55891.1504757c-.171973.0477703-.318864.1027053-.440678.1648066-.121814.0621014-.222131.1397269-.300951.232879-.078821.0931521-.137339.2054105-.175555.3367788-.038217.1313683-.057324.2878136-.057324.4693407 0 .1289798.016719.2591519.050158.3905201.033439.1313683.085986.249598.157641.3546926.071656.1050947.167195.1874972.286621.24721.119425.0597129.265122.0895689.437095.0895689.238852 0 .433513-.029856.583989-.0895689.150477-.0597128.283037-.1898849.397686-.3905201h.014331c.014331.0668784.029856.13495.046576.2042169.016719.069267.041798.1349501.075237.1970515h.945847c-.04777-.1146487-.080014-.2221302-.096734-.3224478s-.025079-.2412379-.025079-.4227649v-2.0278385c0-.171973-.017914-.3308068-.053742-.4765062-.035827-.1456993-.103899-.2710945-.204216-.3761891-.100318-.1050946-.241238-.1863029-.422765-.2436272s-.420375-.0859861-.716551-.0859861c-.186304 0-.361857.0203021-.526665.0609068-.164807.0406048-.308116.1074822-.42993.2006342-.121814.0931521-.218548.2149645-.290203.3654409-.071656.1504764-.107483.3379719-.107483.5624922zm3.453774-1.1823086v3.8550427h.98884v-2.3144587c0-.1289798.021497-.2376556.06449-.3260306s.100317-.1600294.171972-.2149652c.071656-.0549358.150475-.0943457.236462-.1182309.085986-.0238851.171972-.0358275.257958-.0358275.052547 0 .1039.0011942.154058.0035828.050159.0023885.101512.0059712.154059.0107482v-.9458469c-.028662-.004777-.058518-.0083597-.089569-.0107482-.031051-.0023886-.060907-.0035828-.089569-.0035828-.205412 0-.379771.0561293-.523082.1683894-.143311.1122602-.265123.2615401-.365441.4478442h-.014331v-.5159165zm2.601079-1.103488v1.103488h-.501585v.6735576h.501585v2.2069761c0 .1958582.011943.3582747.035828.4872545s.068072.2328786.132562.3116996c.06449.0788209.15764.1313675.279455.1576411.121814.0262737.278259.0394103.46934.0394103.114649 0 .223325-.0035827.326031-.0107483.102706-.0071655.208993-.0107482.318865-.0107482v-.6878887c-.033439.004777-.069266.0083598-.107483.0107483-.038216.0023885-.076432.0035827-.114648.0035827-.143311 0-.237656-.0322444-.283037-.0967343-.045382-.0644899-.068073-.1731657-.068073-.3260306v-2.0851625h.573241v-.6735576h-.573241v-1.103488zm3.883705 4.5071037v.451427h.945847v-3.8550427h-.98884v2.5580859c0 .4251556-.174359.6377301-.523082.6377301-.148088 0-.255569-.0394098-.322448-.1182308-.066878-.078821-.100317-.218547-.100317-.4191822v-2.658403h-.98884v2.8590372c0 .3869393.084791.6628086.254376.8276161.169584.1648074.412015.24721.727299.24721.214966 0 .406044-.0406042.57324-.1218137.167196-.0812094.303339-.2173527.408434-.4084339 0 0-.105095.1910812 0 0zm1.605074-3.4036157v5.0946754h.98884v-1.5979081h.014331c.105094.1528649.223324.2639292.354692.3331961s.290202.1038999.476506.1038999c.406048 0 .704608-.1552511.895689-.465758.191081-.3105068.28662-.8240297.28662-1.540584 0-.7165542-.095539-1.2336598-.28662-1.5513322s-.489641-.4765062-.895689-.4765062c-.200635 0-.369023.0394099-.505168.1182309-.136145.0788209-.259152.208993-.369023.3905201h-.014331v-.4084339zm.98884 1.9275213c0-.4203785.032244-.7368518.096734-.9494296s.206604-.3188651.426348-.3188651c.214966 0 .354692.1062873.419182.3188651s.096734.5290511.096734.9494296-.032244.7368519-.096734.9494297-.204216.318865-.419182.318865c-.219744 0-.361858-.1062872-.426348-.318865s-.096734-.5290512-.096734-.9494297c0 0 0 .4203785 0 0zm6.527776-1.4617634h1.031833c0-.1863041-.013136-.385742-.03941-.5983198-.026274-.2125777-.091957-.4108214-.197051-.594737-.105095-.1839156-.263929-.335584-.476507-.4550097-.212577-.1194257-.502778-.1791377-.870609-.1791377-.386939 0-.695053.0656832-.92435.1970514-.229297.1313683-.404851.3140869-.526665.5481613s-.200634.5147206-.236462.8419471c-.035827.3272264-.053741.6843039-.053741 1.0712432 0 .3917164.017914.7499881.053741 1.0748261.035828.3248379.114648.6042899.236462.8383643s.297368.4132102.526665.537413c.229297.1242027.537411.1863032.92435.1863032.339169 0 .615039-.0525466.827616-.1576412.212578-.1050946.377383-.2507918.49442-.4370959s.197052-.4036557.240045-.6520611c.042993-.2484055.064489-.5111381.064489-.7882058h-1.031833c0 .2770677-.016719.5003904-.050158.6699749s-.07882.3009508-.136145.3941029c-.057324.093152-.125396.1552525-.204217.1863032-.078821.0310506-.163612.0465757-.254375.0465757-.109872 0-.206605-.0226905-.290203-.0680723-.083598-.0453817-.152864-.1337554-.2078-.2651237s-.09554-.3164754-.121814-.5553268c-.026273-.2388514-.03941-.5517421-.03941-.9386814 0-.3630542.009554-.6699736.028662-.9207676s.052547-.4538147.100317-.6090681c.047771-.1552534.113454-.2675119.197052-.3367788s.189885-.1038999.318865-.1038999c.234074 0 .395296.084791.483671.2543755s.132562.4406768.132562.813285zm3.432278 1.4617634v.7595438c0 .1050946-.019108.1958568-.057324.2722892-.038216.0764325-.08718.1385329-.146893.1863032s-.125396.0824032-.197051.1038998c-.071656.0214967-.140922.0322448-.2078.0322448-.133757 0-.229296-.0525465-.28662-.1576411-.057325-.1050946-.085986-.231684-.085986-.3797719 0-.171973.042992-.3081163.128979-.4084339.085986-.1003176.229295-.1719719.42993-.2149652.062102-.0143311.131367-.0370216.2078-.0680723.076432-.0310507.148087-.072849.214965-.1253964 0 0-.066878.0525474 0 0zm-1.805708-.7452127h.888523v-.1074826c0-.1528649.038216-.2746773.114648-.3654408.076433-.0907636.19108-.1361446.343945-.1361446.167196 0 .285425.0417983.354692.1253963s.1039.1994392.1039.3475271c0 .1289798-.028662.2269074-.085986.2937858s-.160029.1194249-.308117.1576411l-.558909.1504757c-.171973.0477703-.318865.1027053-.440679.1648066-.121814.0621014-.22213.1397269-.300951.232879s-.137339.2054105-.175555.3367788-.057324.2878136-.057324.4693407c0 .1289798.016719.2591519.050158.3905201.033439.1313683.085986.249598.157641.3546926.071656.1050947.167195.1874972.286621.24721.119425.0597129.265123.0895689.437096.0895689.238851 0 .433512-.029856.583988-.0895689.150477-.0597128.283037-.1898849.397686-.3905201h.014331c.014331.0668784.029856.13495.046576.2042169.016719.069267.041798.1349501.075238.1970515h.945847c-.047771-.1146487-.080015-.2221302-.096735-.3224478-.016719-.1003176-.025079-.2412379-.025079-.4227649v-2.0278385c0-.171973-.017914-.3308068-.053741-.4765062-.035828-.1456993-.1039-.2710945-.204217-.3761891-.100318-.1050946-.241238-.1863029-.422765-.2436272s-.420375-.0859861-.716551-.0859861c-.186304 0-.361857.0203021-.526665.0609068-.164807.0406048-.308116.1074822-.42993.2006342-.121814.0931521-.218548.2149645-.290203.3654409s-.107483.3379719-.107483.5624922zm3.453775-1.1823086v3.8550427h.98884v-2.558086c0-.4251555.174359-.6377301.523082-.6377301.148087 0 .255569.0394099.322447.1182309.066879.078821.100317.218547.100317.4191821v2.6584031h.98884v-2.8590372c0-.3869393-.084791-.6663913-.254375-.8383643-.169585-.1719731-.412015-.2579583-.727299-.2579583-.214966 0-.406045.0441869-.573241.1325619s-.303339.228101-.408433.4191821h-.014331v-.4514269zm5.381295 1.9275213v.7595438c0 .1050946-.019108.1958568-.057324.2722892-.038216.0764325-.08718.1385329-.146893.1863032s-.125396.0824032-.197051.1038998c-.071656.0214967-.140921.0322448-.2078.0322448-.133757 0-.229296-.0525465-.28662-.1576411s-.085986-.231684-.085986-.3797719c0-.171973.042992-.3081163.128979-.4084339.085986-.1003176.229295-.1719719.42993-.2149652.062102-.0143311.131368-.0370216.2078-.0680723.076433-.0310507.148087-.072849.214965-.1253964 0 0-.066878.0525474 0 0zm-1.805707-.7452127h.888522v-.1074826c0-.1528649.038216-.2746773.114649-.3654408.076432-.0907636.191079-.1361446.343944-.1361446.167196 0 .285426.0417983.354692.1253963.069267.083598.1039.1994392.1039.3475271 0 .1289798-.028661.2269074-.085986.2937858-.057324.0668784-.160029.1194249-.308117.1576411l-.558909.1504757c-.171973.0477703-.318865.1027053-.440679.1648066-.121814.0621014-.22213.1397269-.300951.232879s-.137339.2054105-.175555.3367788-.057324.2878136-.057324.4693407c0 .1289798.016719.2591519.050158.3905201.03344.1313683.085986.249598.157642.3546926.071655.1050947.167194.1874972.28662.24721.119426.0597129.265123.0895689.437096.0895689.238851 0 .433512-.029856.583989-.0895689.150476-.0597128.283037-.1898849.397685-.3905201h.014331c.014331.0668784.029856.13495.046576.2042169.01672.069267.041799.1349501.075238.1970515h.945847c-.047771-.1146487-.080015-.2221302-.096735-.3224478-.016719-.1003176-.025079-.2412379-.025079-.4227649v-2.0278385c0-.171973-.017913-.3308068-.053741-.4765062-.035828-.1456993-.103899-.2710945-.204217-.3761891s-.241238-.1863029-.422765-.2436272-.420375-.0859861-.716551-.0859861c-.186304 0-.361857.0203021-.526664.0609068-.164808.0406048-.308117.1074822-.429931.2006342-.121814.0931521-.218547.2149645-.290203.3654409-.071655.1504764-.107482.3379719-.107482.5624922zm5.431454 2.2643002v.4084339h.945847v-5.1161719h-.98884v1.6194045h-.014331c-.105095-.1528649-.223325-.2675118-.354693-.3439443-.131368-.0764324-.290202-.1146481-.476506-.1146481-.406048 0-.704607.1588338-.895688.4765062-.191082.3176724-.286621.834778-.286621 1.5513322 0 .7165543.095539 1.2300772.286621 1.540584.191081.3105069.48964.465758.895688.465758.200635 0 .369023-.0358272.505168-.1074827.136145-.0716554.259152-.1982447.369024-.3797718 0 0-.109872.1815271 0 0zm-1.081992-1.5190875c0-.4203785.032245-.7368518.096735-.9494296.064489-.2125778.204215-.3188651.419182-.3188651.219743 0 .361857.1062873.426347.3188651s.096735.5290511.096735.9494296-.032245.7368519-.096735.9494297-.206604.318865-.426347.318865c-.214967 0-.354693-.1062872-.419182-.318865-.06449-.2125778-.096735-.5290512-.096735-.9494297 0 0 0 .4203785 0 0zm4.485607 0v.7595438c0 .1050946-.019107.1958568-.057324.2722892-.038216.0764325-.08718.1385329-.146892.1863032-.059713.0477703-.125396.0824032-.197052.1038998-.071655.0214967-.140921.0322448-.2078.0322448-.133756 0-.229296-.0525465-.28662-.1576411s-.085986-.231684-.085986-.3797719c0-.171973.042993-.3081163.128979-.4084339.085987-.1003176.229295-.1719719.429931-.2149652.062101-.0143311.131367-.0370216.207799-.0680723.076433-.0310507.148087-.072849.214965-.1253964 0 0-.066878.0525474 0 0zm-1.805707-.7452127h.888523v-.1074826c0-.1528649.038215-.2746773.114648-.3654408.076432-.0907636.191079-.1361446.343944-.1361446.167196 0 .285426.0417983.354693.1253963s.103899.1994392.103899.3475271c0 .1289798-.028661.2269074-.085986.2937858-.057324.0668784-.160029.1194249-.308116.1576411l-.55891.1504757c-.171973.0477703-.318864.1027053-.440679.1648066-.121814.0621014-.22213.1397269-.300951.232879s-.137339.2054105-.175555.3367788-.057324.2878136-.057324.4693407c0 .1289798.016719.2591519.050159.3905201.033439.1313683.085985.249598.157641.3546926.071655.1050947.167194.1874972.28662.24721.119426.0597129.265123.0895689.437096.0895689.238851 0 .433512-.029856.583989-.0895689.150476-.0597128.283037-.1898849.397685-.3905201h.014331c.014332.0668784.029857.13495.046576.2042169.01672.069267.041799.1349501.075238.1970515h.945847c-.04777-.1146487-.080015-.2221302-.096734-.3224478-.01672-.1003176-.02508-.2412379-.02508-.4227649v-2.0278385c0-.171973-.017913-.3308068-.053741-.4765062-.035828-.1456993-.103899-.2710945-.204217-.3761891-.100317-.1050946-.241238-.1863029-.422765-.2436272s-.420375-.0859861-.71655-.0859861c-.186305 0-.361858.0203021-.526665.0609068-.164808.0406048-.308116.1074822-.429931.2006342-.121814.0931521-.218547.2149645-.290203.3654409-.071655.1504764-.107482.3379719-.107482.5624922zm0 0"/><path d="m162.075129 57.4600433h-1.865454v.4827273h.638182v2.4381818h.589091v-2.4381818h.638181zm.265909 0v2.9209091h.54v-2.3318182h.008182l.519546 2.3318182h.458182l.519545-2.3318182h.008182v2.3318182h.54v-2.9209091h-.871364l-.421363 2.0618182h-.008182l-.417273-2.0618182zm0 0"/></g></svg>